Atma-Bold.ufo
<glyph name="dollar" format="1">
  <advance width="505"/>
  <unicode hex="0024"/>
  <outline>
    <contour>
      <point x="302" y="35" type="qcurve"/>
      <point x="305" y="0"/>
      <point x="307" y="-45"/>
      <point x="305" y="-63" type="qcurve"/>
      <point x="279" y="-72"/>
      <point x="205" y="-75"/>
      <point x="178" y="-69" type="qcurve"/>
      <point x="182" y="-42"/>
      <point x="186" y="8"/>
      <point x="186" y="35" type="qcurve"/>
      <point x="101" y="50"/>
      <point x="-5" y="160"/>
      <point x="-5" y="230" type="qcurve"/>
      <point x="30" y="246"/>
      <point x="110" y="263"/>
      <point x="148" y="263" type="qcurve"/>
      <point x="148" y="208"/>
      <point x="199" y="132"/>
      <point x="235" y="132" type="qcurve" smooth="yes"/>
      <point x="260" y="132"/>
      <point x="287" y="157"/>
      <point x="287" y="180" type="qcurve" smooth="yes"/>
      <point x="287" y="198"/>
      <point x="265" y="231"/>
      <point x="240" y="250" type="qcurve" smooth="yes"/>
      <point x="229" y="258"/>
      <point x="180" y="291"/>
      <point x="167" y="301" type="qcurve" smooth="yes"/>
      <point x="86" y="360"/>
      <point x="38" y="442"/>
      <point x="38" y="497" type="qcurve" smooth="yes"/>
      <point x="38" y="566"/>
      <point x="131" y="670"/>
      <point x="209" y="686" type="qcurve"/>
      <point x="206" y="719"/>
      <point x="204" y="763"/>
      <point x="206" y="780" type="qcurve"/>
      <point x="232" y="789"/>
      <point x="306" y="792"/>
      <point x="333" y="786" type="qcurve"/>
      <point x="329" y="760"/>
      <point x="325" y="713"/>
      <point x="325" y="688" type="qcurve"/>
      <point x="393" y="677"/>
      <point x="479" y="594"/>
      <point x="495" y="523" type="qcurve"/>
      <point x="464" y="505"/>
      <point x="385" y="487"/>
      <point x="332" y="485" type="qcurve"/>
      <point x="322" y="541"/>
      <point x="298" y="585"/>
      <point x="277" y="585" type="qcurve" smooth="yes"/>
      <point x="263" y="585"/>
      <point x="244" y="561"/>
      <point x="244" y="544" type="qcurve" smooth="yes"/>
      <point x="244" y="516"/>
      <point x="287" y="464"/>
      <point x="337" y="432" type="qcurve" smooth="yes"/>
      <point x="425" y="374"/>
      <point x="489" y="285"/>
      <point x="489" y="221" type="qcurve" smooth="yes"/>
      <point x="489" y="152"/>
      <point x="386" y="50"/>
    </contour>
  </outline>
</glyph>
<glyph name="percent" format="1">
  <advance width="992"/>
  <unicode hex="0025"/>
  <outline>
    <contour>
      <point x="588" y="802" type="qcurve"/>
      <point x="625" y="796"/>
      <point x="701" y="755"/>
      <point x="730" y="725" type="qcurve"/>
      <point x="650" y="539"/>
      <point x="459" y="173"/>
      <point x="328" y="-42" type="qcurve"/>
      <point x="296" y="-35"/>
      <point x="242" y="-8"/>
      <point x="214" y="15" type="qcurve"/>
      <point x="334" y="219"/>
      <point x="536" y="643"/>
    </contour>
    <contour>
      <point x="20" y="542" type="qcurve"/>
      <point x="20" y="646"/>
      <point x="154" y="784"/>
      <point x="258" y="784" type="qcurve"/>
      <point x="342" y="784"/>
      <point x="432" y="698"/>
      <point x="432" y="617" type="qcurve"/>
      <point x="432" y="573"/>
      <point x="396" y="469"/>
      <point x="365" y="431" type="qcurve" smooth="yes"/>
      <point x="332" y="390"/>
      <point x="243" y="349"/>
      <point x="188" y="349" type="qcurve" smooth="yes"/>
      <point x="107" y="349"/>
      <point x="20" y="452"/>
    </contour>
    <contour>
      <point x="266" y="579" type="qcurve" smooth="yes"/>
      <point x="266" y="632"/>
      <point x="248" y="687"/>
      <point x="231" y="687" type="qcurve" smooth="yes"/>
      <point x="208" y="687"/>
      <point x="182" y="620"/>
      <point x="182" y="563" type="qcurve" smooth="yes"/>
      <point x="182" y="514"/>
      <point x="204" y="446"/>
      <point x="223" y="446" type="qcurve" smooth="yes"/>
      <point x="244" y="446"/>
      <point x="266" y="516"/>
    </contour>
    <contour>
      <point x="560" y="172" type="qcurve"/>
      <point x="560" y="276"/>
      <point x="694" y="414"/>
      <point x="798" y="414" type="qcurve"/>
      <point x="882" y="414"/>
      <point x="972" y="328"/>
      <point x="972" y="247" type="qcurve"/>
      <point x="972" y="203"/>
      <point x="936" y="99"/>
      <point x="905" y="61" type="qcurve" smooth="yes"/>
      <point x="872" y="20"/>
      <point x="783" y="-21"/>
      <point x="728" y="-21" type="qcurve" smooth="yes"/>
      <point x="647" y="-21"/>
      <point x="560" y="82"/>
    </contour>
    <contour>
      <point x="806" y="209" type="qcurve" smooth="yes"/>
      <point x="806" y="262"/>
      <point x="788" y="317"/>
      <point x="771" y="317" type="qcurve" smooth="yes"/>
      <point x="748" y="317"/>
      <point x="722" y="250"/>
      <point x="722" y="193" type="qcurve" smooth="yes"/>
      <point x="722" y="144"/>
      <point x="744" y="76"/>
      <point x="763" y="76" type="qcurve" smooth="yes"/>
      <point x="784" y="76"/>
      <point x="806" y="146"/>
    </contour>
  </outline>
</glyph>
<glyph name="ampersand" format="1">
  <advance width="845"/>
  <unicode hex="0026"/>
  <outline>
    <contour>
      <point x="847" y="60" type="qcurve"/>
      <point x="831" y="13"/>
      <point x="777" y="-61"/>
      <point x="740" y="-87" type="qcurve"/>
      <point x="704" y="-74"/>
      <point x="632" y="-44"/>
      <point x="595" y="-25" type="qcurve"/>
      <point x="549" y="-50"/>
      <point x="437" y="-74"/>
      <point x="371" y="-74" type="qcurve" smooth="yes"/>
      <point x="223" y="-74"/>
      <point x="40" y="67"/>
      <point x="40" y="182" type="qcurve" smooth="yes"/>
      <point x="40" y="260"/>
      <point x="141" y="377"/>
      <point x="228" y="400" type="qcurve"/>
      <point x="225" y="420"/>
      <point x="222" y="459"/>
      <point x="222" y="479" type="qcurve" smooth="yes"/>
      <point x="222" y="590"/>
      <point x="352" y="723"/>
      <point x="466" y="723" type="qcurve" smooth="yes"/>
      <point x="548" y="723"/>
      <point x="647" y="647"/>
      <point x="647" y="586" type="qcurve" smooth="yes"/>
      <point x="647" y="512"/>
      <point x="529" y="412"/>
      <point x="423" y="394" type="qcurve"/>
      <point x="444" y="334"/>
      <point x="528" y="231"/>
      <point x="591" y="186" type="qcurve"/>
      <point x="600" y="207"/>
      <point x="609" y="254"/>
      <point x="609" y="279" type="qcurve" smooth="yes"/>
      <point x="609" y="303"/>
      <point x="603" y="351"/>
      <point x="595" y="383" type="qcurve"/>
      <point x="645" y="398"/>
      <point x="748" y="387"/>
      <point x="791" y="362" type="qcurve"/>
      <point x="790" y="334"/>
      <point x="784" y="282"/>
      <point x="779" y="256" type="qcurve" smooth="yes"/>
      <point x="771" y="214"/>
      <point x="746" y="140"/>
      <point x="728" y="108" type="qcurve"/>
      <point x="755" y="96"/>
      <point x="814" y="72"/>
    </contour>
    <contour>
      <point x="441" y="626" type="qcurve" smooth="yes"/>
      <point x="421" y="626"/>
      <point x="401" y="578"/>
      <point x="401" y="528" type="qcurve" smooth="yes"/>
      <point x="401" y="513"/>
      <point x="403" y="480"/>
      <point x="406" y="461" type="qcurve"/>
      <point x="438" y="478"/>
      <point x="473" y="536"/>
      <point x="473" y="572" type="qcurve" smooth="yes"/>
      <point x="473" y="598"/>
      <point x="456" y="626"/>
    </contour>
    <contour>
      <point x="239" y="238" type="qcurve" smooth="yes"/>
      <point x="239" y="160"/>
      <point x="341" y="61"/>
      <point x="421" y="61" type="qcurve" smooth="yes"/>
      <point x="429" y="61"/>
      <point x="443" y="63"/>
      <point x="450" y="64" type="qcurve"/>
      <point x="380" y="116"/>
      <point x="281" y="238"/>
      <point x="254" y="307" type="qcurve"/>
      <point x="246" y="292"/>
      <point x="239" y="259"/>
    </contour>
  </outline>
</glyph>
<glyph name="parenleft" format="1">
  <advance width="379"/>
  <unicode hex="0028"/>
  <outline>
    <contour>
      <point x="403" y="731" type="qcurve"/>
      <point x="289" y="646"/>
      <point x="168" y="426"/>
      <point x="168" y="304" type="qcurve" smooth="yes"/>
      <point x="168" y="197"/>
      <point x="265" y="14"/>
      <point x="384" y="-101" type="qcurve"/>
      <point x="365" y="-127"/>
      <point x="316" y="-162"/>
      <point x="270" y="-183" type="qcurve"/>
      <point x="151" y="-80"/>
      <point x="21" y="171"/>
      <point x="21" y="298" type="qcurve" smooth="yes"/>
      <point x="21" y="446"/>
      <point x="154" y="704"/>
      <point x="289" y="817" type="qcurve"/>
      <point x="321" y="805"/>
      <point x="377" y="763"/>
    </contour>
  </outline>
</glyph>
<glyph name="asterisk" format="1">
  <advance width="514"/>
  <unicode hex="002A"/>
  <outline>
    <contour>
      <point x="297" y="437" type="qcurve"/>
      <point x="300" y="407"/>
      <point x="312" y="348"/>
      <point x="323" y="304" type="qcurve"/>
      <point x="310" y="296"/>
      <point x="274" y="286"/>
      <point x="256" y="286" type="qcurve" smooth="yes"/>
      <point x="241" y="286"/>
      <point x="216" y="289"/>
      <point x="203" y="293" type="qcurve"/>
      <point x="202" y="316"/>
      <point x="207" y="384"/>
      <point x="212" y="428" type="qcurve"/>
      <point x="181" y="403"/>
      <point x="133" y="367"/>
      <point x="111" y="350" type="qcurve"/>
      <point x="99" y="356"/>
      <point x="72" y="383"/>
      <point x="63" y="399" type="qcurve" smooth="yes"/>
      <point x="56" y="410"/>
      <point x="46" y="433"/>
      <point x="42" y="449" type="qcurve"/>
      <point x="72" y="465"/>
      <point x="137" y="497"/>
      <point x="173" y="512" type="qcurve"/>
      <point x="146" y="524"/>
      <point x="89" y="544"/>
      <point x="46" y="556" type="qcurve"/>
      <point x="45" y="570"/>
      <point x="55" y="606"/>
      <point x="64" y="622" type="qcurve" smooth="yes"/>
      <point x="70" y="634"/>
      <point x="85" y="654"/>
      <point x="96" y="666" type="qcurve"/>
      <point x="117" y="654"/>
      <point x="174" y="616"/>
      <point x="208" y="591" type="qcurve"/>
      <point x="206" y="603"/>
      <point x="202" y="631"/>
      <point x="199" y="659" type="qcurve" smooth="yes"/>
      <point x="196" y="682"/>
      <point x="192" y="706"/>
      <point x="191" y="716" type="qcurve"/>
      <point x="204" y="724"/>
      <point x="240" y="734"/>
      <point x="258" y="734" type="qcurve" smooth="yes"/>
      <point x="273" y="734"/>
      <point x="298" y="731"/>
      <point x="311" y="727" type="qcurve"/>
      <point x="310" y="690"/>
      <point x="305" y="617"/>
      <point x="300" y="581" type="qcurve"/>
      <point x="329" y="603"/>
      <point x="377" y="644"/>
      <point x="403" y="670" type="qcurve"/>
      <point x="415" y="664"/>
      <point x="442" y="637"/>
      <point x="451" y="621" type="qcurve" smooth="yes"/>
      <point x="458" y="610"/>
      <point x="468" y="587"/>
      <point x="472" y="571" type="qcurve"/>
      <point x="451" y="558"/>
      <point x="389" y="528"/>
      <point x="351" y="512" type="qcurve"/>
      <point x="377" y="502"/>
      <point x="458" y="468"/>
      <point x="468" y="464" type="qcurve"/>
      <point x="469" y="450"/>
      <point x="459" y="414"/>
      <point x="450" y="398" type="qcurve" smooth="yes"/>
      <point x="444" y="386"/>
      <point x="429" y="366"/>
      <point x="418" y="354" type="qcurve"/>
      <point x="391" y="371"/>
      <point x="330" y="413"/>
    </contour>
  </outline>
</glyph>
<glyph name="hyphen" format="1">
  <advance width="386"/>
  <unicode hex="002D"/>
  <outline>
    <contour>
      <point x="342" y="203" type="qcurve"/>
      <point x="273" y="185"/>
      <point x="61" y="188"/>
      <point x="26" y="209" type="qcurve"/>
      <point x="23" y="255"/>
      <point x="32" y="324"/>
      <point x="44" y="360" type="qcurve"/>
      <point x="68" y="354"/>
      <point x="150" y="347"/>
      <point x="184" y="347" type="qcurve" smooth="yes"/>
      <point x="258" y="347"/>
      <point x="331" y="350"/>
      <point x="361" y="353" type="qcurve"/>
      <point x="361" y="302"/>
      <point x="352" y="229"/>
    </contour>
  </outline>
</glyph>
<glyph name="period" format="1">
  <advance width="271"/>
  <unicode hex="002E"/>
  <outline>
    <contour>
      <point x="55" y="135" type="qcurve"/>
      <point x="100" y="146"/>
      <point x="197" y="149"/>
      <point x="246" y="142" type="qcurve"/>
      <point x="244" y="94"/>
      <point x="237" y="15"/>
      <point x="231" y="-24" type="qcurve"/>
      <point x="184" y="-29"/>
      <point x="105" y="-29"/>
      <point x="62" y="-23" type="qcurve"/>
      <point x="58" y="29"/>
      <point x="55" y="95"/>
    </contour>
  </outline>
</glyph>
<glyph name="one" format="1">
  <advance width="491"/>
  <unicode hex="0031"/>
  <outline>
    <contour>
      <point x="338" y="-29" type="qcurve"/>
      <point x="318" y="-38"/>
      <point x="263" y="-48"/>
      <point x="231" y="-48" type="qcurve" smooth="yes"/>
      <point x="211" y="-48"/>
      <point x="184" y="-45"/>
      <point x="171" y="-41" type="qcurve"/>
      <point x="169" y="-27"/>
      <point x="168" y="10"/>
      <point x="168" y="50" type="qcurve" smooth="yes"/>
      <point x="168" y="120"/>
      <point x="187" y="307"/>
      <point x="206" y="418" type="qcurve"/>
      <point x="204" y="417"/>
      <point x="139" y="373"/>
      <point x="118" y="361" type="qcurve"/>
      <point x="82" y="388"/>
      <point x="27" y="462"/>
      <point x="9" y="508" type="qcurve"/>
      <point x="101" y="549"/>
      <point x="269" y="646"/>
      <point x="343" y="701" type="qcurve"/>
      <point x="379" y="689"/>
      <point x="439" y="651"/>
      <point x="462" y="625" type="qcurve"/>
      <point x="426" y="532"/>
      <point x="353" y="157"/>
    </contour>
  </outline>
</glyph>
<glyph name="two" format="1">
  <advance width="551"/>
  <unicode hex="0032"/>
  <outline>
    <contour>
      <point x="488" y="120" type="qcurve"/>
      <point x="488" y="73"/>
      <point x="473" y="-13"/>
      <point x="459" y="-47" type="qcurve"/>
      <point x="343" y="-46"/>
      <point x="72" y="-10"/>
      <point x="-10" y="16" type="qcurve"/>
      <point x="-10" y="58"/>
      <point x="-4" y="105"/>
      <point x="3" y="125" type="qcurve"/>
      <point x="148" y="220"/>
      <point x="310" y="400"/>
      <point x="310" y="465" type="qcurve" smooth="yes"/>
      <point x="310" y="498"/>
      <point x="287" y="532"/>
      <point x="264" y="532" type="qcurve" smooth="yes"/>
      <point x="237" y="532"/>
      <point x="204" y="472"/>
      <point x="189" y="395" type="qcurve"/>
      <point x="132" y="395"/>
      <point x="42" y="412"/>
      <point x="6" y="430" type="qcurve"/>
      <point x="34" y="537"/>
      <point x="167" y="641"/>
      <point x="276" y="641" type="qcurve" smooth="yes"/>
      <point x="382" y="641"/>
      <point x="516" y="536"/>
      <point x="516" y="453" type="qcurve" smooth="yes"/>
      <point x="516" y="367"/>
      <point x="389" y="220"/>
      <point x="224" y="114" type="qcurve"/>
      <point x="374" y="114"/>
      <point x="454" y="117"/>
    </contour>
  </outline>
</glyph>
<glyph name="six" format="1">
  <advance width="618"/>
  <unicode hex="0036"/>
  <outline>
    <contour>
      <point x="389" y="398" type="qcurve" smooth="yes"/>
      <point x="479" y="398"/>
      <point x="590" y="296"/>
      <point x="590" y="210" type="qcurve" smooth="yes"/>
      <point x="590" y="162"/>
      <point x="544" y="58"/>
      <point x="504" y="21" type="qcurve" smooth="yes"/>
      <point x="466" y="-14"/>
      <point x="366" y="-50"/>
      <point x="306" y="-50" type="qcurve" smooth="yes"/>
      <point x="174" y="-50"/>
      <point x="32" y="132"/>
      <point x="32" y="293" type="qcurve" smooth="yes"/>
      <point x="32" y="467"/>
      <point x="216" y="691"/>
      <point x="363" y="691" type="qcurve" smooth="yes"/>
      <point x="455" y="691"/>
      <point x="574" y="604"/>
      <point x="590" y="527" type="qcurve"/>
      <point x="552" y="502"/>
      <point x="472" y="477"/>
      <point x="420" y="473" type="qcurve"/>
      <point x="413" y="517"/>
      <point x="383" y="557"/>
      <point x="357" y="557" type="qcurve" smooth="yes"/>
      <point x="306" y="557"/>
      <point x="243" y="442"/>
      <point x="238" y="339" type="qcurve"/>
      <point x="269" y="368"/>
      <point x="345" y="398"/>
    </contour>
    <contour>
      <point x="244" y="206" type="qcurve"/>
      <point x="254" y="146"/>
      <point x="298" y="80"/>
      <point x="327" y="80" type="qcurve" smooth="yes"/>
      <point x="352" y="80"/>
      <point x="381" y="127"/>
      <point x="381" y="164" type="qcurve" smooth="yes"/>
      <point x="381" y="211"/>
      <point x="340" y="270"/>
      <point x="310" y="270" type="qcurve" smooth="yes"/>
      <point x="290" y="270"/>
      <point x="255" y="236"/>
    </contour>
  </outline>
</glyph>
<glyph name="nine" format="1">
  <advance width="618"/>
  <unicode hex="0039"/>
  <outline>
    <contour>
      <point x="241" y="475" type="qcurve" smooth="yes"/>
      <point x="241" y="428"/>
      <point x="284" y="371"/>
      <point x="320" y="371" type="qcurve" smooth="yes"/>
      <point x="344" y="371"/>
      <point x="375" y="402"/>
      <point x="384" y="435" type="qcurve"/>
      <point x="381" y="509"/>
      <point x="347" y="581"/>
      <point x="314" y="581" type="qcurve" smooth="yes"/>
      <point x="281" y="581"/>
      <point x="241" y="522"/>
    </contour>
    <contour>
      <point x="590" y="411" type="qcurve" smooth="yes"/>
      <point x="590" y="216"/>
      <point x="386" y="-30"/>
      <point x="224" y="-30" type="qcurve" smooth="yes"/>
      <point x="164" y="-30"/>
      <point x="65" y="2"/>
      <point x="27" y="33" type="qcurve"/>
      <point x="48" y="79"/>
      <point x="96" y="146"/>
      <point x="127" y="171" type="qcurve"/>
      <point x="142" y="149"/>
      <point x="210" y="118"/>
      <point x="245" y="118" type="qcurve" smooth="yes"/>
      <point x="296" y="118"/>
      <point x="362" y="199"/>
      <point x="376" y="278" type="qcurve"/>
      <point x="352" y="259"/>
      <point x="294" y="241"/>
      <point x="258" y="241" type="qcurve" smooth="yes"/>
      <point x="155" y="241"/>
      <point x="32" y="355"/>
      <point x="32" y="451" type="qcurve" smooth="yes"/>
      <point x="32" y="562"/>
      <point x="188" y="711"/>
      <point x="316" y="711" type="qcurve" smooth="yes"/>
      <point x="442" y="711"/>
      <point x="590" y="546"/>
    </contour>
  </outline>
</glyph>
<glyph name="semicolon" format="1">
  <advance width="280"/>
  <unicode hex="003B"/>
  <outline>
    <contour>
      <point x="259" y="533" type="qcurve"/>
      <point x="262" y="491"/>
      <point x="266" y="400"/>
      <point x="267" y="370" type="qcurve"/>
      <point x="221" y="371"/>
      <point x="90" y="376"/>
      <point x="77" y="376" type="qcurve"/>
      <point x="74" y="431"/>
      <point x="69" y="506"/>
      <point x="65" y="544" type="qcurve"/>
      <point x="88" y="549"/>
      <point x="132" y="553"/>
      <point x="159" y="553" type="qcurve" smooth="yes"/>
      <point x="187" y="553"/>
      <point x="241" y="542"/>
    </contour>
    <contour>
      <point x="78" y="148" type="qcurve"/>
      <point x="132" y="148"/>
      <point x="225" y="141"/>
      <point x="259" y="134" type="qcurve"/>
      <point x="257" y="41"/>
      <point x="213" y="-143"/>
      <point x="172" y="-232" type="qcurve"/>
      <point x="130" y="-230"/>
      <point x="63" y="-220"/>
      <point x="35" y="-212" type="qcurve"/>
      <point x="58" y="-123"/>
      <point x="79" y="57"/>
    </contour>
  </outline>
</glyph>
<glyph name="less" format="1">
  <advance width="501"/>
  <unicode hex="003C"/>
  <outline>
    <contour>
      <point x="472" y="199" type="qcurve"/>
      <point x="465" y="163"/>
      <point x="448" y="115"/>
      <point x="435" y="89" type="qcurve"/>
      <point x="341" y="124"/>
      <point x="97" y="257"/>
      <point x="29" y="311" type="qcurve"/>
      <point x="29" y="375" type="line"/>
      <point x="97" y="429"/>
      <point x="341" y="562"/>
      <point x="435" y="597" type="qcurve"/>
      <point x="448" y="571"/>
      <point x="465" y="523"/>
      <point x="472" y="487" type="qcurve"/>
      <point x="396" y="455"/>
      <point x="258" y="382"/>
      <point x="196" y="343" type="qcurve"/>
      <point x="258" y="304"/>
      <point x="396" y="231"/>
    </contour>
  </outline>
</glyph>
<glyph name="greater" format="1">
  <advance width="501"/>
  <unicode hex="003E"/>
  <outline>
    <contour>
      <point x="66" y="90" type="qcurve"/>
      <point x="53" y="116"/>
      <point x="36" y="164"/>
      <point x="29" y="200" type="qcurve"/>
      <point x="105" y="232"/>
      <point x="243" y="305"/>
      <point x="305" y="344" type="qcurve"/>
      <point x="243" y="383"/>
      <point x="105" y="456"/>
      <point x="29" y="488" type="qcurve"/>
      <point x="36" y="524"/>
      <point x="53" y="572"/>
      <point x="66" y="598" type="qcurve"/>
      <point x="160" y="563"/>
      <point x="404" y="430"/>
      <point x="472" y="376" type="qcurve"/>
      <point x="472" y="312" type="line"/>
      <point x="404" y="258"/>
      <point x="160" y="125"/>
    </contour>
  </outline>
</glyph>
<glyph name="question" format="1">
  <advance width="553"/>
  <unicode hex="003F"/>
  <outline>
    <contour>
      <point x="330" y="254" type="qcurve"/>
      <point x="306" y="247"/>
      <point x="226" y="239"/>
      <point x="184" y="239" type="qcurve"/>
      <point x="174" y="287"/>
      <point x="161" y="375"/>
      <point x="160" y="408" type="qcurve"/>
      <point x="237" y="421"/>
      <point x="319" y="506"/>
      <point x="319" y="571" type="qcurve" smooth="yes"/>
      <point x="319" y="616"/>
      <point x="293" y="659"/>
      <point x="267" y="659" type="qcurve" smooth="yes"/>
      <point x="237" y="659"/>
      <point x="198" y="578"/>
      <point x="198" y="512" type="qcurve"/>
      <point x="141" y="512"/>
      <point x="51" y="529"/>
      <point x="15" y="547" type="qcurve"/>
      <point x="21" y="652"/>
      <point x="153" y="763"/>
      <point x="273" y="763" type="qcurve" smooth="yes"/>
      <point x="380" y="763"/>
      <point x="528" y="652"/>
      <point x="528" y="570" type="qcurve" smooth="yes"/>
      <point x="528" y="498"/>
      <point x="427" y="400"/>
      <point x="335" y="381" type="qcurve"/>
      <point x="333" y="346"/>
      <point x="331" y="281"/>
    </contour>
    <contour>
      <point x="349" y="156" type="qcurve"/>
      <point x="354" y="90"/>
      <point x="361" y="21"/>
      <point x="365" y="-12" type="qcurve"/>
      <point x="343" y="-17"/>
      <point x="304" y="-22"/>
      <point x="276" y="-23" type="qcurve" smooth="yes"/>
      <point x="248" y="-24"/>
      <point x="196" y="-14"/>
      <point x="178" y="-5" type="qcurve"/>
      <point x="174" y="35"/>
      <point x="172" y="112"/>
      <point x="174" y="158" type="qcurve"/>
      <point x="193" y="158"/>
      <point x="233" y="158"/>
      <point x="268" y="157" type="qcurve" smooth="yes"/>
      <point x="300" y="156"/>
      <point x="333" y="156"/>
    </contour>
  </outline>
</glyph>
<glyph name="at" format="1">
  <advance width="915"/>
  <unicode hex="0040"/>
  <outline>
    <contour>
      <point x="679" y="-59" type="qcurve"/>
      <point x="620" y="-93"/>
      <point x="500" y="-123"/>
      <point x="427" y="-123" type="qcurve" smooth="yes"/>
      <point x="240" y="-123"/>
      <point x="25" y="93"/>
      <point x="25" y="277" type="qcurve" smooth="yes"/>
      <point x="25" y="479"/>
      <point x="293" y="733"/>
      <point x="510" y="733" type="qcurve" smooth="yes"/>
      <point x="688" y="733"/>
      <point x="891" y="531"/>
      <point x="891" y="365" type="qcurve" smooth="yes"/>
      <point x="891" y="310"/>
      <point x="862" y="214"/>
      <point x="834" y="177" type="qcurve" smooth="yes"/>
      <point x="802" y="134"/>
      <point x="712" y="85"/>
      <point x="665" y="85" type="qcurve" smooth="yes"/>
      <point x="605" y="85"/>
      <point x="524" y="138"/>
      <point x="508" y="188" type="qcurve"/>
      <point x="490" y="142"/>
      <point x="430" y="97"/>
      <point x="389" y="97" type="qcurve"/>
      <point x="328" y="97"/>
      <point x="260" y="198"/>
      <point x="260" y="283" type="qcurve" smooth="yes"/>
      <point x="260" y="395"/>
      <point x="372" y="528"/>
      <point x="467" y="528" type="qcurve"/>
      <point x="479" y="528" type="line"/>
      <point x="479" y="531"/>
      <point x="478" y="544"/>
      <point x="478" y="548" type="qcurve"/>
      <point x="522" y="557"/>
      <point x="596" y="558"/>
      <point x="633" y="550" type="qcurve"/>
      <point x="629" y="477"/>
      <point x="626" y="369"/>
      <point x="626" y="305" type="qcurve" smooth="yes"/>
      <point x="626" y="234"/>
      <point x="653" y="165"/>
      <point x="681" y="165" type="qcurve" smooth="yes"/>
      <point x="718" y="165"/>
      <point x="775" y="283"/>
      <point x="775" y="367" type="qcurve" smooth="yes"/>
      <point x="775" y="494"/>
      <point x="631" y="632"/>
      <point x="498" y="632" type="qcurve" smooth="yes"/>
      <point x="339" y="632"/>
      <point x="156" y="457"/>
      <point x="156" y="306" type="qcurve" smooth="yes"/>
      <point x="156" y="152"/>
      <point x="301" y="-17"/>
      <point x="435" y="-17" type="qcurve" smooth="yes"/>
      <point x="487" y="-17"/>
      <point x="564" y="7"/>
      <point x="603" y="36" type="qcurve"/>
      <point x="628" y="13"/>
      <point x="666" y="-35"/>
    </contour>
    <contour>
      <point x="408" y="302" type="qcurve" smooth="yes"/>
      <point x="408" y="253"/>
      <point x="428" y="202"/>
      <point x="447" y="202" type="qcurve" smooth="yes"/>
      <point x="462" y="202"/>
      <point x="486" y="252"/>
      <point x="493" y="299" type="qcurve"/>
      <point x="492" y="313"/>
      <point x="489" y="348"/>
      <point x="487" y="385" type="qcurve" smooth="yes"/>
      <point x="485" y="409"/>
      <point x="484" y="435"/>
      <point x="483" y="446" type="qcurve"/>
      <point x="475" y="446" type="line" smooth="yes"/>
      <point x="444" y="446"/>
      <point x="408" y="370"/>
    </contour>
  </outline>
</glyph>
<glyph name="B" format="1">
  <advance width="643"/>
  <unicode hex="0042"/>
  <outline>
    <contour>
      <point x="623" y="267" type="qcurve" smooth="yes"/>
      <point x="623" y="146"/>
      <point x="438" y="-20"/>
      <point x="304" y="-20" type="qcurve" smooth="yes"/>
      <point x="255" y="-20"/>
      <point x="154" y="10"/>
      <point x="105" y="40" type="qcurve"/>
      <point x="92" y="155"/>
      <point x="79" y="401"/>
      <point x="79" y="538" type="qcurve" smooth="yes"/>
      <point x="79" y="598"/>
      <point x="80" y="658"/>
      <point x="81" y="684" type="qcurve"/>
      <point x="138" y="712"/>
      <point x="262" y="742"/>
      <point x="323" y="742" type="qcurve" smooth="yes"/>
      <point x="445" y="742"/>
      <point x="573" y="657"/>
      <point x="573" y="577" type="qcurve" smooth="yes"/>
      <point x="573" y="528"/>
      <point x="530" y="449"/>
      <point x="488" y="420" type="qcurve"/>
      <point x="552" y="401"/>
      <point x="623" y="320"/>
    </contour>
    <contour>
      <point x="378" y="549" type="qcurve" smooth="yes"/>
      <point x="378" y="589"/>
      <point x="334" y="629"/>
      <point x="291" y="629" type="qcurve"/>
      <point x="288" y="629" type="line"/>
      <point x="283" y="573"/>
      <point x="276" y="472"/>
      <point x="274" y="426" type="qcurve"/>
      <point x="325" y="437"/>
      <point x="378" y="501"/>
    </contour>
    <contour>
      <point x="271" y="114" type="qcurve"/>
      <point x="285" y="107"/>
      <point x="309" y="100"/>
      <point x="321" y="100" type="qcurve" smooth="yes"/>
      <point x="361" y="100"/>
      <point x="421" y="178"/>
      <point x="421" y="227" type="qcurve" smooth="yes"/>
      <point x="421" y="268"/>
      <point x="374" y="311"/>
      <point x="329" y="311" type="qcurve" smooth="yes"/>
      <point x="316" y="311"/>
      <point x="288" y="305"/>
      <point x="271" y="298" type="qcurve"/>
      <point x="270" y="284"/>
      <point x="270" y="253"/>
      <point x="270" y="221" type="qcurve" smooth="yes"/>
      <point x="270" y="176"/>
      <point x="270" y="132"/>
    </contour>
  </outline>
</glyph>
<glyph name="E" format="1">
  <advance width="609"/>
  <unicode hex="0045"/>
  <outline>
    <contour>
      <point x="579" y="-10" type="qcurve"/>
      <point x="550" y="-19"/>
      <point x="237" y="-43"/>
      <point x="132" y="-43" type="qcurve"/>
      <point x="107" y="116"/>
      <point x="66" y="540"/>
      <point x="64" y="681" type="qcurve"/>
      <point x="218" y="710"/>
      <point x="445" y="735"/>
      <point x="554" y="735" type="qcurve"/>
      <point x="554" y="698"/>
      <point x="545" y="615"/>
      <point x="535" y="570" type="qcurve"/>
      <point x="479" y="570"/>
      <point x="359" y="566"/>
      <point x="294" y="562" type="qcurve"/>
      <point x="292" y="540"/>
      <point x="290" y="483"/>
      <point x="289" y="426" type="qcurve"/>
      <point x="340" y="441"/>
      <point x="442" y="455"/>
      <point x="495" y="455" type="qcurve"/>
      <point x="503" y="420"/>
      <point x="511" y="346"/>
      <point x="511" y="296" type="qcurve"/>
      <point x="454" y="296"/>
      <point x="342" y="289"/>
      <point x="289" y="283" type="qcurve"/>
      <point x="290" y="238"/>
      <point x="294" y="152"/>
      <point x="298" y="113" type="qcurve"/>
      <point x="327" y="113"/>
      <point x="513" y="136"/>
      <point x="560" y="145" type="qcurve"/>
      <point x="568" y="124"/>
      <point x="579" y="29"/>
    </contour>
  </outline>
</glyph>
<glyph name="F" format="1">
  <advance width="563"/>
  <unicode hex="0046"/>
  <outline>
    <contour>
      <point x="298" y="-65" type="qcurve"/>
      <point x="253" y="-76"/>
      <point x="167" y="-86"/>
      <point x="113" y="-86" type="qcurve"/>
      <point x="113" y="97"/>
      <point x="80" y="572"/>
      <point x="55" y="715" type="qcurve"/>
      <point x="113" y="718"/>
      <point x="229" y="730"/>
      <point x="296" y="739" type="qcurve" smooth="yes"/>
      <point x="342" y="745"/>
      <point x="506" y="769"/>
      <point x="537" y="774" type="qcurve"/>
      <point x="542" y="757"/>
      <point x="547" y="714"/>
      <point x="547" y="688" type="qcurve" smooth="yes"/>
      <point x="547" y="670"/>
      <point x="542" y="628"/>
      <point x="536" y="603" type="qcurve"/>
      <point x="448" y="594"/>
      <point x="332" y="582"/>
      <point x="305" y="580" type="qcurve"/>
      <point x="307" y="538"/>
      <point x="310" y="453"/>
      <point x="310" y="411" type="qcurve"/>
      <point x="353" y="421"/>
      <point x="436" y="430"/>
      <point x="478" y="430" type="qcurve"/>
      <point x="487" y="397"/>
      <point x="494" y="324"/>
      <point x="494" y="269" type="qcurve"/>
      <point x="440" y="269"/>
      <point x="351" y="265"/>
      <point x="311" y="260" type="qcurve"/>
      <point x="309" y="167"/>
      <point x="303" y="4"/>
    </contour>
  </outline>
</glyph>
<glyph name="G" format="1">
  <advance width="642"/>
  <unicode hex="0047"/>
  <outline>
    <contour>
      <point x="600" y="352" type="qcurve"/>
      <point x="599" y="257"/>
      <point x="620" y="74"/>
      <point x="642" y="-14" type="qcurve"/>
      <point x="612" y="-22"/>
      <point x="539" y="-32"/>
      <point x="494" y="-34" type="qcurve"/>
      <point x="482" y="-9"/>
      <point x="461" y="44"/>
      <point x="452" y="71" type="qcurve"/>
      <point x="414" y="25"/>
      <point x="318" y="-21"/>
      <point x="259" y="-21" type="qcurve" smooth="yes"/>
      <point x="156" y="-21"/>
      <point x="35" y="131"/>
      <point x="35" y="261" type="qcurve" smooth="yes"/>
      <point x="35" y="456"/>
      <point x="223" y="724"/>
      <point x="366" y="724" type="qcurve" smooth="yes"/>
      <point x="465" y="724"/>
      <point x="584" y="609"/>
      <point x="593" y="506" type="qcurve"/>
      <point x="549" y="492"/>
      <point x="450" y="478"/>
      <point x="391" y="478" type="qcurve"/>
      <point x="379" y="548"/>
      <point x="351" y="604"/>
      <point x="329" y="604" type="qcurve" smooth="yes"/>
      <point x="291" y="604"/>
      <point x="245" y="450"/>
      <point x="245" y="323" type="qcurve" smooth="yes"/>
      <point x="245" y="225"/>
      <point x="285" y="135"/>
      <point x="329" y="135" type="qcurve" smooth="yes"/>
      <point x="357" y="135"/>
      <point x="403" y="172"/>
      <point x="417" y="206" type="qcurve"/>
      <point x="412" y="237"/>
      <point x="404" y="299"/>
      <point x="402" y="330" type="qcurve"/>
      <point x="442" y="341"/>
      <point x="537" y="352"/>
    </contour>
  </outline>
</glyph>
<glyph name="K" format="1">
  <advance width="653"/>
  <unicode hex="004B"/>
  <outline>
    <contour>
      <point x="671" y="14" type="qcurve"/>
      <point x="639" y="-33"/>
      <point x="555" y="-98"/>
      <point x="497" y="-122" type="qcurve"/>
      <point x="447" y="-21"/>
      <point x="341" y="132"/>
      <point x="268" y="208" type="qcurve"/>
      <point x="266" y="207"/>
      <point x="259" y="202"/>
      <point x="257" y="201" type="qcurve"/>
      <point x="258" y="139"/>
      <point x="268" y="10"/>
      <point x="277" y="-56" type="qcurve"/>
      <point x="251" y="-64"/>
      <point x="144" y="-76"/>
      <point x="101" y="-76" type="qcurve"/>
      <point x="78" y="41"/>
      <point x="55" y="304"/>
      <point x="55" y="442" type="qcurve" smooth="yes"/>
      <point x="55" y="496"/>
      <point x="59" y="610"/>
      <point x="63" y="670" type="qcurve"/>
      <point x="87" y="686"/>
      <point x="159" y="704"/>
      <point x="197" y="704" type="qcurve" smooth="yes"/>
      <point x="225" y="704"/>
      <point x="271" y="698"/>
      <point x="294" y="692" type="qcurve"/>
      <point x="280" y="617"/>
      <point x="262" y="458"/>
      <point x="258" y="376" type="qcurve"/>
      <point x="312" y="436"/>
      <point x="403" y="589"/>
      <point x="456" y="710" type="qcurve"/>
      <point x="500" y="696"/>
      <point x="579" y="641"/>
      <point x="617" y="596" type="qcurve"/>
      <point x="569" y="510"/>
      <point x="469" y="376"/>
      <point x="411" y="322" type="qcurve"/>
      <point x="486" y="258"/>
      <point x="607" y="114"/>
    </contour>
  </outline>
</glyph>
<glyph name="L" format="1">
  <advance width="533"/>
  <unicode hex="004C"/>
  <outline>
    <contour>
      <point x="515" y="81" type="qcurve"/>
      <point x="523" y="55"/>
      <point x="538" y="-40"/>
      <point x="538" y="-73" type="qcurve"/>
      <point x="439" y="-73"/>
      <point x="258" y="-87"/>
      <point x="123" y="-106" type="qcurve"/>
      <point x="99" y="43"/>
      <point x="62" y="500"/>
      <point x="62" y="652" type="qcurve"/>
      <point x="108" y="664"/>
      <point x="197" y="676"/>
      <point x="241" y="676" type="qcurve" smooth="yes"/>
      <point x="254" y="676"/>
      <point x="279" y="675"/>
      <point x="293" y="673" type="qcurve"/>
      <point x="285" y="623"/>
      <point x="275" y="456"/>
      <point x="275" y="362" type="qcurve" smooth="yes"/>
      <point x="275" y="226"/>
      <point x="282" y="94"/>
      <point x="290" y="47" type="qcurve"/>
      <point x="346" y="63"/>
      <point x="465" y="81"/>
    </contour>
  </outline>
</glyph>
<glyph name="N" format="1">
  <advance width="710"/>
  <unicode hex="004E"/>
  <outline>
    <contour>
      <point x="262" y="169" type="qcurve"/>
      <point x="262" y="-25" type="line"/>
      <point x="236" y="-33"/>
      <point x="138" y="-45"/>
      <point x="98" y="-45" type="qcurve"/>
      <point x="79" y="173"/>
      <point x="60" y="530"/>
      <point x="60" y="654" type="qcurve"/>
      <point x="67" y="659"/>
      <point x="75" y="663"/>
      <point x="79" y="665" type="qcurve"/>
      <point x="118" y="685"/>
      <point x="220" y="710"/>
      <point x="275" y="712" type="qcurve"/>
      <point x="335" y="625"/>
      <point x="426" y="458"/>
      <point x="465" y="363" type="qcurve"/>
      <point x="465" y="483"/>
      <point x="455" y="670"/>
      <point x="446" y="729" type="qcurve"/>
      <point x="498" y="745"/>
      <point x="600" y="762"/>
      <point x="650" y="762" type="qcurve"/>
      <point x="653" y="705"/>
      <point x="655" y="599"/>
      <point x="655" y="549" type="qcurve" smooth="yes"/>
      <point x="655" y="426"/>
      <point x="644" y="157"/>
      <point x="635" y="33" type="qcurve"/>
      <point x="573" y="23"/>
      <point x="492" y="14"/>
      <point x="454" y="12" type="qcurve"/>
      <point x="390" y="167"/>
      <point x="307" y="336"/>
      <point x="263" y="406" type="qcurve"/>
      <point x="262" y="365"/>
      <point x="262" y="266"/>
    </contour>
  </outline>
</glyph>
<glyph name="O" format="1">
  <advance width="649"/>
  <unicode hex="004F"/>
  <outline>
    <contour>
      <point x="368" y="733" type="qcurve" smooth="yes"/>
      <point x="488" y="733"/>
      <point x="619" y="576"/>
      <point x="619" y="432" type="qcurve" smooth="yes"/>
      <point x="619" y="354"/>
      <point x="577" y="193"/>
      <point x="540" y="131" type="qcurve" smooth="yes"/>
      <point x="494" y="57"/>
      <point x="362" y="-20"/>
      <point x="279" y="-20" type="qcurve" smooth="yes"/>
      <point x="159" y="-20"/>
      <point x="25" y="165"/>
      <point x="25" y="323" type="qcurve" smooth="yes"/>
      <point x="25" y="504"/>
      <point x="215" y="733"/>
    </contour>
    <contour>
      <point x="321" y="110" type="qcurve"/>
      <point x="366" y="110"/>
      <point x="410" y="234"/>
      <point x="410" y="377" type="qcurve" smooth="yes"/>
      <point x="410" y="500"/>
      <point x="371" y="603"/>
      <point x="325" y="603" type="qcurve" smooth="yes"/>
      <point x="279" y="603"/>
      <point x="230" y="471"/>
      <point x="230" y="351" type="qcurve" smooth="yes"/>
      <point x="230" y="237"/>
      <point x="277" y="110"/>
    </contour>
  </outline>
</glyph>
<glyph name="Q" format="1">
  <advance width="666"/>
  <unicode hex="0051"/>
  <outline>
    <contour>
      <point x="646" y="-11" type="qcurve"/>
      <point x="637" y="-42"/>
      <point x="584" y="-99"/>
      <point x="536" y="-130" type="qcurve"/>
      <point x="514" y="-95"/>
      <point x="467" y="-29"/>
      <point x="442" y="2" type="qcurve"/>
      <point x="406" y="-19"/>
      <point x="324" y="-40"/>
      <point x="278" y="-40" type="qcurve" smooth="yes"/>
      <point x="160" y="-40"/>
      <point x="30" y="129"/>
      <point x="30" y="273" type="qcurve" smooth="yes"/>
      <point x="30" y="447"/>
      <point x="222" y="673"/>
      <point x="367" y="673" type="qcurve" smooth="yes"/>
      <point x="496" y="673"/>
      <point x="628" y="526"/>
      <point x="628" y="382" type="qcurve" smooth="yes"/>
      <point x="628" y="306"/>
      <point x="582" y="153"/>
      <point x="541" y="95" type="qcurve"/>
      <point x="572" y="69"/>
      <point x="625" y="15"/>
    </contour>
    <contour>
      <point x="235" y="301" type="qcurve" smooth="yes"/>
      <point x="235" y="206"/>
      <point x="280" y="90"/>
      <point x="321" y="90" type="qcurve" smooth="yes"/>
      <point x="331" y="90"/>
      <point x="347" y="95"/>
      <point x="354" y="99" type="qcurve"/>
      <point x="341" y="113"/>
      <point x="312" y="140"/>
      <point x="297" y="153" type="qcurve"/>
      <point x="307" y="174"/>
      <point x="338" y="205"/>
      <point x="360" y="217" type="qcurve"/>
      <point x="380" y="207"/>
      <point x="403" y="194"/>
      <point x="406" y="192" type="qcurve"/>
      <point x="412" y="220"/>
      <point x="419" y="288"/>
      <point x="419" y="327" type="qcurve" smooth="yes"/>
      <point x="419" y="441"/>
      <point x="382" y="543"/>
      <point x="339" y="543" type="qcurve" smooth="yes"/>
      <point x="290" y="543"/>
      <point x="235" y="414"/>
    </contour>
  </outline>
</glyph>
<glyph name="S" format="1">
  <advance width="560"/>
  <unicode hex="0053"/>
  <outline>
    <contour>
      <point x="484" y="342" type="qcurve" smooth="yes"/>
      <point x="507" y="310"/>
      <point x="529" y="239"/>
      <point x="529" y="198" type="qcurve" smooth="yes"/>
      <point x="529" y="95"/>
      <point x="381" y="-40"/>
      <point x="273" y="-40" type="qcurve" smooth="yes"/>
      <point x="154" y="-40"/>
      <point x="-5" y="107"/>
      <point x="-5" y="208" type="qcurve"/>
      <point x="27" y="224"/>
      <point x="118" y="247"/>
      <point x="148" y="247" type="qcurve"/>
      <point x="148" y="171"/>
      <point x="205" y="78"/>
      <point x="254" y="78" type="qcurve" smooth="yes"/>
      <point x="289" y="78"/>
      <point x="327" y="117"/>
      <point x="327" y="151" type="qcurve"/>
      <point x="327" y="180"/>
      <point x="288" y="235"/>
      <point x="221" y="286" type="qcurve" smooth="yes"/>
      <point x="171" y="324"/>
      <point x="123" y="370"/>
      <point x="106" y="392" type="qcurve" smooth="yes"/>
      <point x="82" y="426"/>
      <point x="58" y="499"/>
      <point x="58" y="541" type="qcurve" smooth="yes"/>
      <point x="58" y="641"/>
      <point x="201" y="767"/>
      <point x="317" y="767" type="qcurve" smooth="yes"/>
      <point x="420" y="767"/>
      <point x="545" y="668"/>
      <point x="565" y="571" type="qcurve"/>
      <point x="536" y="552"/>
      <point x="462" y="531"/>
      <point x="402" y="527" type="qcurve"/>
      <point x="393" y="589"/>
      <point x="351" y="643"/>
      <point x="314" y="643" type="qcurve" smooth="yes"/>
      <point x="291" y="643"/>
      <point x="264" y="614"/>
      <point x="264" y="590" type="qcurve" smooth="yes"/>
      <point x="264" y="557"/>
      <point x="304" y="497"/>
      <point x="372" y="446" type="qcurve" smooth="yes"/>
      <point x="422" y="409"/>
      <point x="468" y="365"/>
    </contour>
  </outline>
</glyph>
<glyph name="T" format="1">
  <advance width="581"/>
  <unicode hex="0054"/>
  <outline>
    <contour>
      <point x="400" y="44" type="qcurve"/>
      <point x="356" y="33"/>
      <point x="271" y="23"/>
      <point x="218" y="23" type="qcurve"/>
      <point x="218" y="163"/>
      <point x="202" y="488"/>
      <point x="188" y="606" type="qcurve"/>
      <point x="175" y="605"/>
      <point x="101" y="598"/>
      <point x="39" y="592" type="qcurve"/>
      <point x="26" y="627"/>
      <point x="12" y="701"/>
      <point x="12" y="736" type="qcurve"/>
      <point x="149" y="767"/>
      <point x="398" y="794"/>
      <point x="555" y="794" type="qcurve"/>
      <point x="560" y="777"/>
      <point x="565" y="734"/>
      <point x="565" y="708" type="qcurve" smooth="yes"/>
      <point x="565" y="690"/>
      <point x="560" y="648"/>
      <point x="554" y="623" type="qcurve"/>
      <point x="516" y="623"/>
      <point x="444" y="622"/>
      <point x="409" y="620" type="qcurve"/>
      <point x="413" y="558"/>
      <point x="417" y="424"/>
      <point x="417" y="353" type="qcurve" smooth="yes"/>
      <point x="417" y="287"/>
      <point x="409" y="134"/>
    </contour>
  </outline>
</glyph>
<glyph name="U" format="1">
  <advance width="604"/>
  <unicode hex="0055"/>
  <outline>
    <contour>
      <point x="535" y="712" type="qcurve"/>
      <point x="557" y="608"/>
      <point x="574" y="472"/>
      <point x="574" y="412" type="qcurve" smooth="yes"/>
      <point x="574" y="170"/>
      <point x="421" y="-80"/>
      <point x="271" y="-80" type="qcurve" smooth="yes"/>
      <point x="155" y="-80"/>
      <point x="35" y="98"/>
      <point x="35" y="265" type="qcurve" smooth="yes"/>
      <point x="35" y="368"/>
      <point x="71" y="588"/>
      <point x="90" y="622" type="qcurve"/>
      <point x="109" y="627"/>
      <point x="164" y="634"/>
      <point x="190" y="634" type="qcurve" smooth="yes"/>
      <point x="221" y="634"/>
      <point x="266" y="626"/>
      <point x="278" y="619" type="qcurve"/>
      <point x="264" y="538"/>
      <point x="250" y="377"/>
      <point x="250" y="305" type="qcurve" smooth="yes"/>
      <point x="250" y="185"/>
      <point x="277" y="50"/>
      <point x="302" y="50" type="qcurve" smooth="yes"/>
      <point x="333" y="50"/>
      <point x="365" y="205"/>
      <point x="365" y="350" type="qcurve" smooth="yes"/>
      <point x="365" y="422"/>
      <point x="345" y="584"/>
      <point x="324" y="674" type="qcurve"/>
      <point x="363" y="691"/>
      <point x="485" y="712"/>
    </contour>
  </outline>
</glyph>
<glyph name="W" format="1">
  <advance width="926"/>
  <unicode hex="0057"/>
  <outline>
    <contour>
      <point x="473" y="367" type="qcurve"/>
      <point x="445" y="236"/>
      <point x="387" y="34"/>
      <point x="352" y="-57" type="qcurve"/>
      <point x="317" y="-68"/>
      <point x="230" y="-80"/>
      <point x="188" y="-81" type="qcurve"/>
      <point x="122" y="100"/>
      <point x="28" y="450"/>
      <point x="-5" y="636" type="qcurve"/>
      <point x="48" y="652"/>
      <point x="160" y="671"/>
      <point x="219" y="673" type="qcurve"/>
      <point x="229" y="565"/>
      <point x="270" y="318"/>
      <point x="302" y="178" type="qcurve"/>
      <point x="325" y="258"/>
      <point x="364" y="432"/>
      <point x="389" y="571" type="qcurve"/>
      <point x="442" y="583"/>
      <point x="562" y="596"/>
      <point x="606" y="595" type="qcurve"/>
      <point x="610" y="569"/>
      <point x="618" y="509"/>
      <point x="626" y="450" type="qcurve" smooth="yes"/>
      <point x="639" y="361"/>
      <point x="652" y="269"/>
      <point x="658" y="229" type="qcurve"/>
      <point x="700" y="352"/>
      <point x="755" y="592"/>
      <point x="767" y="710" type="qcurve"/>
      <point x="821" y="707"/>
      <point x="913" y="673"/>
      <point x="948" y="644" type="qcurve"/>
      <point x="913" y="471"/>
      <point x="774" y="114"/>
      <point x="688" y="-22" type="qcurve"/>
      <point x="658" y="-27"/>
      <point x="588" y="-35"/>
      <point x="547" y="-37" type="qcurve"/>
      <point x="546" y="-32"/>
      <point x="481" y="273"/>
    </contour>
  </outline>
</glyph>
<glyph name="Z" format="1">
  <advance width="590"/>
  <unicode hex="005A"/>
  <outline>
    <contour>
      <point x="553" y="154" type="qcurve"/>
      <point x="553" y="97"/>
      <point x="538" y="1"/>
      <point x="523" y="-36" type="qcurve"/>
      <point x="411" y="-35"/>
      <point x="119" y="-11"/>
      <point x="10" y="7" type="qcurve"/>
      <point x="10" y="55"/>
      <point x="19" y="137"/>
      <point x="28" y="164" type="qcurve"/>
      <point x="126" y="261"/>
      <point x="273" y="441"/>
      <point x="339" y="544" type="qcurve"/>
      <point x="285" y="545"/>
      <point x="160" y="556"/>
      <point x="48" y="570" type="qcurve"/>
      <point x="48" y="626"/>
      <point x="66" y="706"/>
      <point x="87" y="744" type="qcurve"/>
      <point x="277" y="709"/>
      <point x="495" y="672"/>
      <point x="580" y="660" type="qcurve"/>
      <point x="579" y="652"/>
      <point x="573" y="601"/>
      <point x="571" y="586" type="qcurve" smooth="yes"/>
      <point x="567" y="563"/>
      <point x="558" y="529"/>
      <point x="552" y="516" type="qcurve"/>
      <point x="496" y="438"/>
      <point x="332" y="254"/>
      <point x="207" y="129" type="qcurve"/>
      <point x="287" y="132"/>
      <point x="445" y="143"/>
    </contour>
  </outline>
</glyph>
<glyph name="bracketright" format="1">
  <advance width="435"/>
  <unicode hex="005D"/>
  <outline>
    <contour>
      <point x="338" y="804" type="qcurve"/>
      <point x="360" y="668"/>
      <point x="366" y="178"/>
      <point x="351" y="-86" type="qcurve"/>
      <point x="270" y="-102"/>
      <point x="126" y="-120"/>
      <point x="43" y="-124" type="qcurve"/>
      <point x="43" y="-85"/>
      <point x="48" y="-20"/>
      <point x="53" y="3" type="qcurve"/>
      <point x="89" y="3"/>
      <point x="167" y="5"/>
      <point x="212" y="8" type="qcurve"/>
      <point x="225" y="190"/>
      <point x="211" y="513"/>
      <point x="183" y="669" type="qcurve"/>
      <point x="149" y="669"/>
      <point x="68" y="661"/>
      <point x="36" y="655" type="qcurve"/>
      <point x="29" y="675"/>
      <point x="17" y="756"/>
      <point x="17" y="785" type="qcurve"/>
      <point x="91" y="794"/>
      <point x="254" y="804"/>
    </contour>
  </outline>
</glyph>
<glyph name="grave" format="1">
  <advance width="260"/>
  <unicode hex="0060"/>
  <outline>
    <contour>
      <point x="193" y="748" type="qcurve"/>
      <point x="195" y="709"/>
      <point x="211" y="625"/>
      <point x="224" y="586" type="qcurve"/>
      <point x="198" y="579"/>
      <point x="143" y="572"/>
      <point x="111" y="572" type="qcurve"/>
      <point x="76" y="623"/>
      <point x="43" y="699"/>
      <point x="38" y="734" type="qcurve"/>
      <point x="70" y="747"/>
      <point x="155" y="754"/>
    </contour>
    <contour>
      <point x="158" y="560" type="move" name="_top"/>
    </contour>
  </outline>
</glyph>
<glyph name="a" format="1">
  <advance width="553"/>
  <unicode hex="0061"/>
  <outline>
    <contour>
      <point x="516" y="358" type="qcurve" smooth="yes"/>
      <point x="516" y="295"/>
      <point x="482" y="78"/>
      <point x="455" y="-37" type="qcurve"/>
      <point x="420" y="-37"/>
      <point x="340" y="-28"/>
      <point x="302" y="-20" type="qcurve"/>
      <point x="304" y="-3"/>
      <point x="306" y="15"/>
      <point x="307" y="22" type="qcurve"/>
      <point x="286" y="13"/>
      <point x="236" y="3"/>
      <point x="207" y="3" type="qcurve" smooth="yes"/>
      <point x="124" y="3"/>
      <point x="24" y="86"/>
      <point x="24" y="156" type="qcurve" smooth="yes"/>
      <point x="24" y="227"/>
      <point x="139" y="298"/>
      <point x="255" y="298" type="qcurve" smooth="yes"/>
      <point x="293" y="298"/>
      <point x="319" y="298"/>
      <point x="327" y="297" type="qcurve"/>
      <point x="326" y="391"/>
      <point x="304" y="459"/>
      <point x="279" y="459" type="qcurve" smooth="yes"/>
      <point x="255" y="459"/>
      <point x="220" y="394"/>
      <point x="219" y="344" type="qcurve"/>
      <point x="155" y="344"/>
      <point x="70" y="392"/>
      <point x="54" y="437" type="qcurve"/>
      <point x="73" y="489"/>
      <point x="207" y="563"/>
      <point x="295" y="563" type="qcurve" smooth="yes"/>
      <point x="404" y="563"/>
      <point x="516" y="459"/>
    </contour>
    <contour>
      <point x="223" y="142" type="qcurve" smooth="yes"/>
      <point x="223" y="119"/>
      <point x="247" y="94"/>
      <point x="270" y="94" type="qcurve" smooth="yes"/>
      <point x="284" y="94"/>
      <point x="306" y="100"/>
      <point x="317" y="106" type="qcurve"/>
      <point x="321" y="141"/>
      <point x="324" y="192"/>
      <point x="325" y="213" type="qcurve"/>
      <point x="273" y="210"/>
      <point x="223" y="176"/>
    </contour>
  </outline>
</glyph>
<glyph name="b" format="1">
  <advance width="569"/>
  <unicode hex="0062"/>
  <outline>
    <contour>
      <point x="539" y="269" type="qcurve" smooth="yes"/>
      <point x="539" y="129"/>
      <point x="379" y="-60"/>
      <point x="264" y="-60" type="qcurve" smooth="yes"/>
      <point x="215" y="-60"/>
      <point x="130" y="-39"/>
      <point x="69" y="-6" type="qcurve"/>
      <point x="63" y="89"/>
      <point x="55" y="314"/>
      <point x="55" y="416" type="qcurve" smooth="yes"/>
      <point x="55" y="498"/>
      <point x="59" y="622"/>
      <point x="64" y="670" type="qcurve"/>
      <point x="85" y="682"/>
      <point x="168" y="696"/>
      <point x="218" y="696" type="qcurve" smooth="yes"/>
      <point x="245" y="696"/>
      <point x="278" y="692"/>
      <point x="295" y="688" type="qcurve"/>
      <point x="285" y="637"/>
      <point x="269" y="523"/>
      <point x="264" y="461" type="qcurve"/>
      <point x="284" y="482"/>
      <point x="336" y="503"/>
      <point x="368" y="503" type="qcurve" smooth="yes"/>
      <point x="452" y="503"/>
      <point x="539" y="383"/>
    </contour>
    <contour>
      <point x="248" y="80" type="qcurve"/>
      <point x="255" y="75"/>
      <point x="269" y="70"/>
      <point x="275" y="70" type="qcurve" smooth="yes"/>
      <point x="307" y="70"/>
      <point x="340" y="189"/>
      <point x="340" y="301" type="qcurve" smooth="yes"/>
      <point x="340" y="341"/>
      <point x="321" y="380"/>
      <point x="302" y="380" type="qcurve" smooth="yes"/>
      <point x="287" y="380"/>
      <point x="264" y="354"/>
      <point x="254" y="326" type="qcurve"/>
      <point x="251" y="269"/>
      <point x="248" y="146"/>
    </contour>
  </outline>
</glyph>
<glyph name="c" format="1">
  <advance width="521"/>
  <unicode hex="0063"/>
  <outline>
    <contour>
      <point x="511" y="372" type="qcurve"/>
      <point x="479" y="357"/>
      <point x="396" y="342"/>
      <point x="338" y="342" type="qcurve"/>
      <point x="338" y="395"/>
      <point x="319" y="446"/>
      <point x="299" y="446" type="qcurve" smooth="yes"/>
      <point x="270" y="446"/>
      <point x="226" y="301"/>
      <point x="226" y="210" type="qcurve" smooth="yes"/>
      <point x="226" y="152"/>
      <point x="256" y="86"/>
      <point x="283" y="86" type="qcurve" smooth="yes"/>
      <point x="307" y="86"/>
      <point x="357" y="125"/>
      <point x="397" y="183" type="qcurve"/>
      <point x="426" y="178"/>
      <point x="482" y="140"/>
      <point x="500" y="114" type="qcurve"/>
      <point x="492" y="88"/>
      <point x="434" y="28"/>
      <point x="394" y="8" type="qcurve" smooth="yes"/>
      <point x="362" y="-8"/>
      <point x="287" y="-25"/>
      <point x="246" y="-25" type="qcurve" smooth="yes"/>
      <point x="142" y="-25"/>
      <point x="25" y="99"/>
      <point x="25" y="203" type="qcurve" smooth="yes"/>
      <point x="25" y="264"/>
      <point x="65" y="386"/>
      <point x="102" y="433" type="qcurve" smooth="yes"/>
      <point x="142" y="487"/>
      <point x="250" y="543"/>
      <point x="313" y="543" type="qcurve" smooth="yes"/>
      <point x="407" y="543"/>
      <point x="511" y="452"/>
    </contour>
  </outline>
</glyph>
<glyph name="j" format="1">
  <advance width="320"/>
  <unicode hex="006A"/>
  <outline>
    <contour>
      <point x="249" y="747" type="qcurve"/>
      <point x="244" y="731"/>
      <point x="232" y="672"/>
      <point x="221" y="606" type="qcurve"/>
      <point x="193" y="595"/>
      <point x="112" y="586"/>
      <point x="37" y="587" type="qcurve"/>
      <point x="27" y="616"/>
      <point x="18" y="667"/>
      <point x="18" y="691" type="qcurve" smooth="yes"/>
      <point x="18" y="707"/>
      <point x="21" y="731"/>
      <point x="24" y="741" type="qcurve"/>
      <point x="47" y="754"/>
      <point x="104" y="766"/>
      <point x="139" y="766" type="qcurve" smooth="yes"/>
      <point x="174" y="766"/>
      <point x="231" y="756"/>
    </contour>
    <contour>
      <point x="278" y="240" type="qcurve" smooth="yes"/>
      <point x="278" y="30"/>
      <point x="160" y="-196"/>
      <point x="48" y="-196" type="qcurve" smooth="yes"/>
      <point x="-8" y="-196"/>
      <point x="-94" y="-150"/>
      <point x="-125" y="-105" type="qcurve"/>
      <point x="-104" y="-64"/>
      <point x="-56" y="-12"/>
      <point x="-29" y="-3" type="qcurve"/>
      <point x="-13" y="-26"/>
      <point x="15" y="-47"/>
      <point x="31" y="-47" type="qcurve" smooth="yes"/>
      <point x="58" y="-47"/>
      <point x="84" y="9"/>
      <point x="84" y="65" type="qcurve" smooth="yes"/>
      <point x="84" y="169"/>
      <point x="43" y="430"/>
      <point x="14" y="517" type="qcurve"/>
      <point x="62" y="530"/>
      <point x="194" y="544"/>
      <point x="249" y="540" type="qcurve"/>
      <point x="262" y="481"/>
      <point x="278" y="317"/>
    </contour>
  </outline>
</glyph>
<glyph name="o" format="1">
  <advance width="554"/>
  <unicode hex="006F"/>
  <outline>
    <contour>
      <point x="25" y="233" type="qcurve" smooth="yes"/>
      <point x="25" y="374"/>
      <point x="188" y="553"/>
      <point x="318" y="553" type="qcurve" smooth="yes"/>
      <point x="416" y="553"/>
      <point x="524" y="443"/>
      <point x="524" y="342" type="qcurve" smooth="yes"/>
      <point x="524" y="279"/>
      <point x="485" y="149"/>
      <point x="450" y="101" type="qcurve" smooth="yes"/>
      <point x="410" y="46"/>
      <point x="299" y="-10"/>
      <point x="229" y="-10" type="qcurve" smooth="yes"/>
      <point x="132" y="-10"/>
      <point x="25" y="121"/>
    </contour>
    <contour>
      <point x="325" y="287" type="qcurve" smooth="yes"/>
      <point x="325" y="365"/>
      <point x="301" y="438"/>
      <point x="275" y="438" type="qcurve" smooth="yes"/>
      <point x="251" y="438"/>
      <point x="220" y="340"/>
      <point x="220" y="261" type="qcurve" smooth="yes"/>
      <point x="220" y="196"/>
      <point x="248" y="105"/>
      <point x="272" y="105" type="qcurve" smooth="yes"/>
      <point x="297" y="105"/>
      <point x="325" y="206"/>
    </contour>
  </outline>
</glyph>
<glyph name="r" format="1">
  <advance width="517"/>
  <unicode hex="0072"/>
  <outline>
    <contour>
      <point x="249" y="203" type="qcurve"/>
      <point x="251" y="154"/>
      <point x="262" y="51"/>
      <point x="270" y="-1" type="qcurve"/>
      <point x="245" y="-10"/>
      <point x="183" y="-16"/>
      <point x="146" y="-13" type="qcurve" smooth="yes"/>
      <point x="125" y="-11"/>
      <point x="99" y="-5"/>
      <point x="87" y="-1" type="qcurve"/>
      <point x="60" y="116"/>
      <point x="36" y="417"/>
      <point x="45" y="531" type="qcurve"/>
      <point x="67" y="538"/>
      <point x="119" y="545"/>
      <point x="148" y="545" type="qcurve" smooth="yes"/>
      <point x="182" y="545"/>
      <point x="241" y="535"/>
      <point x="264" y="526" type="qcurve"/>
      <point x="260" y="511"/>
      <point x="254" y="470"/>
      <point x="252" y="445" type="qcurve"/>
      <point x="277" y="502"/>
      <point x="349" y="567"/>
      <point x="387" y="567" type="qcurve" smooth="yes"/>
      <point x="443" y="567"/>
      <point x="509" y="474"/>
      <point x="509" y="392" type="qcurve" smooth="yes"/>
      <point x="509" y="378"/>
      <point x="509" y="363"/>
      <point x="508" y="357" type="qcurve"/>
      <point x="477" y="346"/>
      <point x="384" y="338"/>
      <point x="330" y="341" type="qcurve"/>
      <point x="331" y="356"/>
      <point x="332" y="367"/>
      <point x="332" y="372" type="qcurve" smooth="yes"/>
      <point x="332" y="397"/>
      <point x="320" y="424"/>
      <point x="308" y="424" type="qcurve" smooth="yes"/>
      <point x="289" y="424"/>
      <point x="257" y="308"/>
    </contour>
  </outline>
</glyph>
<glyph name="t" format="1">
  <advance width="460"/>
  <unicode hex="0074"/>
  <outline>
    <contour>
      <point x="309" y="232" type="qcurve"/>
      <point x="343" y="228"/>
      <point x="414" y="200"/>
      <point x="442" y="178" type="qcurve"/>
      <point x="442" y="106"/>
      <point x="352" y="6"/>
      <point x="272" y="6" type="qcurve" smooth="yes"/>
      <point x="171" y="6"/>
      <point x="60" y="149"/>
      <point x="60" y="285" type="qcurve" smooth="yes"/>
      <point x="60" y="317"/>
      <point x="62" y="386"/>
      <point x="65" y="424" type="qcurve"/>
      <point x="45" y="427"/>
      <point x="9" y="435"/>
      <point x="-5" y="439" type="qcurve"/>
      <point x="-5" y="471"/>
      <point x="7" y="529"/>
      <point x="18" y="545" type="qcurve"/>
      <point x="28" y="542"/>
      <point x="57" y="535"/>
      <point x="78" y="532" type="qcurve"/>
      <point x="84" y="573"/>
      <point x="97" y="634"/>
      <point x="104" y="658" type="qcurve"/>
      <point x="164" y="658"/>
      <point x="277" y="643"/>
      <point x="312" y="631" type="qcurve"/>
      <point x="306" y="607"/>
      <point x="292" y="548"/>
      <point x="287" y="517" type="qcurve"/>
      <point x="329" y="516"/>
      <point x="406" y="519"/>
      <point x="435" y="523" type="qcurve"/>
      <point x="435" y="500"/>
      <point x="425" y="442"/>
      <point x="416" y="418" type="qcurve"/>
      <point x="391" y="413"/>
      <point x="313" y="408"/>
      <point x="270" y="409" type="qcurve"/>
      <point x="265" y="371"/>
      <point x="259" y="295"/>
      <point x="259" y="261" type="qcurve" smooth="yes"/>
      <point x="259" y="177"/>
      <point x="271" y="118"/>
      <point x="285" y="118" type="qcurve" smooth="yes"/>
      <point x="294" y="118"/>
      <point x="308" y="179"/>
    </contour>
  </outline>
</glyph>
<glyph name="v" format="1">
  <advance width="528"/>
  <unicode hex="0076"/>
  <outline>
    <contour>
      <point x="531" y="520" type="qcurve"/>
      <point x="500" y="399"/>
      <point x="390" y="139"/>
      <point x="323" y="27" type="qcurve"/>
      <point x="298" y="17"/>
      <point x="215" y="7"/>
      <point x="149" y="7" type="qcurve"/>
      <point x="123" y="145"/>
      <point x="35" y="413"/>
      <point x="-26" y="543" type="qcurve"/>
      <point x="19" y="563"/>
      <point x="131" y="585"/>
      <point x="191" y="586" type="qcurve"/>
      <point x="217" y="511"/>
      <point x="260" y="304"/>
      <point x="273" y="195" type="qcurve"/>
      <point x="299" y="269"/>
      <point x="342" y="463"/>
      <point x="355" y="559" type="qcurve"/>
      <point x="399" y="556"/>
      <point x="490" y="536"/>
    </contour>
  </outline>
</glyph>
<glyph name="w" format="1">
  <advance width="816"/>
  <unicode hex="0077"/>
  <outline>
    <contour>
      <point x="629" y="-8" type="qcurve"/>
      <point x="604" y="-18"/>
      <point x="517" y="-35"/>
      <point x="476" y="-37" type="qcurve"/>
      <point x="462" y="52"/>
      <point x="432" y="212"/>
      <point x="414" y="292" type="qcurve"/>
      <point x="378" y="194"/>
      <point x="327" y="72"/>
      <point x="303" y="21" type="qcurve"/>
      <point x="272" y="12"/>
      <point x="174" y="-2"/>
      <point x="134" y="-3" type="qcurve"/>
      <point x="90" y="117"/>
      <point x="23" y="371"/>
      <point x="-2" y="513" type="qcurve"/>
      <point x="51" y="529"/>
      <point x="163" y="548"/>
      <point x="222" y="550" type="qcurve"/>
      <point x="229" y="409"/>
      <point x="246" y="257"/>
      <point x="259" y="184" type="qcurve"/>
      <point x="288" y="275"/>
      <point x="330" y="429"/>
      <point x="346" y="503" type="qcurve"/>
      <point x="405" y="516"/>
      <point x="499" y="528"/>
      <point x="533" y="527" type="qcurve"/>
      <point x="553" y="463"/>
      <point x="586" y="315"/>
      <point x="604" y="204" type="qcurve"/>
      <point x="622" y="276"/>
      <point x="646" y="424"/>
      <point x="656" y="521" type="qcurve"/>
      <point x="712" y="517"/>
      <point x="786" y="497"/>
      <point x="821" y="477" type="qcurve"/>
      <point x="776" y="314"/>
      <point x="681" y="75"/>
    </contour>
  </outline>
</glyph>
<glyph name="x" format="1">
  <advance width="554"/>
  <unicode hex="0078"/>
  <outline>
    <contour>
      <point x="510" y="37" type="qcurve"/>
      <point x="490" y="15"/>
      <point x="416" y="-33"/>
      <point x="369" y="-56" type="qcurve"/>
      <point x="328" y="8"/>
      <point x="274" y="92"/>
      <point x="250" y="128" type="qcurve"/>
      <point x="189" y="72"/>
      <point x="96" y="-9"/>
      <point x="53" y="-42" type="qcurve"/>
      <point x="33" y="-26"/>
      <point x="-8" y="28"/>
      <point x="-24" y="58" type="qcurve"/>
      <point x="31" y="110"/>
      <point x="125" y="202"/>
      <point x="167" y="245" type="qcurve"/>
      <point x="124" y="303"/>
      <point x="40" y="404"/>
      <point x="-2" y="449" type="qcurve"/>
      <point x="39" y="485"/>
      <point x="138" y="544"/>
      <point x="184" y="561" type="qcurve"/>
      <point x="215" y="521"/>
      <point x="278" y="432"/>
      <point x="311" y="382" type="qcurve"/>
      <point x="339" y="416"/>
      <point x="400" y="497"/>
      <point x="447" y="561" type="qcurve"/>
      <point x="484" y="538"/>
      <point x="548" y="468"/>
      <point x="569" y="429" type="qcurve"/>
      <point x="530" y="385"/>
      <point x="444" y="293"/>
      <point x="396" y="245" type="qcurve"/>
      <point x="424" y="197"/>
      <point x="481" y="94"/>
    </contour>
  </outline>
</glyph>
<glyph name="z" format="1">
  <advance width="551"/>
  <unicode hex="007A"/>
  <outline>
    <contour>
      <point x="483" y="120" type="qcurve"/>
      <point x="483" y="73"/>
      <point x="468" y="-13"/>
      <point x="454" y="-47" type="qcurve"/>
      <point x="332" y="-46"/>
      <point x="81" y="-7"/>
      <point x="8" y="25" type="qcurve"/>
      <point x="8" y="52"/>
      <point x="17" y="113"/>
      <point x="24" y="134" type="qcurve"/>
      <point x="92" y="216"/>
      <point x="245" y="362"/>
      <point x="319" y="416" type="qcurve"/>
      <point x="255" y="416"/>
      <point x="105" y="409"/>
      <point x="49" y="403" type="qcurve"/>
      <point x="49" y="453"/>
      <point x="67" y="529"/>
      <point x="87" y="567" type="qcurve"/>
      <point x="217" y="563"/>
      <point x="436" y="527"/>
      <point x="524" y="494" type="qcurve"/>
      <point x="519" y="457"/>
      <point x="503" y="393"/>
      <point x="492" y="370" type="qcurve"/>
      <point x="399" y="291"/>
      <point x="250" y="143"/>
      <point x="210" y="89" type="qcurve"/>
      <point x="317" y="92"/>
      <point x="426" y="106"/>
    </contour>
  </outline>
</glyph>
<glyph name="braceleft" format="1">
  <advance width="356.910279284"/>
  <unicode hex="007B"/>
  <outline>
    <contour>
      <point x="354" y="-160" type="qcurve"/>
      <point x="327" y="-170"/>
      <point x="277" y="-178"/>
      <point x="241" y="-178" type="qcurve" smooth="yes"/>
      <point x="171" y="-178"/>
      <point x="75" y="-91"/>
      <point x="75" y="-25" type="qcurve" smooth="yes"/>
      <point x="75" y="21"/>
      <point x="102" y="94"/>
      <point x="136" y="137" type="qcurve" smooth="yes"/>
      <point x="156" y="163"/>
      <point x="174" y="202"/>
      <point x="174" y="220" type="qcurve" smooth="yes"/>
      <point x="174" y="239"/>
      <point x="145" y="260"/>
      <point x="118" y="260" type="qcurve" smooth="yes"/>
      <point x="100" y="260"/>
      <point x="70" y="256"/>
      <point x="51" y="251" type="qcurve"/>
      <point x="42" y="281"/>
      <point x="39" y="354"/>
      <point x="46" y="386" type="qcurve"/>
      <point x="67" y="383"/>
      <point x="102" y="380"/>
      <point x="115" y="380" type="qcurve" smooth="yes"/>
      <point x="140" y="380"/>
      <point x="169" y="403"/>
      <point x="169" y="423" type="qcurve" smooth="yes"/>
      <point x="169" y="440"/>
      <point x="150" y="478"/>
      <point x="129" y="504" type="qcurve" smooth="yes"/>
      <point x="89" y="551"/>
      <point x="60" y="621"/>
      <point x="60" y="663" type="qcurve" smooth="yes"/>
      <point x="60" y="734"/>
      <point x="152" y="823"/>
      <point x="225" y="823" type="qcurve"/>
      <point x="251" y="823"/>
      <point x="306" y="814"/>
      <point x="333" y="806" type="qcurve"/>
      <point x="337" y="789"/>
      <point x="331" y="735"/>
      <point x="321" y="703" type="qcurve"/>
      <point x="310" y="709"/>
      <point x="292" y="713"/>
      <point x="282" y="713" type="qcurve" smooth="yes"/>
      <point x="253" y="713"/>
      <point x="219" y="677"/>
      <point x="219" y="645" type="qcurve" smooth="yes"/>
      <point x="219" y="627"/>
      <point x="234" y="589"/>
      <point x="259" y="554" type="qcurve" smooth="yes"/>
      <point x="292" y="509"/>
      <point x="313" y="450"/>
      <point x="313" y="417" type="qcurve" smooth="yes"/>
      <point x="313" y="390"/>
      <point x="276" y="338"/>
      <point x="245" y="323" type="qcurve"/>
      <point x="277" y="308"/>
      <point x="316" y="257"/>
      <point x="316" y="230" type="qcurve" smooth="yes"/>
      <point x="316" y="199"/>
      <point x="300" y="148"/>
      <point x="273" y="111" type="qcurve" smooth="yes"/>
      <point x="249" y="75"/>
      <point x="234" y="30"/>
      <point x="234" y="4" type="qcurve"/>
      <point x="234" y="-29"/>
      <point x="266" y="-65"/>
      <point x="295" y="-65" type="qcurve" smooth="yes"/>
      <point x="304" y="-65"/>
      <point x="324" y="-61"/>
      <point x="338" y="-56" type="qcurve"/>
      <point x="350" y="-88"/>
      <point x="358" y="-143"/>
    </contour>
  </outline>
</glyph>
<glyph name="bar" format="1">
  <advance width="276"/>
  <unicode hex="007C"/>
  <outline>
    <contour>
      <point x="191" y="-157" type="qcurve"/>
      <point x="166" y="-165"/>
      <point x="105" y="-170"/>
      <point x="80" y="-167" type="qcurve"/>
      <point x="70" y="-16"/>
      <point x="60" y="455"/>
      <point x="60" y="713" type="qcurve"/>
      <point x="99" y="729"/>
      <point x="186" y="736"/>
      <point x="216" y="725" type="qcurve"/>
      <point x="204" y="598"/>
      <point x="187" y="-13"/>
    </contour>
  </outline>
</glyph>
<glyph name="braceright" format="1">
  <advance width="332.5"/>
  <unicode hex="007D"/>
  <outline>
    <contour>
      <point x="285" y="-15" type="qcurve" smooth="yes"/>
      <point x="285" y="-82"/>
      <point x="176" y="-171"/>
      <point x="98" y="-171" type="qcurve" smooth="yes"/>
      <point x="84" y="-171"/>
      <point x="57" y="-169"/>
      <point x="44" y="-167" type="qcurve"/>
      <point x="37" y="-146"/>
      <point x="35" y="-90"/>
      <point x="41" y="-61" type="qcurve"/>
      <point x="50" y="-62"/>
      <point x="68" y="-64"/>
      <point x="76" y="-64" type="qcurve" smooth="yes"/>
      <point x="104" y="-64"/>
      <point x="131" y="-37"/>
      <point x="131" y="-9" type="qcurve" smooth="yes"/>
      <point x="131" y="16"/>
      <point x="116" y="61"/>
      <point x="92" y="100" type="qcurve" smooth="yes"/>
      <point x="66" y="142"/>
      <point x="50" y="193"/>
      <point x="50" y="221" type="qcurve"/>
      <point x="50" y="255"/>
      <point x="90" y="311"/>
      <point x="124" y="326" type="qcurve"/>
      <point x="92" y="341"/>
      <point x="57" y="395"/>
      <point x="57" y="428" type="qcurve" smooth="yes"/>
      <point x="57" y="457"/>
      <point x="75" y="505"/>
      <point x="105" y="542" type="qcurve" smooth="yes"/>
      <point x="134" y="578"/>
      <point x="152" y="626"/>
      <point x="152" y="654" type="qcurve" smooth="yes"/>
      <point x="152" y="683"/>
      <point x="118" y="719"/>
      <point x="93" y="719" type="qcurve" smooth="yes"/>
      <point x="83" y="719"/>
      <point x="71" y="717"/>
      <point x="63" y="715" type="qcurve"/>
      <point x="58" y="743"/>
      <point x="59" y="796"/>
      <point x="65" y="820" type="qcurve"/>
      <point x="79" y="824"/>
      <point x="111" y="827"/>
      <point x="134" y="827" type="qcurve" smooth="yes"/>
      <point x="215" y="827"/>
      <point x="311" y="749"/>
      <point x="311" y="683" type="qcurve" smooth="yes"/>
      <point x="311" y="642"/>
      <point x="287" y="579"/>
      <point x="245" y="522" type="qcurve" smooth="yes"/>
      <point x="221" y="489"/>
      <point x="198" y="443"/>
      <point x="198" y="428" type="qcurve" smooth="yes"/>
      <point x="198" y="406"/>
      <point x="224" y="385"/>
      <point x="252" y="385" type="qcurve" smooth="yes"/>
      <point x="268" y="385"/>
      <point x="291" y="388"/>
      <point x="304" y="392" type="qcurve"/>
      <point x="312" y="360"/>
      <point x="312" y="284"/>
      <point x="303" y="257" type="qcurve"/>
      <point x="287" y="261"/>
      <point x="261" y="265"/>
      <point x="246" y="265" type="qcurve" smooth="yes"/>
      <point x="223" y="265"/>
      <point x="194" y="242"/>
      <point x="194" y="223" type="qcurve" smooth="yes"/>
      <point x="194" y="205"/>
      <point x="212" y="166"/>
      <point x="232" y="140" type="qcurve" smooth="yes"/>
      <point x="262" y="101"/>
      <point x="285" y="33"/>
    </contour>
  </outline>
</glyph>
<glyph name="asciitilde" format="1">
  <advance width="500.174168456"/>
  <unicode hex="007E"/>
  <outline>
    <contour>
      <point x="241" y="391" type="qcurve" smooth="yes"/>
      <point x="276" y="376"/>
      <point x="314" y="367"/>
      <point x="331" y="367" type="qcurve" smooth="yes"/>
      <point x="364" y="367"/>
      <point x="391" y="393"/>
      <point x="390" y="424" type="qcurve"/>
      <point x="409" y="425"/>
      <point x="456" y="418"/>
      <point x="469" y="412" type="qcurve"/>
      <point x="476" y="335"/>
      <point x="414" y="252"/>
      <point x="349" y="252" type="qcurve" smooth="yes"/>
      <point x="326" y="252"/>
      <point x="281" y="263"/>
      <point x="242" y="279" type="qcurve" smooth="yes"/>
      <point x="212" y="292"/>
      <point x="182" y="300"/>
      <point x="169" y="300" type="qcurve" smooth="yes"/>
      <point x="137" y="300"/>
      <point x="109" y="273"/>
      <point x="110" y="242" type="qcurve"/>
      <point x="92" y="241"/>
      <point x="49" y="248"/>
      <point x="31" y="254" type="qcurve"/>
      <point x="25" y="331"/>
      <point x="87" y="415"/>
      <point x="151" y="415" type="qcurve" smooth="yes"/>
      <point x="168" y="415"/>
      <point x="206" y="406"/>
    </contour>
  </outline>
</glyph>
<glyph name="cent" format="1">
  <advance width="526"/>
  <unicode hex="00A2"/>
  <outline>
    <contour>
      <point x="394" y="78" type="qcurve" smooth="yes"/>
      <point x="362" y="62"/>
      <point x="287" y="45"/>
      <point x="246" y="45" type="qcurve" smooth="yes"/>
      <point x="243" y="45"/>
      <point x="236" y="45"/>
      <point x="230" y="46" type="qcurve" smooth="yes"/>
      <point x="224" y="46"/>
      <point x="218" y="46"/>
      <point x="215" y="46" type="qcurve"/>
      <point x="207" y="16"/>
      <point x="186" y="-42"/>
      <point x="175" y="-64" type="qcurve"/>
      <point x="147" y="-61"/>
      <point x="77" y="-35"/>
      <point x="55" y="-19" type="qcurve"/>
      <point x="73" y="9"/>
      <point x="98" y="59"/>
      <point x="108" y="85" type="qcurve"/>
      <point x="68" y="115"/>
      <point x="25" y="212"/>
      <point x="25" y="273" type="qcurve" smooth="yes"/>
      <point x="25" y="334"/>
      <point x="65" y="456"/>
      <point x="102" y="503" type="qcurve" smooth="yes"/>
      <point x="142" y="557"/>
      <point x="250" y="613"/>
      <point x="313" y="613" type="qcurve" smooth="yes"/>
      <point x="323" y="613"/>
      <point x="347" y="611"/>
      <point x="367" y="609" type="qcurve"/>
      <point x="374" y="632"/>
      <point x="393" y="679"/>
      <point x="403" y="698" type="qcurve"/>
      <point x="430" y="696"/>
      <point x="499" y="670"/>
      <point x="521" y="654" type="qcurve"/>
      <point x="504" y="626"/>
      <point x="480" y="580"/>
      <point x="471" y="556" type="qcurve"/>
      <point x="491" y="534"/>
      <point x="511" y="476"/>
      <point x="511" y="442" type="qcurve"/>
      <point x="479" y="427"/>
      <point x="396" y="412"/>
      <point x="338" y="412" type="qcurve"/>
      <point x="338" y="465"/>
      <point x="319" y="516"/>
      <point x="299" y="516" type="qcurve" smooth="yes"/>
      <point x="270" y="516"/>
      <point x="226" y="371"/>
      <point x="226" y="280" type="qcurve" smooth="yes"/>
      <point x="226" y="222"/>
      <point x="256" y="156"/>
      <point x="283" y="156" type="qcurve" smooth="yes"/>
      <point x="307" y="156"/>
      <point x="357" y="195"/>
      <point x="397" y="253" type="qcurve"/>
      <point x="426" y="248"/>
      <point x="482" y="210"/>
      <point x="500" y="184" type="qcurve"/>
      <point x="492" y="158"/>
      <point x="434" y="98"/>
    </contour>
  </outline>
</glyph>
<glyph name="sterling" format="1">
  <advance width="575"/>
  <unicode hex="00A3"/>
  <outline>
    <contour>
      <point x="263" y="-36" type="qcurve" smooth="yes"/>
      <point x="215" y="-29"/>
      <point x="171" y="-25"/>
      <point x="153" y="-25" type="qcurve"/>
      <point x="125" y="-25"/>
      <point x="80" y="-36"/>
      <point x="40" y="-54" type="qcurve"/>
      <point x="24" y="-30"/>
      <point x="7" y="18"/>
      <point x="6" y="41" type="qcurve"/>
      <point x="41" y="62"/>
      <point x="107" y="88"/>
      <point x="135" y="91" type="qcurve"/>
      <point x="146" y="107"/>
      <point x="157" y="140"/>
      <point x="157" y="159" type="qcurve" smooth="yes"/>
      <point x="157" y="172"/>
      <point x="154" y="195"/>
      <point x="150" y="206" type="qcurve"/>
      <point x="116" y="205"/>
      <point x="17" y="206"/>
      <point x="11" y="206" type="qcurve"/>
      <point x="10" y="233"/>
      <point x="11" y="298"/>
      <point x="13" y="314" type="qcurve"/>
      <point x="35" y="314"/>
      <point x="61" y="314"/>
      <point x="73" y="315" type="qcurve"/>
      <point x="48" y="350"/>
      <point x="24" y="417"/>
      <point x="24" y="453" type="qcurve" smooth="yes"/>
      <point x="24" y="548"/>
      <point x="181" y="673"/>
      <point x="302" y="673" type="qcurve" smooth="yes"/>
      <point x="405" y="673"/>
      <point x="542" y="541"/>
      <point x="554" y="429" type="qcurve"/>
      <point x="516" y="416"/>
      <point x="415" y="411"/>
      <point x="358" y="421" type="qcurve"/>
      <point x="362" y="486"/>
      <point x="331" y="560"/>
      <point x="301" y="560" type="qcurve" smooth="yes"/>
      <point x="269" y="560"/>
      <point x="233" y="494"/>
      <point x="233" y="435" type="qcurve" smooth="yes"/>
      <point x="233" y="404"/>
      <point x="243" y="352"/>
      <point x="256" y="324" type="qcurve"/>
      <point x="325" y="329"/>
      <point x="425" y="341"/>
      <point x="453" y="348" type="qcurve"/>
      <point x="456" y="334"/>
      <point x="460" y="309"/>
      <point x="461" y="298" type="qcurve" smooth="yes"/>
      <point x="462" y="278"/>
      <point x="457" y="239"/>
      <point x="452" y="223" type="qcurve"/>
      <point x="416" y="218"/>
      <point x="333" y="210"/>
      <point x="290" y="209" type="qcurve"/>
      <point x="290" y="206" type="line" smooth="yes"/>
      <point x="290" y="170"/>
      <point x="264" y="110"/>
      <point x="236" y="80" type="qcurve"/>
      <point x="251" y="77"/>
      <point x="281" y="75"/>
      <point x="296" y="76" type="qcurve" smooth="yes"/>
      <point x="355" y="78"/>
      <point x="481" y="106"/>
      <point x="544" y="131" type="qcurve"/>
      <point x="558" y="94"/>
      <point x="569" y="-6"/>
      <point x="564" y="-44" type="qcurve"/>
      <point x="498" y="-53"/>
      <point x="367" y="-51"/>
    </contour>
  </outline>
</glyph>
<glyph name="brokenbar" format="1">
  <advance width="276"/>
  <unicode hex="00A6"/>
  <outline>
    <contour>
      <point x="216" y="725" type="qcurve"/>
      <point x="211" y="660"/>
      <point x="200" y="473"/>
      <point x="197" y="379" type="qcurve"/>
      <point x="172" y="375"/>
      <point x="109" y="371"/>
      <point x="62" y="371" type="qcurve"/>
      <point x="57" y="468"/>
      <point x="56" y="643"/>
      <point x="60" y="713" type="qcurve"/>
      <point x="99" y="729"/>
      <point x="186" y="736"/>
    </contour>
    <contour>
      <point x="191" y="-157" type="qcurve"/>
      <point x="166" y="-165"/>
      <point x="105" y="-170"/>
      <point x="80" y="-167" type="qcurve"/>
      <point x="75" y="-100"/>
      <point x="68" y="82"/>
      <point x="65" y="220" type="qcurve"/>
      <point x="97" y="224"/>
      <point x="163" y="223"/>
      <point x="194" y="218" type="qcurve"/>
      <point x="191" y="108"/>
      <point x="189" y="-95"/>
    </contour>
  </outline>
</glyph>
<glyph name="copyright" format="1">
  <advance width="876"/>
  <unicode hex="00A9"/>
  <outline>
    <contour>
      <point x="740" y="600" type="qcurve" smooth="yes"/>
      <point x="793" y="546"/>
      <point x="851" y="400"/>
      <point x="851" y="320" type="qcurve" smooth="yes"/>
      <point x="851" y="126"/>
      <point x="630" y="-98"/>
      <point x="432" y="-98" type="qcurve" smooth="yes"/>
      <point x="245" y="-98"/>
      <point x="25" y="115"/>
      <point x="25" y="297" type="qcurve" smooth="yes"/>
      <point x="25" y="381"/>
      <point x="93" y="534"/>
      <point x="156" y="592" type="qcurve" smooth="yes"/>
      <point x="216" y="648"/>
      <point x="373" y="708"/>
      <point x="460" y="708" type="qcurve" smooth="yes"/>
      <point x="545" y="708"/>
      <point x="688" y="653"/>
    </contour>
    <contour>
      <point x="440" y="8" type="qcurve" smooth="yes"/>
      <point x="569" y="8"/>
      <point x="720" y="177"/>
      <point x="720" y="322" type="qcurve" smooth="yes"/>
      <point x="720" y="452"/>
      <point x="575" y="602"/>
      <point x="448" y="602" type="qcurve" smooth="yes"/>
      <point x="320" y="602"/>
      <point x="156" y="433"/>
      <point x="156" y="301" type="qcurve" smooth="yes"/>
      <point x="156" y="165"/>
      <point x="308" y="8"/>
    </contour>
    <contour>
      <point x="497" y="262" type="qcurve"/>
      <point x="527" y="266"/>
      <point x="595" y="254"/>
      <point x="608" y="243" type="qcurve"/>
      <point x="603" y="178"/>
      <point x="503" y="105"/>
      <point x="417" y="105" type="qcurve" smooth="yes"/>
      <point x="338" y="105"/>
      <point x="250" y="190"/>
      <point x="250" y="270" type="qcurve" smooth="yes"/>
      <point x="250" y="374"/>
      <point x="381" y="522"/>
      <point x="479" y="522" type="qcurve" smooth="yes"/>
      <point x="536" y="522"/>
      <point x="612" y="456"/>
      <point x="620" y="399" type="qcurve"/>
      <point x="578" y="382"/>
      <point x="525" y="374"/>
      <point x="483" y="374" type="qcurve"/>
      <point x="482" y="404"/>
      <point x="465" y="440"/>
      <point x="454" y="440" type="qcurve" smooth="yes"/>
      <point x="435" y="440"/>
      <point x="413" y="363"/>
      <point x="413" y="305" type="qcurve" smooth="yes"/>
      <point x="413" y="250"/>
      <point x="437" y="191"/>
      <point x="459" y="191" type="qcurve" smooth="yes"/>
      <point x="484" y="191"/>
      <point x="504" y="229"/>
    </contour>
  </outline>
</glyph>
<glyph name="guillemotleft" format="1">
  <advance width="604"/>
  <unicode hex="00AB"/>
  <outline>
    <contour>
      <point x="320" y="126" type="qcurve"/>
      <point x="298" y="88"/>
      <point x="244" y="41"/>
      <point x="204" y="24" type="qcurve"/>
      <point x="131" y="86"/>
      <point x="36" y="203"/>
      <point x="6" y="267" type="qcurve"/>
      <point x="74" y="321"/>
      <point x="166" y="429"/>
      <point x="205" y="499" type="qcurve"/>
      <point x="240" y="483"/>
      <point x="307" y="431"/>
      <point x="323" y="406" type="qcurve"/>
      <point x="276" y="354"/>
      <point x="204" y="287"/>
      <point x="164" y="260" type="qcurve"/>
      <point x="198" y="222"/>
      <point x="272" y="158"/>
    </contour>
    <contour>
      <point x="594" y="126" type="qcurve"/>
      <point x="572" y="88"/>
      <point x="518" y="41"/>
      <point x="478" y="24" type="qcurve"/>
      <point x="405" y="86"/>
      <point x="310" y="203"/>
      <point x="280" y="267" type="qcurve"/>
      <point x="348" y="321"/>
      <point x="440" y="429"/>
      <point x="479" y="499" type="qcurve"/>
      <point x="514" y="483"/>
      <point x="581" y="431"/>
      <point x="597" y="406" type="qcurve"/>
      <point x="550" y="354"/>
      <point x="478" y="287"/>
      <point x="438" y="260" type="qcurve"/>
      <point x="472" y="222"/>
      <point x="546" y="158"/>
    </contour>
  </outline>
</glyph>
<glyph name="degree" format="1">
  <advance width="285"/>
  <unicode hex="00B0"/>
  <outline>
    <contour>
      <point x="10" y="632" type="qcurve" smooth="yes"/>
      <point x="10" y="687"/>
      <point x="86" y="751"/>
      <point x="153" y="751" type="qcurve" smooth="yes"/>
      <point x="209" y="751"/>
      <point x="275" y="696"/>
      <point x="275" y="649" type="qcurve" smooth="yes"/>
      <point x="275" y="581"/>
      <point x="205" y="512"/>
      <point x="136" y="512" type="qcurve" smooth="yes"/>
      <point x="78" y="512"/>
      <point x="10" y="577"/>
    </contour>
    <contour>
      <point x="179" y="639" type="qcurve" smooth="yes"/>
      <point x="179" y="666"/>
      <point x="161" y="695"/>
      <point x="145" y="695" type="qcurve" smooth="yes"/>
      <point x="127" y="695"/>
      <point x="106" y="659"/>
      <point x="106" y="628" type="qcurve" smooth="yes"/>
      <point x="106" y="601"/>
      <point x="124" y="572"/>
      <point x="141" y="572" type="qcurve"/>
      <point x="159" y="572"/>
      <point x="179" y="608"/>
    </contour>
  </outline>
</glyph>
<glyph name="plusminus" format="1">
  <advance width="502"/>
  <unicode hex="00B1"/>
  <outline>
    <contour>
      <point x="325" y="325" type="qcurve"/>
      <point x="324" y="287"/>
      <point x="316" y="212"/>
      <point x="311" y="176" type="qcurve"/>
      <point x="278" y="172"/>
      <point x="219" y="171"/>
      <point x="191" y="173" type="qcurve"/>
      <point x="195" y="217"/>
      <point x="201" y="291"/>
      <point x="202" y="324" type="qcurve"/>
      <point x="159" y="325"/>
      <point x="76" y="333"/>
      <point x="41" y="338" type="qcurve"/>
      <point x="41" y="372"/>
      <point x="45" y="427"/>
      <point x="49" y="459" type="qcurve"/>
      <point x="86" y="454"/>
      <point x="163" y="448"/>
      <point x="201" y="447" type="qcurve"/>
      <point x="200" y="481"/>
      <point x="195" y="552"/>
      <point x="190" y="590" type="qcurve"/>
      <point x="222" y="594"/>
      <point x="277" y="598"/>
      <point x="311" y="598" type="qcurve"/>
      <point x="315" y="570"/>
      <point x="322" y="497"/>
      <point x="325" y="447" type="qcurve"/>
      <point x="372" y="449"/>
      <point x="447" y="454"/>
      <point x="480" y="458" type="qcurve"/>
      <point x="480" y="427"/>
      <point x="471" y="367"/>
      <point x="463" y="338" type="qcurve"/>
      <point x="433" y="333"/>
      <point x="364" y="327"/>
    </contour>
    <contour>
      <point x="22" y="26" type="qcurve"/>
      <point x="22" y="60"/>
      <point x="26" y="115"/>
      <point x="30" y="147" type="qcurve"/>
      <point x="130" y="134"/>
      <point x="345" y="134"/>
      <point x="461" y="146" type="qcurve"/>
      <point x="461" y="115"/>
      <point x="452" y="55"/>
      <point x="444" y="26" type="qcurve"/>
      <point x="351" y="11"/>
      <point x="114" y="12"/>
    </contour>
  </outline>
</glyph>
<glyph name="twosuperior" format="1">
  <advance width="399"/>
  <unicode hex="00B2"/>
  <outline>
    <contour>
      <point x="364" y="392" type="qcurve"/>
      <point x="364" y="356"/>
      <point x="353" y="292"/>
      <point x="342" y="268" type="qcurve"/>
      <point x="266" y="266"/>
      <point x="67" y="291"/>
      <point x="10" y="309" type="qcurve"/>
      <point x="9" y="334"/>
      <point x="13" y="361"/>
      <point x="19" y="379" type="qcurve"/>
      <point x="126" y="442"/>
      <point x="226" y="541"/>
      <point x="226" y="585" type="qcurve" smooth="yes"/>
      <point x="226" y="603"/>
      <point x="215" y="622"/>
      <point x="205" y="622" type="qcurve" smooth="yes"/>
      <point x="189" y="622"/>
      <point x="171" y="587"/>
      <point x="162" y="540" type="qcurve"/>
      <point x="115" y="540"/>
      <point x="45" y="553"/>
      <point x="17" y="566" type="qcurve"/>
      <point x="38" y="635"/>
      <point x="134" y="702"/>
      <point x="213" y="702" type="qcurve" smooth="yes"/>
      <point x="292" y="702"/>
      <point x="389" y="627"/>
      <point x="389" y="567" type="qcurve" smooth="yes"/>
      <point x="389" y="519"/>
      <point x="310" y="424"/>
      <point x="235" y="384" type="qcurve"/>
      <point x="285" y="386"/>
      <point x="343" y="389"/>
    </contour>
  </outline>
</glyph>
<glyph name="threesuperior" format="1">
  <advance width="416"/>
  <unicode hex="00B3"/>
  <outline>
    <contour>
      <point x="391" y="416" type="qcurve" smooth="yes"/>
      <point x="391" y="352"/>
      <point x="280" y="264"/>
      <point x="197" y="264" type="qcurve" smooth="yes"/>
      <point x="118" y="264"/>
      <point x="29" y="330"/>
      <point x="25" y="393" type="qcurve"/>
      <point x="53" y="406"/>
      <point x="124" y="419"/>
      <point x="170" y="419" type="qcurve"/>
      <point x="170" y="385"/>
      <point x="192" y="344"/>
      <point x="207" y="344" type="qcurve" smooth="yes"/>
      <point x="218" y="344"/>
      <point x="228" y="365"/>
      <point x="228" y="386" type="qcurve" smooth="yes"/>
      <point x="228" y="426"/>
      <point x="177" y="469"/>
      <point x="136" y="460" type="qcurve"/>
      <point x="131" y="476"/>
      <point x="125" y="520"/>
      <point x="124" y="540" type="qcurve"/>
      <point x="150" y="550"/>
      <point x="201" y="580"/>
      <point x="223" y="598" type="qcurve"/>
      <point x="178" y="595"/>
      <point x="93" y="583"/>
      <point x="51" y="575" type="qcurve"/>
      <point x="43" y="594"/>
      <point x="34" y="653"/>
      <point x="33" y="686" type="qcurve"/>
      <point x="83" y="704"/>
      <point x="280" y="729"/>
      <point x="364" y="729" type="qcurve"/>
      <point x="376" y="704"/>
      <point x="388" y="639"/>
      <point x="388" y="603" type="qcurve"/>
      <point x="353" y="573"/>
      <point x="312" y="541"/>
      <point x="285" y="522" type="qcurve"/>
      <point x="335" y="510"/>
      <point x="391" y="454"/>
    </contour>
  </outline>
</glyph>
<glyph name="uni00B5" format="1">
  <advance width="574"/>
  <unicode hex="00B5"/>
  <outline>
    <contour>
      <point x="163" y="15" type="qcurve"/>
      <point x="173" y="-51"/>
      <point x="202" y="-166"/>
      <point x="219" y="-210" type="qcurve"/>
      <point x="202" y="-215"/>
      <point x="174" y="-219"/>
      <point x="155" y="-219" type="qcurve" smooth="yes"/>
      <point x="124" y="-219"/>
      <point x="68" y="-207"/>
      <point x="46" y="-196" type="qcurve"/>
      <point x="38" y="-119"/>
      <point x="30" y="31"/>
      <point x="30" y="119" type="qcurve" smooth="yes"/>
      <point x="30" y="206"/>
      <point x="50" y="383"/>
      <point x="77" y="524" type="qcurve"/>
      <point x="116" y="524"/>
      <point x="210" y="515"/>
      <point x="271" y="505" type="qcurve"/>
      <point x="254" y="411"/>
      <point x="235" y="248"/>
      <point x="235" y="197" type="qcurve" smooth="yes"/>
      <point x="235" y="169"/>
      <point x="251" y="142"/>
      <point x="268" y="142" type="qcurve" smooth="yes"/>
      <point x="287" y="142"/>
      <point x="324" y="187"/>
      <point x="338" y="227" type="qcurve"/>
      <point x="343" y="324"/>
      <point x="344" y="487"/>
      <point x="341" y="556" type="qcurve"/>
      <point x="369" y="564"/>
      <point x="465" y="576"/>
      <point x="506" y="576" type="qcurve"/>
      <point x="521" y="467"/>
      <point x="544" y="125"/>
      <point x="544" y="9" type="qcurve"/>
      <point x="521" y="-3"/>
      <point x="437" y="-17"/>
      <point x="393" y="-17" type="qcurve" smooth="yes"/>
      <point x="373" y="-17"/>
      <point x="335" y="-13"/>
      <point x="316" y="-9" type="qcurve"/>
      <point x="322" y="37"/>
      <point x="325" y="60"/>
      <point x="326" y="70" type="qcurve"/>
      <point x="301" y="33"/>
      <point x="248" y="-4"/>
      <point x="219" y="-4" type="qcurve" smooth="yes"/>
      <point x="202" y="-4"/>
      <point x="174" y="5"/>
    </contour>
  </outline>
</glyph>
<glyph name="paragraph" format="1">
  <advance width="749"/>
  <unicode hex="00B6"/>
  <outline>
    <contour>
      <point x="690" y="680" type="qcurve"/>
      <point x="690" y="503"/>
      <point x="661" y="-164"/>
      <point x="646" y="-296" type="qcurve"/>
      <point x="618" y="-306"/>
      <point x="563" y="-315"/>
      <point x="534" y="-315" type="qcurve"/>
      <point x="536" y="-281"/>
      <point x="558" y="28"/>
      <point x="564" y="137" type="qcurve" smooth="yes"/>
      <point x="569" y="251"/>
      <point x="573" y="475"/>
      <point x="571" y="590" type="qcurve"/>
      <point x="555" y="595"/>
      <point x="528" y="602"/>
      <point x="516" y="603" type="qcurve"/>
      <point x="515" y="433"/>
      <point x="486" y="-44"/>
      <point x="461" y="-296" type="qcurve"/>
      <point x="441" y="-303"/>
      <point x="388" y="-309"/>
      <point x="349" y="-309" type="qcurve"/>
      <point x="350" y="-291"/>
      <point x="354" y="-227"/>
      <point x="359" y="-144" type="qcurve" smooth="yes"/>
      <point x="370" y="16"/>
      <point x="377" y="151"/>
      <point x="377" y="182" type="qcurve"/>
      <point x="208" y="230"/>
      <point x="38" y="404"/>
      <point x="38" y="529" type="qcurve" smooth="yes"/>
      <point x="38" y="633"/>
      <point x="198" y="758"/>
      <point x="331" y="758" type="qcurve" smooth="yes"/>
      <point x="409" y="758"/>
      <point x="542" y="731"/>
    </contour>
  </outline>
</glyph>
<glyph name="onesuperior" format="1">
  <advance width="359"/>
  <unicode hex="00B9"/>
  <outline>
    <contour>
      <point x="261" y="283" type="qcurve"/>
      <point x="244" y="276"/>
      <point x="200" y="269"/>
      <point x="174" y="269" type="qcurve" smooth="yes"/>
      <point x="159" y="269"/>
      <point x="139" y="272"/>
      <point x="128" y="275" type="qcurve"/>
      <point x="128" y="286" type="line" smooth="yes"/>
      <point x="128" y="345"/>
      <point x="138" y="483"/>
      <point x="146" y="547" type="qcurve"/>
      <point x="135" y="540"/>
      <point x="110" y="525"/>
      <point x="97" y="518" type="qcurve"/>
      <point x="69" y="538"/>
      <point x="31" y="587"/>
      <point x="17" y="622" type="qcurve"/>
      <point x="77" y="646"/>
      <point x="192" y="705"/>
      <point x="248" y="741" type="qcurve"/>
      <point x="278" y="731"/>
      <point x="325" y="703"/>
      <point x="342" y="684" type="qcurve"/>
      <point x="318" y="624"/>
      <point x="271" y="398"/>
    </contour>
  </outline>
</glyph>
<glyph name="questiondown" format="1">
  <advance width="513"/>
  <unicode hex="00BF"/>
  <outline>
    <contour>
      <point x="204" y="396" type="qcurve"/>
      <point x="199" y="462"/>
      <point x="192" y="531"/>
      <point x="188" y="564" type="qcurve"/>
      <point x="210" y="569"/>
      <point x="249" y="574"/>
      <point x="277" y="575" type="qcurve" smooth="yes"/>
      <point x="305" y="576"/>
      <point x="357" y="566"/>
      <point x="375" y="557" type="qcurve"/>
      <point x="379" y="517"/>
      <point x="381" y="440"/>
      <point x="379" y="394" type="qcurve"/>
      <point x="360" y="394"/>
      <point x="320" y="394"/>
      <point x="285" y="395" type="qcurve" smooth="yes"/>
      <point x="253" y="396"/>
      <point x="220" y="396"/>
    </contour>
    <contour>
      <point x="538" y="5" type="qcurve"/>
      <point x="532" y="-100"/>
      <point x="400" y="-211"/>
      <point x="280" y="-211" type="qcurve" smooth="yes"/>
      <point x="173" y="-211"/>
      <point x="25" y="-100"/>
      <point x="25" y="-18" type="qcurve" smooth="yes"/>
      <point x="25" y="54"/>
      <point x="127" y="153"/>
      <point x="220" y="171" type="qcurve"/>
      <point x="220" y="184"/>
      <point x="221" y="217"/>
      <point x="222" y="252" type="qcurve" smooth="yes"/>
      <point x="222" y="271"/>
      <point x="223" y="290"/>
      <point x="223" y="298" type="qcurve"/>
      <point x="247" y="305"/>
      <point x="327" y="313"/>
      <point x="369" y="313" type="qcurve"/>
      <point x="379" y="265"/>
      <point x="392" y="177"/>
      <point x="393" y="144" type="qcurve"/>
      <point x="316" y="131"/>
      <point x="234" y="46"/>
      <point x="234" y="-19" type="qcurve" smooth="yes"/>
      <point x="234" y="-64"/>
      <point x="260" y="-107"/>
      <point x="286" y="-107" type="qcurve" smooth="yes"/>
      <point x="316" y="-107"/>
      <point x="355" y="-26"/>
      <point x="355" y="40" type="qcurve"/>
      <point x="412" y="40"/>
      <point x="502" y="23"/>
    </contour>
  </outline>
</glyph>
<glyph name="AE" format="1">
  <advance width="912"/>
  <unicode hex="00C6"/>
  <outline>
    <contour>
      <point x="882" y="-10" type="qcurve"/>
      <point x="853" y="-19"/>
      <point x="540" y="-43"/>
      <point x="435" y="-43" type="qcurve"/>
      <point x="431" y="-10"/>
      <point x="422" y="73"/>
      <point x="416" y="141" type="qcurve"/>
      <point x="362" y="140"/>
      <point x="270" y="135"/>
      <point x="228" y="130" type="qcurve"/>
      <point x="212" y="93"/>
      <point x="175" y="16"/>
      <point x="152" y="-32" type="qcurve"/>
      <point x="103" y="-24"/>
      <point x="16" y="23"/>
      <point x="-9" y="55" type="qcurve"/>
      <point x="68" y="198"/>
      <point x="182" y="489"/>
      <point x="244" y="710" type="qcurve"/>
      <point x="278" y="710"/>
      <point x="359" y="699"/>
      <point x="413" y="687" type="qcurve"/>
      <point x="557" y="714"/>
      <point x="757" y="735"/>
      <point x="857" y="735" type="qcurve"/>
      <point x="857" y="698"/>
      <point x="848" y="615"/>
      <point x="838" y="570" type="qcurve"/>
      <point x="771" y="570"/>
      <point x="651" y="566"/>
      <point x="597" y="562" type="qcurve"/>
      <point x="595" y="540"/>
      <point x="593" y="483"/>
      <point x="592" y="426" type="qcurve"/>
      <point x="643" y="441"/>
      <point x="745" y="455"/>
      <point x="798" y="455" type="qcurve"/>
      <point x="806" y="420"/>
      <point x="814" y="346"/>
      <point x="814" y="296" type="qcurve"/>
      <point x="757" y="296"/>
      <point x="644" y="289"/>
      <point x="592" y="283" type="qcurve"/>
      <point x="593" y="238"/>
      <point x="597" y="152"/>
      <point x="601" y="113" type="qcurve"/>
      <point x="630" y="113"/>
      <point x="816" y="136"/>
      <point x="863" y="145" type="qcurve"/>
      <point x="871" y="124"/>
      <point x="882" y="29"/>
    </contour>
    <contour>
      <point x="386" y="540" type="qcurve"/>
      <point x="366" y="477"/>
      <point x="316" y="339"/>
      <point x="287" y="268" type="qcurve"/>
      <point x="313" y="271"/>
      <point x="370" y="276"/>
      <point x="404" y="278" type="qcurve"/>
      <point x="398" y="341"/>
      <point x="389" y="474"/>
    </contour>
  </outline>
</glyph>
<glyph name="Eth" format="1">
  <advance width="633"/>
  <unicode hex="00D0"/>
  <outline>
    <contour>
      <point x="243" y="324" type="qcurve"/>
      <point x="242" y="271"/>
      <point x="241" y="215"/>
      <point x="241" y="191" type="qcurve" smooth="yes"/>
      <point x="241" y="169"/>
      <point x="241" y="146"/>
      <point x="242" y="137" type="qcurve"/>
      <point x="322" y="179"/>
      <point x="408" y="336"/>
      <point x="408" y="439" type="qcurve" smooth="yes"/>
      <point x="408" y="512"/>
      <point x="335" y="599"/>
      <point x="274" y="599" type="qcurve" smooth="yes"/>
      <point x="267" y="599"/>
      <point x="261" y="599"/>
      <point x="258" y="598" type="qcurve"/>
      <point x="254" y="554"/>
      <point x="248" y="467"/>
      <point x="246" y="423" type="qcurve"/>
      <point x="262" y="424"/>
      <point x="297" y="426"/>
      <point x="321" y="428" type="qcurve"/>
      <point x="323" y="402"/>
      <point x="323" y="354"/>
      <point x="321" y="334" type="qcurve"/>
      <point x="295" y="330"/>
      <point x="258" y="325"/>
    </contour>
    <contour>
      <point x="613" y="441" type="qcurve" smooth="yes"/>
      <point x="613" y="302"/>
      <point x="399" y="36"/>
      <point x="247" y="-9" type="qcurve"/>
      <point x="203" y="-9"/>
      <point x="111" y="-2"/>
      <point x="77" y="4" type="qcurve"/>
      <point x="68" y="78"/>
      <point x="55" y="238"/>
      <point x="50" y="320" type="qcurve"/>
      <point x="23" y="321"/>
      <point x="-7" y="323"/>
      <point x="-20" y="324" type="qcurve"/>
      <point x="-22" y="345"/>
      <point x="-21" y="406"/>
      <point x="-18" y="421" type="qcurve"/>
      <point x="-7" y="420"/>
      <point x="20" y="420"/>
      <point x="46" y="420" type="qcurve"/>
      <point x="45" y="436"/>
      <point x="45" y="473"/>
      <point x="45" y="508" type="qcurve" smooth="yes"/>
      <point x="45" y="545"/>
      <point x="46" y="621"/>
      <point x="48" y="659" type="qcurve"/>
      <point x="115" y="690"/>
      <point x="229" y="717"/>
      <point x="291" y="717" type="qcurve" smooth="yes"/>
      <point x="448" y="717"/>
      <point x="613" y="575"/>
    </contour>
  </outline>
</glyph>
<glyph name="multiply" format="1">
  <advance width="501"/>
  <unicode hex="00D7"/>
  <outline>
    <contour>
      <point x="454" y="220" type="qcurve"/>
      <point x="435" y="196"/>
      <point x="393" y="153"/>
      <point x="371" y="133" type="qcurve"/>
      <point x="343" y="168"/>
      <point x="292" y="226"/>
      <point x="268" y="252" type="qcurve"/>
      <point x="230" y="215"/>
      <point x="157" y="154"/>
      <point x="127" y="132" type="qcurve"/>
      <point x="104" y="155"/>
      <point x="67" y="197"/>
      <point x="47" y="223" type="qcurve"/>
      <point x="85" y="253"/>
      <point x="152" y="310"/>
      <point x="182" y="339" type="qcurve"/>
      <point x="154" y="366"/>
      <point x="90" y="420"/>
      <point x="54" y="448" type="qcurve"/>
      <point x="71" y="470"/>
      <point x="106" y="511"/>
      <point x="134" y="540" type="qcurve"/>
      <point x="163" y="519"/>
      <point x="232" y="461"/>
      <point x="269" y="426" type="qcurve"/>
      <point x="294" y="454"/>
      <point x="347" y="514"/>
      <point x="374" y="548" type="qcurve"/>
      <point x="396" y="526"/>
      <point x="433" y="477"/>
      <point x="447" y="451" type="qcurve"/>
      <point x="429" y="426"/>
      <point x="382" y="369"/>
      <point x="354" y="339" type="qcurve"/>
      <point x="381" y="311"/>
      <point x="432" y="250"/>
    </contour>
  </outline>
</glyph>
<glyph name="divide" format="1">
  <advance width="501"/>
  <unicode hex="00F7"/>
  <outline>
    <contour>
      <point x="370" y="598" type="qcurve"/>
      <point x="368" y="550"/>
      <point x="361" y="471"/>
      <point x="355" y="432" type="qcurve"/>
      <point x="308" y="427"/>
      <point x="229" y="427"/>
      <point x="186" y="433" type="qcurve"/>
      <point x="182" y="485"/>
      <point x="179" y="551"/>
      <point x="179" y="591" type="qcurve"/>
      <point x="224" y="602"/>
      <point x="321" y="605"/>
    </contour>
    <contour>
      <point x="31" y="273" type="qcurve"/>
      <point x="31" y="307"/>
      <point x="35" y="362"/>
      <point x="39" y="394" type="qcurve"/>
      <point x="139" y="381"/>
      <point x="354" y="381"/>
      <point x="470" y="393" type="qcurve"/>
      <point x="470" y="362"/>
      <point x="461" y="302"/>
      <point x="453" y="273" type="qcurve"/>
      <point x="360" y="258"/>
      <point x="123" y="259"/>
    </contour>
    <contour>
      <point x="361" y="206" type="qcurve"/>
      <point x="359" y="158"/>
      <point x="352" y="79"/>
      <point x="346" y="40" type="qcurve"/>
      <point x="299" y="35"/>
      <point x="220" y="35"/>
      <point x="177" y="41" type="qcurve"/>
      <point x="173" y="93"/>
      <point x="170" y="159"/>
      <point x="170" y="199" type="qcurve"/>
      <point x="215" y="210"/>
      <point x="312" y="213"/>
    </contour>
  </outline>
</glyph>
<glyph name="oslash" format="1">
  <advance width="554"/>
  <unicode hex="00F8"/>
  <outline>
    <contour>
      <point x="303" y="423" type="qcurve"/>
      <point x="297" y="431"/>
      <point x="283" y="438"/>
      <point x="275" y="438" type="qcurve" smooth="yes"/>
      <point x="253" y="438"/>
      <point x="223" y="355"/>
      <point x="221" y="288" type="qcurve"/>
      <point x="254" y="344"/>
      <point x="288" y="399"/>
    </contour>
    <contour>
      <point x="253" y="114" type="qcurve"/>
      <point x="258" y="109"/>
      <point x="267" y="105"/>
      <point x="272" y="105" type="qcurve" smooth="yes"/>
      <point x="291" y="105"/>
      <point x="317" y="166"/>
      <point x="322" y="221" type="qcurve"/>
      <point x="294" y="176"/>
      <point x="265" y="132"/>
    </contour>
    <contour>
      <point x="450" y="101" type="qcurve" smooth="yes"/>
      <point x="410" y="46"/>
      <point x="299" y="-10"/>
      <point x="229" y="-10" type="qcurve" smooth="yes"/>
      <point x="214" y="-10"/>
      <point x="187" y="-7"/>
      <point x="174" y="-4" type="qcurve"/>
      <point x="157" y="-30"/>
      <point x="139" y="-56"/>
      <point x="131" y="-67" type="qcurve"/>
      <point x="110" y="-61"/>
      <point x="63" y="-32"/>
      <point x="38" y="-11" type="qcurve"/>
      <point x="42" y="-5"/>
      <point x="50" y="8"/>
      <point x="59" y="22" type="qcurve" smooth="yes"/>
      <point x="67" y="36"/>
      <point x="75" y="49"/>
      <point x="79" y="55" type="qcurve"/>
      <point x="53" y="88"/>
      <point x="25" y="179"/>
      <point x="25" y="233" type="qcurve" smooth="yes"/>
      <point x="25" y="374"/>
      <point x="188" y="553"/>
      <point x="318" y="553" type="qcurve" smooth="yes"/>
      <point x="334" y="553"/>
      <point x="364" y="550"/>
      <point x="377" y="547" type="qcurve"/>
      <point x="385" y="559"/>
      <point x="401" y="585"/>
      <point x="409" y="599" type="qcurve"/>
      <point x="445" y="583"/>
      <point x="486" y="555"/>
      <point x="510" y="531" type="qcurve"/>
      <point x="508" y="527"/>
      <point x="502" y="517"/>
      <point x="497" y="508" type="qcurve" smooth="yes"/>
      <point x="491" y="498"/>
      <point x="485" y="488"/>
      <point x="483" y="484" type="qcurve"/>
      <point x="503" y="458"/>
      <point x="524" y="386"/>
      <point x="524" y="342" type="qcurve" smooth="yes"/>
      <point x="524" y="279"/>
      <point x="485" y="149"/>
    </contour>
  </outline>
</glyph>
<glyph name="Aogonek" format="1">
  <advance width="673"/>
  <unicode hex="0104"/>
  <outline>
    <contour>
      <point x="650" y="-237" type="qcurve"/>
      <point x="627" y="-267"/>
      <point x="564" y="-298"/>
      <point x="526" y="-298" type="qcurve" smooth="yes"/>
      <point x="478" y="-298"/>
      <point x="420" y="-255"/>
      <point x="420" y="-219" type="qcurve" smooth="yes"/>
      <point x="420" y="-189"/>
      <point x="446" y="-140"/>
      <point x="473" y="-117" type="qcurve"/>
      <point x="466" y="-51"/>
      <point x="444" y="80"/>
      <point x="430" y="142" type="qcurve"/>
      <point x="366" y="141"/>
      <point x="264" y="135"/>
      <point x="219" y="129" type="qcurve"/>
      <point x="203" y="84"/>
      <point x="169" y="2"/>
      <point x="152" y="-32" type="qcurve"/>
      <point x="103" y="-24"/>
      <point x="16" y="23"/>
      <point x="-9" y="55" type="qcurve"/>
      <point x="68" y="198"/>
      <point x="182" y="489"/>
      <point x="244" y="710" type="qcurve"/>
      <point x="293" y="710"/>
      <point x="372" y="701"/>
      <point x="420" y="689" type="qcurve"/>
      <point x="507" y="551"/>
      <point x="635" y="171"/>
      <point x="672" y="-55" type="qcurve"/>
      <point x="652" y="-68"/>
      <point x="604" y="-89"/>
      <point x="577" y="-97" type="qcurve"/>
      <point x="555" y="-115"/>
      <point x="529" y="-164"/>
      <point x="529" y="-186" type="qcurve" smooth="yes"/>
      <point x="529" y="-201"/>
      <point x="543" y="-219"/>
      <point x="556" y="-219" type="qcurve" smooth="yes"/>
      <point x="571" y="-219"/>
      <point x="599" y="-200"/>
      <point x="612" y="-180" type="qcurve"/>
      <point x="622" y="-188"/>
      <point x="641" y="-216"/>
    </contour>
    <contour>
      <point x="327" y="481" type="qcurve"/>
      <point x="314" y="432"/>
      <point x="282" y="322"/>
      <point x="264" y="265" type="qcurve"/>
      <point x="298" y="270"/>
      <point x="363" y="276"/>
      <point x="396" y="277" type="qcurve"/>
      <point x="379" y="333"/>
      <point x="345" y="435"/>
    </contour>
  </outline>
</glyph>
<glyph name="eogonek" format="1">
  <advance width="545"/>
  <unicode hex="0119"/>
  <outline>
    <contour>
      <point x="242" y="311" type="qcurve"/>
      <point x="254" y="308"/>
      <point x="277" y="305"/>
      <point x="285" y="305" type="qcurve" smooth="yes"/>
      <point x="293" y="305"/>
      <point x="314" y="306"/>
      <point x="318" y="307" type="qcurve"/>
      <point x="324" y="331"/>
      <point x="331" y="373"/>
      <point x="331" y="390" type="qcurve" smooth="yes"/>
      <point x="331" y="411"/>
      <point x="320" y="431"/>
      <point x="309" y="431" type="qcurve" smooth="yes"/>
      <point x="289" y="431"/>
      <point x="253" y="366"/>
    </contour>
    <contour>
      <point x="449" y="-98" type="qcurve"/>
      <point x="459" y="-106"/>
      <point x="478" y="-134"/>
      <point x="487" y="-155" type="qcurve"/>
      <point x="464" y="-185"/>
      <point x="401" y="-216"/>
      <point x="363" y="-216" type="qcurve" smooth="yes"/>
      <point x="315" y="-216"/>
      <point x="257" y="-173"/>
      <point x="257" y="-137" type="qcurve" smooth="yes"/>
      <point x="257" y="-113"/>
      <point x="273" y="-72"/>
      <point x="290" y="-54" type="qcurve"/>
      <point x="276" y="-55"/>
      <point x="259" y="-56"/>
      <point x="251" y="-56" type="qcurve" smooth="yes"/>
      <point x="147" y="-56"/>
      <point x="30" y="65"/>
      <point x="30" y="169" type="qcurve" smooth="yes"/>
      <point x="30" y="234"/>
      <point x="71" y="359"/>
      <point x="109" y="410" type="qcurve" smooth="yes"/>
      <point x="152" y="467"/>
      <point x="264" y="531"/>
      <point x="323" y="531" type="qcurve" smooth="yes"/>
      <point x="407" y="531"/>
      <point x="507" y="446"/>
      <point x="507" y="375" type="qcurve" smooth="yes"/>
      <point x="507" y="343"/>
      <point x="494" y="266"/>
      <point x="484" y="238" type="qcurve"/>
      <point x="453" y="223"/>
      <point x="362" y="208"/>
      <point x="299" y="208" type="qcurve" smooth="yes"/>
      <point x="281" y="208"/>
      <point x="246" y="212"/>
      <point x="229" y="215" type="qcurve"/>
      <point x="228" y="209"/>
      <point x="228" y="194"/>
      <point x="228" y="179" type="qcurve" smooth="yes"/>
      <point x="228" y="119"/>
      <point x="259" y="55"/>
      <point x="288" y="55" type="qcurve" smooth="yes"/>
      <point x="307" y="55"/>
      <point x="351" y="117"/>
      <point x="363" y="157" type="qcurve"/>
      <point x="401" y="150"/>
      <point x="480" y="109"/>
      <point x="505" y="83" type="qcurve"/>
      <point x="493" y="53"/>
      <point x="459" y="15"/>
      <point x="429" y="-4" type="qcurve" smooth="yes"/>
      <point x="401" y="-22"/>
      <point x="366" y="-78"/>
      <point x="366" y="-104" type="qcurve" smooth="yes"/>
      <point x="366" y="-119"/>
      <point x="380" y="-137"/>
      <point x="393" y="-137" type="qcurve" smooth="yes"/>
      <point x="408" y="-137"/>
      <point x="436" y="-118"/>
    </contour>
  </outline>
</glyph>
<glyph name="Lslash" format="1">
  <advance width="533"/>
  <unicode hex="0141"/>
  <outline>
    <contour>
      <point x="538" y="-73" type="qcurve"/>
      <point x="439" y="-73"/>
      <point x="258" y="-87"/>
      <point x="123" y="-106" type="qcurve"/>
      <point x="119" y="-81"/>
      <point x="110" y="-12"/>
      <point x="97" y="94" type="qcurve"/>
      <point x="92" y="91"/>
      <point x="80" y="83"/>
      <point x="67" y="75" type="qcurve" smooth="yes"/>
      <point x="47" y="63"/>
      <point x="27" y="50"/>
      <point x="18" y="45" type="qcurve"/>
      <point x="-9" y="70"/>
      <point x="-39" y="115"/>
      <point x="-51" y="150" type="qcurve"/>
      <point x="-19" y="170"/>
      <point x="48" y="215"/>
      <point x="83" y="239" type="qcurve"/>
      <point x="73" y="363"/>
      <point x="62" y="575"/>
      <point x="62" y="652" type="qcurve"/>
      <point x="108" y="664"/>
      <point x="197" y="676"/>
      <point x="241" y="676" type="qcurve" smooth="yes"/>
      <point x="254" y="676"/>
      <point x="279" y="675"/>
      <point x="293" y="673" type="qcurve"/>
      <point x="285" y="627"/>
      <point x="276" y="472"/>
      <point x="275" y="376" type="qcurve"/>
      <point x="319" y="408"/>
      <point x="389" y="461"/>
      <point x="420" y="486" type="qcurve"/>
      <point x="442" y="468"/>
      <point x="483" y="402"/>
      <point x="494" y="367" type="qcurve"/>
      <point x="440" y="326"/>
      <point x="330" y="249"/>
      <point x="276" y="212" type="qcurve"/>
      <point x="278" y="161"/>
      <point x="285" y="80"/>
      <point x="290" y="47" type="qcurve"/>
      <point x="346" y="63"/>
      <point x="465" y="81"/>
      <point x="515" y="81" type="qcurve"/>
      <point x="523" y="55"/>
      <point x="538" y="-40"/>
    </contour>
  </outline>
</glyph>
<glyph name="lslash" format="1">
  <advance width="316"/>
  <unicode hex="0142"/>
  <outline>
    <contour>
      <point x="256" y="-42" type="qcurve"/>
      <point x="230" y="-50"/>
      <point x="127" y="-62"/>
      <point x="85" y="-62" type="qcurve"/>
      <point x="78" y="23"/>
      <point x="72" y="113"/>
      <point x="69" y="153" type="qcurve"/>
      <point x="48" y="139"/>
      <point x="8" y="112"/>
      <point x="-11" y="100" type="qcurve"/>
      <point x="-38" y="125"/>
      <point x="-68" y="170"/>
      <point x="-80" y="205" type="qcurve"/>
      <point x="-44" y="230"/>
      <point x="27" y="279"/>
      <point x="61" y="304" type="qcurve"/>
      <point x="56" y="411"/>
      <point x="50" y="619"/>
      <point x="50" y="708" type="qcurve"/>
      <point x="73" y="724"/>
      <point x="142" y="742"/>
      <point x="179" y="742" type="qcurve" smooth="yes"/>
      <point x="207" y="742"/>
      <point x="253" y="736"/>
      <point x="276" y="730" type="qcurve"/>
      <point x="272" y="687"/>
      <point x="266" y="551"/>
      <point x="263" y="454" type="qcurve"/>
      <point x="271" y="460"/>
      <point x="289" y="474"/>
      <point x="307" y="489" type="qcurve" smooth="yes"/>
      <point x="325" y="504"/>
      <point x="343" y="518"/>
      <point x="351" y="524" type="qcurve"/>
      <point x="373" y="506"/>
      <point x="414" y="440"/>
      <point x="425" y="405" type="qcurve"/>
      <point x="386" y="376"/>
      <point x="303" y="316"/>
      <point x="259" y="284" type="qcurve"/>
      <point x="258" y="195"/>
      <point x="256" y="22"/>
    </contour>
  </outline>
</glyph>
<glyph name="oe" format="1">
  <advance width="822"/>
  <unicode hex="0153"/>
  <outline>
    <contour>
      <point x="519" y="311" type="qcurve"/>
      <point x="531" y="308"/>
      <point x="554" y="305"/>
      <point x="562" y="305" type="qcurve" smooth="yes"/>
      <point x="570" y="305"/>
      <point x="591" y="306"/>
      <point x="595" y="307" type="qcurve"/>
      <point x="601" y="331"/>
      <point x="608" y="373"/>
      <point x="608" y="390" type="qcurve" smooth="yes"/>
      <point x="608" y="411"/>
      <point x="597" y="431"/>
      <point x="586" y="431" type="qcurve" smooth="yes"/>
      <point x="566" y="431"/>
      <point x="530" y="366"/>
    </contour>
    <contour>
      <point x="265" y="80" type="qcurve" smooth="yes"/>
      <point x="290" y="80"/>
      <point x="318" y="181"/>
      <point x="318" y="262" type="qcurve" smooth="yes"/>
      <point x="318" y="340"/>
      <point x="294" y="413"/>
      <point x="268" y="413" type="qcurve" smooth="yes"/>
      <point x="244" y="413"/>
      <point x="213" y="315"/>
      <point x="213" y="236" type="qcurve" smooth="yes"/>
      <point x="213" y="171"/>
      <point x="241" y="80"/>
    </contour>
    <contour>
      <point x="640" y="157" type="qcurve"/>
      <point x="678" y="150"/>
      <point x="757" y="109"/>
      <point x="782" y="83" type="qcurve"/>
      <point x="766" y="32"/>
      <point x="622" y="-56"/>
      <point x="547" y="-56" type="qcurve" smooth="yes"/>
      <point x="490" y="-56"/>
      <point x="403" y="-13"/>
      <point x="374" y="29" type="qcurve"/>
      <point x="339" y="-4"/>
      <point x="263" y="-35"/>
      <point x="219" y="-35" type="qcurve"/>
      <point x="125" y="-35"/>
      <point x="18" y="96"/>
      <point x="18" y="208" type="qcurve" smooth="yes"/>
      <point x="18" y="347"/>
      <point x="176" y="528"/>
      <point x="297" y="528" type="qcurve" smooth="yes"/>
      <point x="342" y="528"/>
      <point x="419" y="495"/>
      <point x="449" y="463" type="qcurve"/>
      <point x="484" y="496"/>
      <point x="567" y="531"/>
      <point x="609" y="531" type="qcurve" smooth="yes"/>
      <point x="688" y="531"/>
      <point x="784" y="445"/>
      <point x="784" y="375" type="qcurve" smooth="yes"/>
      <point x="784" y="343"/>
      <point x="771" y="266"/>
      <point x="761" y="238" type="qcurve"/>
      <point x="730" y="223"/>
      <point x="639" y="208"/>
      <point x="576" y="208" type="qcurve" smooth="yes"/>
      <point x="558" y="208"/>
      <point x="523" y="212"/>
      <point x="506" y="215" type="qcurve"/>
      <point x="505" y="209"/>
      <point x="505" y="194"/>
      <point x="505" y="179" type="qcurve" smooth="yes"/>
      <point x="505" y="119"/>
      <point x="536" y="55"/>
      <point x="565" y="55" type="qcurve" smooth="yes"/>
      <point x="584" y="55"/>
      <point x="628" y="117"/>
    </contour>
  </outline>
</glyph>
<glyph name="caron" format="1">
  <advance width="260"/>
  <unicode hex="02C7"/>
  <outline>
    <component base="circumflex" xScale="-1" yScale="-1" xOffset="251" yOffset="1317"/>
    <contour>
      <point x="138" y="560" type="move" name="_top"/>
    </contour>
  </outline>
</glyph>
<glyph name="ring" format="1">
  <advance width="260"/>
  <unicode hex="02DA"/>
  <outline>
    <contour>
      <point x="20" y="662" type="qcurve" smooth="yes"/>
      <point x="20" y="711"/>
      <point x="91" y="770"/>
      <point x="146" y="770" type="qcurve" smooth="yes"/>
      <point x="190" y="770"/>
      <point x="239" y="728"/>
      <point x="239" y="690" type="qcurve" smooth="yes"/>
      <point x="239" y="639"/>
      <point x="169" y="573"/>
      <point x="112" y="573" type="qcurve" smooth="yes"/>
      <point x="69" y="573"/>
      <point x="20" y="621"/>
    </contour>
    <contour>
      <point x="149" y="677" type="qcurve" smooth="yes"/>
      <point x="149" y="702"/>
      <point x="140" y="723"/>
      <point x="130" y="723" type="qcurve" smooth="yes"/>
      <point x="120" y="723"/>
      <point x="108" y="693"/>
      <point x="108" y="667" type="qcurve" smooth="yes"/>
      <point x="108" y="646"/>
      <point x="118" y="623"/>
      <point x="127" y="623" type="qcurve" smooth="yes"/>
      <point x="138" y="623"/>
      <point x="149" y="651"/>
    </contour>
    <contour>
      <point x="130.0" y="560.0" type="move" name="_top"/>
    </contour>
  </outline>
</glyph>
<glyph name="tilde" format="1">
  <advance width="260"/>
  <unicode hex="02DC"/>
  <outline>
    <contour>
      <point x="121" y="721" type="qcurve" smooth="yes"/>
      <point x="141" y="711"/>
      <point x="163" y="705"/>
      <point x="173" y="705" type="qcurve" smooth="yes"/>
      <point x="189" y="705"/>
      <point x="205" y="725"/>
      <point x="204" y="744" type="qcurve"/>
      <point x="223" y="745"/>
      <point x="259" y="741"/>
      <point x="271" y="735" type="qcurve"/>
      <point x="276" y="678"/>
      <point x="233" y="609"/>
      <point x="193" y="609" type="qcurve" smooth="yes"/>
      <point x="180" y="609"/>
      <point x="153" y="616"/>
      <point x="131" y="627" type="qcurve" smooth="yes"/>
      <point x="112" y="636"/>
      <point x="94" y="641"/>
      <point x="86" y="641" type="qcurve" smooth="yes"/>
      <point x="70" y="641"/>
      <point x="54" y="621"/>
      <point x="55" y="602" type="qcurve"/>
      <point x="41" y="601"/>
      <point x="2" y="606"/>
      <point x="-12" y="611" type="qcurve"/>
      <point x="-17" y="668"/>
      <point x="25" y="737"/>
      <point x="66" y="737" type="qcurve" smooth="yes"/>
      <point x="77" y="737"/>
      <point x="100" y="731"/>
    </contour>
    <contour>
      <point x="130.0" y="560.0" type="move" name="_top"/>
    </contour>
  </outline>
</glyph>
<glyph name="pi" format="1">
  <advance width="783.0"/>
  <unicode hex="03C0"/>
  <outline>
    <contour>
      <point x="330" y="295" type="qcurve" smooth="yes"/>
      <point x="329" y="224"/>
      <point x="316" y="91"/>
      <point x="302" y="9" type="qcurve"/>
      <point x="268" y="-5"/>
      <point x="140" y="-4"/>
      <point x="88" y="11" type="qcurve"/>
      <point x="114" y="104"/>
      <point x="138" y="215"/>
      <point x="146" y="282" type="qcurve" smooth="yes"/>
      <point x="149" y="307"/>
      <point x="154" y="355"/>
      <point x="156" y="379" type="qcurve"/>
      <point x="109" y="376"/>
      <point x="46" y="370"/>
      <point x="28" y="367" type="qcurve"/>
      <point x="14" y="430"/>
      <point x="25" y="554"/>
      <point x="47" y="595" type="qcurve"/>
      <point x="176" y="595"/>
      <point x="634" y="570"/>
      <point x="729" y="557" type="qcurve"/>
      <point x="729" y="516"/>
      <point x="717" y="420"/>
      <point x="709" y="392" type="qcurve"/>
      <point x="698" y="392"/>
      <point x="667" y="393"/>
      <point x="634" y="394" type="qcurve" smooth="yes"/>
      <point x="616" y="394"/>
      <point x="598" y="395"/>
      <point x="591" y="395" type="qcurve"/>
      <point x="587" y="361"/>
      <point x="582" y="293"/>
      <point x="582" y="261" type="qcurve" smooth="yes"/>
      <point x="582" y="177"/>
      <point x="594" y="118"/>
      <point x="608" y="118" type="qcurve" smooth="yes"/>
      <point x="617" y="118"/>
      <point x="631" y="179"/>
      <point x="632" y="232" type="qcurve"/>
      <point x="666" y="228"/>
      <point x="737" y="200"/>
      <point x="765" y="178" type="qcurve"/>
      <point x="765" y="106"/>
      <point x="675" y="6"/>
      <point x="595" y="6" type="qcurve" smooth="yes"/>
      <point x="494" y="6"/>
      <point x="383" y="149"/>
      <point x="383" y="285" type="qcurve" smooth="yes"/>
      <point x="383" y="312"/>
      <point x="385" y="366"/>
      <point x="386" y="391" type="qcurve"/>
      <point x="377" y="391"/>
      <point x="353" y="390"/>
      <point x="330" y="389" type="qcurve"/>
      <point x="331" y="367"/>
      <point x="331" y="320"/>
    </contour>
  </outline>
</glyph>
<glyph name="bn_chandrabindu" format="1">
  <advance width="0"/>
  <unicode hex="0981"/>
  <outline>
    <contour>
      <point x="7" y="968" type="qcurve" smooth="yes"/>
      <point x="35" y="968"/>
      <point x="71" y="930"/>
      <point x="71" y="902" type="qcurve" smooth="yes"/>
      <point x="71" y="876"/>
      <point x="34" y="838"/>
      <point x="9" y="838" type="qcurve" smooth="yes"/>
      <point x="-19" y="838"/>
      <point x="-55" y="875"/>
      <point x="-55" y="902" type="qcurve" smooth="yes"/>
      <point x="-55" y="930"/>
      <point x="-19" y="968"/>
    </contour>
    <contour>
      <point x="94" y="872" type="qcurve"/>
      <point x="170" y="848" type="line"/>
      <point x="157" y="777"/>
      <point x="55" y="686"/>
      <point x="-12" y="686" type="qcurve" smooth="yes"/>
      <point x="-78" y="686"/>
      <point x="-173" y="769"/>
      <point x="-178" y="832" type="qcurve"/>
      <point x="-70" y="859" type="line"/>
      <point x="-64" y="836"/>
      <point x="-17" y="804"/>
      <point x="10" y="804" type="qcurve" smooth="yes"/>
      <point x="40" y="804"/>
      <point x="84" y="840"/>
    </contour>
    <contour>
      <point x="0" y="665" type="move" name="_chandrabindu"/>
    </contour>
  </outline>
</glyph>
<glyph name="bn_anusvar" format="1">
  <advance width="459"/>
  <unicode hex="0982"/>
  <outline>
    <contour>
      <point x="237" y="648" type="qcurve" smooth="yes"/>
      <point x="305" y="648"/>
      <point x="394" y="560"/>
      <point x="393" y="493" type="qcurve" smooth="yes"/>
      <point x="391" y="421"/>
      <point x="286" y="320"/>
      <point x="213" y="320" type="qcurve" smooth="yes"/>
      <point x="146" y="320"/>
      <point x="57" y="408"/>
      <point x="58" y="472" type="qcurve" smooth="yes"/>
      <point x="60" y="546"/>
      <point x="163" y="648"/>
    </contour>
    <contour>
      <point x="206" y="546" type="qcurve" smooth="yes"/>
      <point x="186" y="546"/>
      <point x="161" y="524"/>
      <point x="161" y="505" type="qcurve" smooth="yes"/>
      <point x="161" y="472"/>
      <point x="213" y="423"/>
      <point x="246" y="423" type="qcurve" smooth="yes"/>
      <point x="266" y="423"/>
      <point x="290" y="444"/>
      <point x="290" y="461" type="qcurve" smooth="yes"/>
      <point x="290" y="495"/>
      <point x="239" y="546"/>
    </contour>
    <contour>
      <point x="77" y="327" type="qcurve"/>
      <point x="185" y="289"/>
      <point x="396" y="117"/>
      <point x="444" y="28" type="qcurve"/>
      <point x="431" y="0"/>
      <point x="380" y="-49"/>
      <point x="350" y="-63" type="qcurve"/>
      <point x="299" y="24"/>
      <point x="105" y="158"/>
      <point x="-1" y="183" type="qcurve"/>
      <point x="13" y="227"/>
      <point x="52" y="299"/>
    </contour>
  </outline>
</glyph>
<glyph name="bn_a" format="1">
  <advance width="748"/>
  <unicode hex="0985"/>
  <note>
    uni0985
  </note>
  <outline>
    <contour>
      <point x="664" y="344" type="qcurve" smooth="yes"/>
      <point x="664" y="240"/>
      <point x="632" y="27"/>
      <point x="606" y="-39" type="qcurve"/>
      <point x="572" y="-39"/>
      <point x="493" y="-26"/>
      <point x="471" y="-16" type="qcurve"/>
      <point x="455" y="8"/>
      <point x="417" y="51"/>
      <point x="396" y="70" type="qcurve"/>
      <point x="377" y="56"/>
      <point x="331" y="41"/>
      <point x="306" y="41" type="qcurve" smooth="yes"/>
      <point x="206" y="41"/>
      <point x="54" y="224"/>
      <point x="4" y="406" type="qcurve"/>
      <point x="27" y="420"/>
      <point x="69" y="440"/>
      <point x="89" y="446" type="qcurve"/>
      <point x="128" y="343"/>
      <point x="238" y="214"/>
      <point x="286" y="214" type="qcurve" smooth="yes"/>
      <point x="322" y="214"/>
      <point x="359" y="261"/>
      <point x="359" y="307" type="qcurve" smooth="yes"/>
      <point x="359" y="343"/>
      <point x="336" y="385"/>
      <point x="317" y="385" type="qcurve" smooth="yes"/>
      <point x="307" y="385"/>
      <point x="294" y="366"/>
      <point x="294" y="351" type="qcurve" smooth="yes"/>
      <point x="294" y="339"/>
      <point x="300" y="316"/>
      <point x="306" y="301" type="qcurve"/>
      <point x="273" y="301"/>
      <point x="199" y="314"/>
      <point x="177" y="324" type="qcurve"/>
      <point x="173" y="340"/>
      <point x="170" y="361"/>
      <point x="170" y="374" type="qcurve" smooth="yes"/>
      <point x="170" y="427"/>
      <point x="234" y="501"/>
      <point x="281" y="501" type="qcurve" smooth="yes"/>
      <point x="361" y="501"/>
      <point x="468" y="344"/>
      <point x="468" y="236" type="qcurve" smooth="yes"/>
      <point x="468" y="215"/>
      <point x="461" y="173"/>
      <point x="455" y="153" type="qcurve"/>
      <point x="470" y="131"/>
      <point x="490" y="98"/>
      <point x="498" y="83" type="qcurve"/>
      <point x="506" y="120"/>
      <point x="513" y="214"/>
      <point x="513" y="282" type="qcurve" smooth="yes"/>
      <point x="513" y="370"/>
      <point x="506" y="487"/>
      <point x="498" y="534" type="qcurve"/>
      <point x="462" y="535"/>
      <point x="419" y="536"/>
      <point x="400" y="536" type="qcurve" smooth="yes"/>
      <point x="293" y="536"/>
      <point x="87" y="519"/>
      <point x="0" y="504" type="qcurve"/>
      <point x="-5" y="518"/>
      <point x="-10" y="560"/>
      <point x="-10" y="581" type="qcurve" smooth="yes"/>
      <point x="-10" y="600"/>
      <point x="-5" y="630"/>
      <point x="0" y="639" type="qcurve"/>
      <point x="78" y="656"/>
      <point x="291" y="675"/>
      <point x="405" y="675" type="qcurve" smooth="yes"/>
      <point x="506" y="675"/>
      <point x="684" y="656"/>
      <point x="748" y="639" type="qcurve"/>
      <point x="752" y="628"/>
      <point x="756" y="597"/>
      <point x="756" y="577" type="qcurve" smooth="yes"/>
      <point x="756" y="557"/>
      <point x="752" y="518"/>
      <point x="748" y="504" type="qcurve"/>
      <point x="730" y="508"/>
      <point x="686" y="516"/>
      <point x="655" y="520" type="qcurve"/>
      <point x="661" y="438"/>
      <point x="664" y="373"/>
    </contour>
    <contour>
      <point x="390" y="690" type="move" name="chandrabindu"/>
    </contour>
  </outline>
</glyph>
<glyph name="bn_i" format="1">
  <advance width="526"/>
  <unicode hex="0987"/>
  <outline>
    <contour>
      <point x="535" y="578" type="qcurve" smooth="yes"/>
      <point x="535" y="558"/>
      <point x="530" y="518"/>
      <point x="526" y="504" type="qcurve"/>
      <point x="474" y="516"/>
      <point x="334" y="531"/>
      <point x="262" y="531" type="qcurve" smooth="yes"/>
      <point x="194" y="531"/>
      <point x="63" y="518"/>
      <point x="0" y="504" type="qcurve"/>
      <point x="-5" y="519"/>
      <point x="-10" y="561"/>
      <point x="-10" y="581" type="qcurve" smooth="yes"/>
      <point x="-10" y="600"/>
      <point x="-5" y="630"/>
      <point x="0" y="639" type="qcurve"/>
      <point x="57" y="654"/>
      <point x="192" y="670"/>
      <point x="265" y="670" type="qcurve" smooth="yes"/>
      <point x="308" y="670"/>
      <point x="396" y="664"/>
      <point x="437" y="658" type="qcurve"/>
      <point x="421" y="695"/>
      <point x="371" y="730"/>
      <point x="334" y="730" type="qcurve" smooth="yes"/>
      <point x="319" y="730"/>
      <point x="280" y="724"/>
      <point x="237" y="714" type="qcurve" smooth="yes"/>
      <point x="191" y="704"/>
      <point x="148" y="697"/>
      <point x="131" y="697" type="qcurve" smooth="yes"/>
      <point x="79" y="697"/>
      <point x="-8" y="760"/>
      <point x="-43" y="823" type="qcurve"/>
      <point x="-28" y="846"/>
      <point x="13" y="891"/>
      <point x="38" y="910" type="qcurve"/>
      <point x="65" y="861"/>
      <point x="114" y="824"/>
      <point x="144" y="824" type="qcurve" smooth="yes"/>
      <point x="156" y="824"/>
      <point x="190" y="830"/>
      <point x="229" y="839" type="qcurve" smooth="yes"/>
      <point x="276" y="850"/>
      <point x="320" y="857"/>
      <point x="337" y="857" type="qcurve" smooth="yes"/>
      <point x="408" y="857"/>
      <point x="507" y="741"/>
      <point x="526" y="639" type="qcurve"/>
      <point x="530" y="628"/>
      <point x="535" y="596"/>
    </contour>
    <contour>
      <point x="533" y="-62" type="qcurve"/>
      <point x="513" y="-88"/>
      <point x="471" y="-132"/>
      <point x="449" y="-150" type="qcurve"/>
      <point x="354" y="-55"/>
      <point x="158" y="71"/>
      <point x="56" y="104" type="qcurve"/>
      <point x="36" y="279" type="line"/>
      <point x="81" y="266"/>
      <point x="170" y="252"/>
      <point x="210" y="252" type="qcurve" smooth="yes"/>
      <point x="267" y="252"/>
      <point x="319" y="282"/>
      <point x="319" y="315" type="qcurve" smooth="yes"/>
      <point x="319" y="345"/>
      <point x="284" y="388"/>
      <point x="260" y="388" type="qcurve" smooth="yes"/>
      <point x="248" y="388"/>
      <point x="235" y="375"/>
      <point x="235" y="362" type="qcurve" smooth="yes"/>
      <point x="235" y="356"/>
      <point x="239" y="345"/>
      <point x="250" y="333" type="qcurve"/>
      <point x="224" y="316"/>
      <point x="146" y="293"/>
      <point x="112" y="293" type="qcurve"/>
      <point x="99" y="310"/>
      <point x="86" y="353"/>
      <point x="86" y="377" type="qcurve" smooth="yes"/>
      <point x="86" y="434"/>
      <point x="157" y="500"/>
      <point x="215" y="500" type="qcurve" smooth="yes"/>
      <point x="308" y="500"/>
      <point x="466" y="339"/>
      <point x="466" y="245" type="qcurve" smooth="yes"/>
      <point x="466" y="185"/>
      <point x="392" y="109"/>
      <point x="323" y="96" type="qcurve"/>
      <point x="372" y="63"/>
      <point x="476" y="-16"/>
    </contour>
    <contour>
      <point x="242" y="860" type="move" name="chandrabindu"/>
    </contour>
  </outline>
</glyph>
<glyph name="bn_ii" format="1">
  <advance width="628"/>
  <unicode hex="0988"/>
  <outline>
    <contour>
      <point x="637" y="578" type="qcurve" smooth="yes"/>
      <point x="637" y="558"/>
      <point x="632" y="518"/>
      <point x="628" y="504" type="qcurve"/>
      <point x="571" y="515"/>
      <point x="399" y="530"/>
      <point x="313" y="530" type="qcurve" smooth="yes"/>
      <point x="232" y="530"/>
      <point x="78" y="517"/>
      <point x="0" y="504" type="qcurve"/>
      <point x="-5" y="519"/>
      <point x="-10" y="561"/>
      <point x="-10" y="581" type="qcurve" smooth="yes"/>
      <point x="-10" y="600"/>
      <point x="-5" y="630"/>
      <point x="0" y="639" type="qcurve"/>
      <point x="70" y="654"/>
      <point x="229" y="669"/>
      <point x="316" y="669" type="qcurve" smooth="yes"/>
      <point x="373" y="669"/>
      <point x="489" y="662"/>
      <point x="541" y="655" type="qcurve"/>
      <point x="525" y="693"/>
      <point x="473" y="730"/>
      <point x="436" y="730" type="qcurve" smooth="yes"/>
      <point x="421" y="730"/>
      <point x="382" y="725"/>
      <point x="339" y="716" type="qcurve" smooth="yes"/>
      <point x="293" y="708"/>
      <point x="250" y="702"/>
      <point x="233" y="702" type="qcurve" smooth="yes"/>
      <point x="181" y="702"/>
      <point x="94" y="762"/>
      <point x="59" y="823" type="qcurve"/>
      <point x="73" y="844"/>
      <point x="114" y="885"/>
      <point x="141" y="905" type="qcurve"/>
      <point x="168" y="861"/>
      <point x="216" y="829"/>
      <point x="246" y="829" type="qcurve" smooth="yes"/>
      <point x="258" y="829"/>
      <point x="292" y="834"/>
      <point x="331" y="842" type="qcurve" smooth="yes"/>
      <point x="378" y="851"/>
      <point x="422" y="857"/>
      <point x="439" y="857" type="qcurve" smooth="yes"/>
      <point x="510" y="857"/>
      <point x="609" y="741"/>
      <point x="628" y="639" type="qcurve"/>
      <point x="632" y="628"/>
      <point x="637" y="596"/>
    </contour>
    <contour>
      <point x="589" y="-14" type="qcurve"/>
      <point x="571" y="-22"/>
      <point x="487" y="-37"/>
      <point x="461" y="-37" type="qcurve"/>
      <point x="443" y="31"/>
      <point x="443" y="191"/>
      <point x="460" y="270" type="qcurve"/>
      <point x="405" y="150"/>
      <point x="274" y="38"/>
      <point x="186" y="38" type="qcurve" smooth="yes"/>
      <point x="160" y="38"/>
      <point x="112" y="49"/>
      <point x="89" y="60" type="qcurve"/>
      <point x="69" y="227" type="line"/>
      <point x="95" y="218"/>
      <point x="152" y="209"/>
      <point x="175" y="209" type="qcurve" smooth="yes"/>
      <point x="213" y="209"/>
      <point x="256" y="248"/>
      <point x="256" y="283" type="qcurve" smooth="yes"/>
      <point x="256" y="324"/>
      <point x="218" y="382"/>
      <point x="192" y="382" type="qcurve" smooth="yes"/>
      <point x="181" y="382"/>
      <point x="168" y="369"/>
      <point x="168" y="358" type="qcurve" smooth="yes"/>
      <point x="168" y="348"/>
      <point x="180" y="331"/>
      <point x="197" y="318" type="qcurve"/>
      <point x="174" y="294"/>
      <point x="110" y="261"/>
      <point x="83" y="261" type="qcurve"/>
      <point x="62" y="283"/>
      <point x="40" y="342"/>
      <point x="40" y="377" type="qcurve" smooth="yes"/>
      <point x="40" y="431"/>
      <point x="106" y="494"/>
      <point x="161" y="494" type="qcurve" smooth="yes"/>
      <point x="221" y="494"/>
      <point x="325" y="424"/>
      <point x="354" y="364" type="qcurve"/>
      <point x="392" y="411"/>
      <point x="441" y="467"/>
      <point x="452" y="476" type="qcurve"/>
      <point x="495" y="462"/>
      <point x="565" y="416"/>
      <point x="600" y="378" type="qcurve"/>
      <point x="570" y="278"/>
      <point x="565" y="89"/>
    </contour>
    <contour>
      <point x="313" y="860" type="move" name="chandrabindu"/>
    </contour>
  </outline>
</glyph>
<glyph name="bn_uu" format="1">
  <advance width="702"/>
  <unicode hex="098A"/>
  <outline>
    <contour>
      <point x="681" y="218" type="qcurve" smooth="yes"/>
      <point x="681" y="94"/>
      <point x="554" y="-45"/>
      <point x="439" y="-45" type="qcurve" smooth="yes"/>
      <point x="294" y="-45"/>
      <point x="71" y="179"/>
      <point x="6" y="384" type="qcurve"/>
      <point x="26" y="394"/>
      <point x="67" y="409"/>
      <point x="89" y="415" type="qcurve"/>
      <point x="122" y="322"/>
      <point x="206" y="180"/>
      <point x="259" y="128" type="qcurve"/>
      <point x="222" y="182"/>
      <point x="159" y="328"/>
      <point x="130" y="430" type="qcurve"/>
      <point x="146" y="439"/>
      <point x="190" y="455"/>
      <point x="213" y="461" type="qcurve"/>
      <point x="277" y="260"/>
      <point x="387" y="122"/>
      <point x="466" y="122" type="qcurve" smooth="yes"/>
      <point x="525" y="122"/>
      <point x="583" y="186"/>
      <point x="583" y="251" type="qcurve"/>
      <point x="561" y="224"/>
      <point x="508" y="198"/>
      <point x="475" y="198" type="qcurve" smooth="yes"/>
      <point x="400" y="198"/>
      <point x="298" y="333"/>
      <point x="298" y="419" type="qcurve" smooth="yes"/>
      <point x="298" y="437"/>
      <point x="304" y="495"/>
      <point x="310" y="532" type="qcurve"/>
      <point x="222" y="530"/>
      <point x="69" y="516"/>
      <point x="0" y="504" type="qcurve"/>
      <point x="-5" y="516"/>
      <point x="-11" y="561"/>
      <point x="-11" y="582" type="qcurve" smooth="yes"/>
      <point x="-11" y="601"/>
      <point x="-5" y="630"/>
      <point x="0" y="639" type="qcurve"/>
      <point x="80" y="655"/>
      <point x="256" y="671"/>
      <point x="353" y="671" type="qcurve" smooth="yes"/>
      <point x="424" y="671"/>
      <point x="555" y="663"/>
      <point x="615" y="654" type="qcurve"/>
      <point x="599" y="693"/>
      <point x="548" y="730"/>
      <point x="510" y="730" type="qcurve" smooth="yes"/>
      <point x="493" y="730"/>
      <point x="447" y="725"/>
      <point x="396" y="716" type="qcurve" smooth="yes"/>
      <point x="340" y="706"/>
      <point x="287" y="700"/>
      <point x="267" y="700" type="qcurve" smooth="yes"/>
      <point x="214" y="700"/>
      <point x="123" y="763"/>
      <point x="89" y="823" type="qcurve"/>
      <point x="104" y="846"/>
      <point x="145" y="891"/>
      <point x="170" y="910" type="qcurve"/>
      <point x="196" y="866"/>
      <point x="248" y="827"/>
      <point x="280" y="827" type="qcurve" smooth="yes"/>
      <point x="294" y="827"/>
      <point x="337" y="832"/>
      <point x="386" y="841" type="qcurve" smooth="yes"/>
      <point x="442" y="851"/>
      <point x="494" y="857"/>
      <point x="513" y="857" type="qcurve" smooth="yes"/>
      <point x="584" y="857"/>
      <point x="683" y="741"/>
      <point x="702" y="639" type="qcurve"/>
      <point x="706" y="630"/>
      <point x="712" y="598"/>
      <point x="712" y="581" type="qcurve" smooth="yes"/>
      <point x="712" y="558"/>
      <point x="707" y="517"/>
      <point x="702" y="504" type="qcurve"/>
      <point x="651" y="513"/>
      <point x="534" y="526"/>
      <point x="466" y="530" type="qcurve"/>
      <point x="448" y="479"/>
      <point x="421" y="372"/>
      <point x="421" y="353" type="qcurve" smooth="yes"/>
      <point x="421" y="343"/>
      <point x="430" y="331"/>
      <point x="438" y="331" type="qcurve" smooth="yes"/>
      <point x="451" y="331"/>
      <point x="488" y="382"/>
      <point x="518" y="445" type="qcurve"/>
      <point x="548" y="438"/>
      <point x="614" y="415"/>
      <point x="642" y="402" type="qcurve"/>
      <point x="661" y="363"/>
      <point x="681" y="267"/>
    </contour>
    <contour>
      <point x="342" y="860" type="move" name="chandrabindu"/>
    </contour>
  </outline>
</glyph>
<glyph name="bn_ri" format="1">
  <advance width="800"/>
  <unicode hex="098B"/>
  <outline>
    <contour>
      <point x="245" y="227" type="qcurve"/>
      <point x="284" y="202"/>
      <point x="348" y="145"/>
      <point x="371" y="115" type="qcurve"/>
      <point x="372" y="155"/>
      <point x="382" y="248"/>
      <point x="390" y="301" type="qcurve"/>
      <point x="354" y="287"/>
      <point x="279" y="249"/>
    </contour>
    <contour>
      <point x="505" y="89" type="qcurve"/>
      <point x="505" y="56"/>
      <point x="507" y="-2"/>
      <point x="508" y="-27" type="qcurve"/>
      <point x="487" y="-32"/>
      <point x="425" y="-37"/>
      <point x="384" y="-36" type="qcurve"/>
      <point x="342" y="34"/>
      <point x="221" y="124"/>
      <point x="143" y="143" type="qcurve"/>
      <point x="113" y="196"/>
      <point x="90" y="272"/>
      <point x="90" y="316" type="qcurve"/>
      <point x="138" y="358"/>
      <point x="251" y="425"/>
      <point x="319" y="450" type="qcurve"/>
      <point x="318" y="462"/>
      <point x="311" y="486"/>
      <point x="305" y="498" type="qcurve"/>
      <point x="276" y="466"/>
      <point x="202" y="430"/>
      <point x="165" y="430" type="qcurve" smooth="yes"/>
      <point x="101" y="430"/>
      <point x="28" y="513"/>
      <point x="28" y="585" type="qcurve" smooth="yes"/>
      <point x="28" y="600"/>
      <point x="31" y="617"/>
      <point x="34" y="624" type="qcurve"/>
      <point x="60" y="641"/>
      <point x="132" y="657"/>
      <point x="174" y="656" type="qcurve"/>
      <point x="172" y="652"/>
      <point x="169" y="644"/>
      <point x="167" y="628" type="qcurve" smooth="yes"/>
      <point x="167" y="604"/>
      <point x="192" y="576"/>
      <point x="214" y="576" type="qcurve" smooth="yes"/>
      <point x="239" y="576"/>
      <point x="292" y="607"/>
      <point x="313" y="634" type="qcurve"/>
      <point x="384" y="583" type="line"/>
      <point x="393" y="560"/>
      <point x="403" y="507"/>
      <point x="404" y="478" type="qcurve"/>
      <point x="406" y="479"/>
      <point x="410" y="481"/>
      <point x="415" y="482" type="qcurve"/>
      <point x="419" y="528"/>
      <point x="435" y="621"/>
      <point x="446" y="666" type="qcurve"/>
      <point x="483" y="663"/>
      <point x="555" y="644"/>
      <point x="589" y="628" type="qcurve"/>
      <point x="553" y="530"/>
      <point x="513" y="325"/>
      <point x="507" y="210" type="qcurve"/>
      <point x="533" y="191"/>
      <point x="580" y="147"/>
      <point x="598" y="123" type="qcurve"/>
      <point x="596" y="148"/>
      <point x="594" y="203"/>
      <point x="594" y="231" type="qcurve" smooth="yes"/>
      <point x="594" y="342"/>
      <point x="627" y="541"/>
      <point x="663" y="641" type="qcurve"/>
      <point x="693" y="641"/>
      <point x="765" y="627"/>
      <point x="786" y="617" type="qcurve"/>
      <point x="759" y="555"/>
      <point x="724" y="396"/>
      <point x="724" y="332" type="qcurve" smooth="yes"/>
      <point x="724" y="253"/>
      <point x="751" y="80"/>
      <point x="774" y="14" type="qcurve"/>
      <point x="749" y="0"/>
      <point x="657" y="-15"/>
      <point x="617" y="-13" type="qcurve"/>
      <point x="593" y="20"/>
      <point x="537" y="71"/>
    </contour>
    <contour>
      <point x="469" y="690" type="move" name="chandrabindu"/>
    </contour>
  </outline>
</glyph>
<glyph name="bn_li" format="1">
  <advance width="550"/>
  <unicode hex="098C"/>
  <outline>
    <contour>
      <point x="521" y="315" type="qcurve" smooth="yes"/>
      <point x="521" y="232"/>
      <point x="470" y="46"/>
      <point x="424" y="-38" type="qcurve"/>
      <point x="391" y="-38"/>
      <point x="324" y="-27"/>
      <point x="296" y="-17" type="qcurve"/>
      <point x="296" y="97"/>
      <point x="231" y="216"/>
      <point x="171" y="216" type="qcurve" smooth="yes"/>
      <point x="142" y="216"/>
      <point x="108" y="188"/>
      <point x="108" y="165" type="qcurve" smooth="yes"/>
      <point x="108" y="148"/>
      <point x="127" y="130"/>
      <point x="145" y="130" type="qcurve" smooth="yes"/>
      <point x="161" y="130"/>
      <point x="189" y="148"/>
      <point x="204" y="170" type="qcurve"/>
      <point x="222" y="135"/>
      <point x="251" y="38"/>
      <point x="255" y="0" type="qcurve"/>
      <point x="240" y="-18"/>
      <point x="201" y="-36"/>
      <point x="178" y="-36" type="qcurve" smooth="yes"/>
      <point x="110" y="-36"/>
      <point x="20" y="91"/>
      <point x="20" y="186" type="qcurve" smooth="yes"/>
      <point x="20" y="281"/>
      <point x="112" y="397"/>
      <point x="189" y="397" type="qcurve" smooth="yes"/>
      <point x="260" y="397"/>
      <point x="350" y="274"/>
      <point x="360" y="164" type="qcurve"/>
      <point x="389" y="215"/>
      <point x="421" y="306"/>
      <point x="421" y="338" type="qcurve" smooth="yes"/>
      <point x="421" y="371"/>
      <point x="363" y="412"/>
      <point x="270" y="431" type="qcurve" smooth="yes"/>
      <point x="150" y="459"/>
      <point x="55" y="563"/>
      <point x="39" y="670" type="qcurve"/>
      <point x="61" y="685"/>
      <point x="114" y="710"/>
      <point x="148" y="720" type="qcurve"/>
      <point x="158" y="659"/>
      <point x="204" y="605"/>
      <point x="276" y="587" type="qcurve"/>
      <point x="341" y="571" type="line" smooth="yes"/>
      <point x="432" y="549"/>
      <point x="521" y="422"/>
    </contour>
    <contour>
      <point x="295" y="690" type="move" name="chandrabindu"/>
    </contour>
  </outline>
</glyph>
<glyph name="bn_au" format="1">
  <advance width="812"/>
  <unicode hex="0994"/>
  <outline>
    <contour>
      <point x="714" y="153" type="qcurve" smooth="yes"/>
      <point x="714" y="66"/>
      <point x="596" y="-42"/>
      <point x="496" y="-42" type="qcurve" smooth="yes"/>
      <point x="336" y="-42"/>
      <point x="99" y="247"/>
      <point x="16" y="554" type="qcurve"/>
      <point x="41" y="570"/>
      <point x="95" y="594"/>
      <point x="124" y="601" type="qcurve"/>
      <point x="184" y="395"/>
      <point x="394" y="129"/>
      <point x="506" y="129" type="qcurve" smooth="yes"/>
      <point x="547" y="129"/>
      <point x="594" y="166"/>
      <point x="594" y="198" type="qcurve" smooth="yes"/>
      <point x="594" y="209"/>
      <point x="587" y="232"/>
      <point x="581" y="241" type="qcurve"/>
      <point x="566" y="222"/>
      <point x="524" y="202"/>
      <point x="499" y="202" type="qcurve" smooth="yes"/>
      <point x="451" y="202"/>
      <point x="387" y="269"/>
      <point x="387" y="321" type="qcurve" smooth="yes"/>
      <point x="387" y="372"/>
      <point x="450" y="441"/>
      <point x="493" y="441" type="qcurve" smooth="yes"/>
      <point x="510" y="441"/>
      <point x="542" y="429"/>
      <point x="555" y="418" type="qcurve"/>
      <point x="572" y="435"/>
      <point x="590" y="476"/>
      <point x="590" y="495" type="qcurve" smooth="yes"/>
      <point x="590" y="522"/>
      <point x="555" y="554"/>
      <point x="523" y="556" type="qcurve" smooth="yes"/>
      <point x="464" y="560"/>
      <point x="374" y="478"/>
      <point x="374" y="424" type="qcurve" smooth="yes"/>
      <point x="374" y="406"/>
      <point x="375" y="390"/>
      <point x="376" y="384" type="qcurve"/>
      <point x="331" y="384"/>
      <point x="239" y="417"/>
      <point x="212" y="443" type="qcurve"/>
      <point x="210" y="540"/>
      <point x="362" y="678"/>
      <point x="470" y="678" type="qcurve" smooth="yes"/>
      <point x="544" y="678"/>
      <point x="660" y="609"/>
      <point x="686" y="549" type="qcurve"/>
      <point x="702" y="568"/>
      <point x="718" y="609"/>
      <point x="718" y="629" type="qcurve" smooth="yes"/>
      <point x="718" y="664"/>
      <point x="656" y="699"/>
      <point x="531" y="715" type="qcurve" smooth="yes"/>
      <point x="404" y="732"/>
      <point x="308" y="817"/>
      <point x="294" y="912" type="qcurve"/>
      <point x="314" y="928"/>
      <point x="365" y="954"/>
      <point x="400" y="967" type="qcurve"/>
      <point x="410" y="902"/>
      <point x="457" y="850"/>
      <point x="524" y="840" type="qcurve"/>
      <point x="607" y="828" type="line" smooth="yes"/>
      <point x="698" y="815"/>
      <point x="792" y="714"/>
      <point x="792" y="628" type="qcurve" smooth="yes"/>
      <point x="792" y="567"/>
      <point x="741" y="447"/>
      <point x="690" y="387" type="qcurve"/>
      <point x="683" y="366"/>
      <point x="662" y="330"/>
      <point x="648" y="314" type="qcurve"/>
      <point x="680" y="282"/>
      <point x="714" y="199"/>
    </contour>
    <contour>
      <point x="456" y="345" type="qcurve" smooth="yes"/>
      <point x="456" y="334"/>
      <point x="470" y="320"/>
      <point x="481" y="320" type="qcurve" smooth="yes"/>
      <point x="492" y="320"/>
      <point x="513" y="334"/>
      <point x="523" y="347" type="qcurve"/>
      <point x="515" y="361"/>
      <point x="495" y="376"/>
      <point x="485" y="376" type="qcurve" smooth="yes"/>
      <point x="473" y="376"/>
      <point x="456" y="358"/>
    </contour>
    <contour>
      <point x="594" y="860" type="move" name="chandrabindu"/>
    </contour>
  </outline>
</glyph>
<glyph name="bn_ka" format="1">
  <advance width="671"/>
  <unicode hex="0995"/>
  <outline>
    <contour>
      <point x="469" y="-16" type="qcurve"/>
      <point x="441" y="-26"/>
      <point x="351" y="-38"/>
      <point x="303" y="-38" type="qcurve"/>
      <point x="263" y="40"/>
      <point x="154" y="134"/>
      <point x="84" y="150" type="qcurve"/>
      <point x="53" y="197"/>
      <point x="21" y="284"/>
      <point x="18" y="331" type="qcurve"/>
      <point x="74" y="388"/>
      <point x="224" y="478"/>
      <point x="324" y="514" type="qcurve"/>
      <point x="324" y="518"/>
      <point x="325" y="526"/>
      <point x="326" y="535" type="qcurve"/>
      <point x="240" y="535"/>
      <point x="74" y="519"/>
      <point x="0" y="504" type="qcurve"/>
      <point x="-5" y="517"/>
      <point x="-11" y="559"/>
      <point x="-11" y="579" type="qcurve" smooth="yes"/>
      <point x="-11" y="598"/>
      <point x="-5" y="629"/>
      <point x="0" y="639" type="qcurve"/>
      <point x="67" y="656"/>
      <point x="242" y="674"/>
      <point x="335" y="674" type="qcurve" smooth="yes"/>
      <point x="431" y="674"/>
      <point x="614" y="655"/>
      <point x="671" y="639" type="qcurve"/>
      <point x="676" y="629"/>
      <point x="681" y="597"/>
      <point x="681" y="577" type="qcurve" smooth="yes"/>
      <point x="681" y="556"/>
      <point x="676" y="517"/>
      <point x="671" y="504" type="qcurve"/>
      <point x="623" y="514"/>
      <point x="508" y="528"/>
      <point x="449" y="531" type="qcurve"/>
      <point x="448" y="522"/>
      <point x="447" y="514"/>
      <point x="447" y="510" type="qcurve"/>
      <point x="535" y="486"/>
      <point x="656" y="349"/>
      <point x="656" y="273" type="qcurve" smooth="yes"/>
      <point x="656" y="223"/>
      <point x="612" y="140"/>
      <point x="571" y="111" type="qcurve"/>
      <point x="539" y="117"/>
      <point x="476" y="179"/>
      <point x="458" y="221" type="qcurve"/>
      <point x="496" y="232"/>
      <point x="559" y="286"/>
      <point x="559" y="308" type="qcurve" smooth="yes"/>
      <point x="559" y="325"/>
      <point x="505" y="340"/>
      <point x="440" y="339" type="qcurve"/>
      <point x="440" y="292" type="line" smooth="yes"/>
      <point x="440" y="199"/>
      <point x="455" y="39"/>
    </contour>
    <contour>
      <point x="176" y="244" type="qcurve"/>
      <point x="214" y="219"/>
      <point x="278" y="154"/>
      <point x="302" y="116" type="qcurve"/>
      <point x="302" y="168"/>
      <point x="304" y="269"/>
      <point x="307" y="326" type="qcurve"/>
      <point x="273" y="311"/>
      <point x="205" y="268"/>
    </contour>
    <contour>
      <point x="359" y="-15" type="move" name="blwm"/>
    </contour>
    <contour>
      <point x="135" y="0" type="move" name="nukt"/>
    </contour>
    <contour>
      <point x="388" y="690" type="move" name="reph"/>
    </contour>
    <contour>
      <point x="388" y="690" type="move" name="chandrabindu"/>
    </contour>
    <contour>
      <point x="206" y="-10" type="move" name="haln"/>
    </contour>
  </outline>
</glyph>
<glyph name="bn_kha" format="1">
  <advance width="663"/>
  <unicode hex="0996"/>
  <outline>
    <contour>
      <point x="603" y="445" type="qcurve" smooth="yes"/>
      <point x="603" y="283"/>
      <point x="574" y="27"/>
      <point x="547" y="-42" type="qcurve"/>
      <point x="507" y="-42"/>
      <point x="414" y="-29"/>
      <point x="386" y="-19" type="qcurve"/>
      <point x="347" y="61"/>
      <point x="245" y="150"/>
      <point x="177" y="164" type="qcurve"/>
      <point x="153" y="206"/>
      <point x="126" y="282"/>
      <point x="121" y="323" type="qcurve"/>
      <point x="212" y="369" type="line" smooth="yes"/>
      <point x="258" y="393"/>
      <point x="307" y="446"/>
      <point x="311" y="478" type="qcurve"/>
      <point x="281" y="445"/>
      <point x="207" y="408"/>
      <point x="170" y="408" type="qcurve" smooth="yes"/>
      <point x="105" y="408"/>
      <point x="32" y="492"/>
      <point x="32" y="566" type="qcurve" smooth="yes"/>
      <point x="32" y="576"/>
      <point x="35" y="591"/>
      <point x="38" y="599" type="qcurve"/>
      <point x="63" y="616"/>
      <point x="135" y="634"/>
      <point x="177" y="634" type="qcurve"/>
      <point x="174" y="629"/>
      <point x="171" y="617"/>
      <point x="171" y="606" type="qcurve" smooth="yes"/>
      <point x="171" y="582"/>
      <point x="195" y="554"/>
      <point x="216" y="554" type="qcurve" smooth="yes"/>
      <point x="242" y="554"/>
      <point x="296" y="587"/>
      <point x="316" y="614" type="qcurve"/>
      <point x="388" y="564" type="line"/>
      <point x="406" y="538"/>
      <point x="424" y="470"/>
      <point x="424" y="428" type="qcurve" smooth="yes"/>
      <point x="424" y="360"/>
      <point x="376" y="260"/>
      <point x="329" y="230" type="qcurve"/>
      <point x="363" y="201"/>
      <point x="410" y="129"/>
      <point x="423" y="86" type="qcurve"/>
      <point x="438" y="144"/>
      <point x="452" y="291"/>
      <point x="452" y="380" type="qcurve" smooth="yes"/>
      <point x="452" y="406"/>
      <point x="451" y="449"/>
      <point x="449" y="475" type="qcurve" smooth="yes"/>
      <point x="448" y="488"/>
      <point x="448" y="499"/>
      <point x="448" y="504" type="qcurve" smooth="yes"/>
      <point x="448" y="539"/>
      <point x="488" y="590"/>
      <point x="526" y="604" type="qcurve" smooth="yes"/>
      <point x="556" y="615"/>
      <point x="622" y="632"/>
      <point x="663" y="639" type="qcurve"/>
      <point x="668" y="629"/>
      <point x="674" y="599"/>
      <point x="674" y="579" type="qcurve" smooth="yes"/>
      <point x="674" y="562"/>
      <point x="668" y="519"/>
      <point x="663" y="504" type="qcurve"/>
      <point x="661" y="503"/>
      <point x="656" y="502"/>
      <point x="650" y="500" type="qcurve" smooth="yes"/>
      <point x="643" y="498"/>
      <point x="635" y="495"/>
      <point x="632" y="494" type="qcurve" smooth="yes"/>
      <point x="616" y="487"/>
      <point x="603" y="466"/>
    </contour>
    <contour>
      <point x="471" y="-10" type="move" name="blwm"/>
    </contour>
    <contour>
      <point x="191" y="0" type="move" name="nukt"/>
    </contour>
    <contour>
      <point x="459" y="690" type="move" name="reph"/>
    </contour>
    <contour>
      <point x="459" y="690" type="move" name="chandrabindu"/>
    </contour>
    <contour>
      <point x="279" y="0" type="move" name="haln"/>
    </contour>
  </outline>
</glyph>
<glyph name="bn_ga" format="1">
  <advance width="568"/>
  <unicode hex="0997"/>
  <outline>
    <contour>
      <point x="506" y="450" type="qcurve" smooth="yes"/>
      <point x="506" y="320"/>
      <point x="487" y="42"/>
      <point x="473" y="-43" type="qcurve"/>
      <point x="432" y="-43"/>
      <point x="334" y="-32"/>
      <point x="307" y="-24" type="qcurve"/>
      <point x="327" y="56"/>
      <point x="351" y="242"/>
      <point x="355" y="350" type="qcurve"/>
      <point x="353" y="417"/>
      <point x="270" y="506"/>
      <point x="216" y="506" type="qcurve" smooth="yes"/>
      <point x="178" y="506"/>
      <point x="136" y="479"/>
      <point x="136" y="455" type="qcurve"/>
      <point x="136" y="450" type="line"/>
      <point x="155" y="457"/>
      <point x="188" y="464"/>
      <point x="203" y="464" type="qcurve" smooth="yes"/>
      <point x="254" y="464"/>
      <point x="326" y="374"/>
      <point x="326" y="309" type="qcurve" smooth="yes"/>
      <point x="326" y="262"/>
      <point x="270" y="161"/>
      <point x="207" y="93" type="qcurve"/>
      <point x="168" y="121"/>
      <point x="108" y="185"/>
      <point x="88" y="221" type="qcurve"/>
      <point x="152" y="259"/>
      <point x="238" y="327"/>
      <point x="238" y="340" type="qcurve" smooth="yes"/>
      <point x="238" y="347"/>
      <point x="231" y="354"/>
      <point x="225" y="354" type="qcurve" smooth="yes"/>
      <point x="196" y="354"/>
      <point x="118" y="322"/>
      <point x="77" y="293" type="qcurve"/>
      <point x="31" y="373" type="line"/>
      <point x="26" y="393"/>
      <point x="22" y="426"/>
      <point x="22" y="440" type="qcurve" smooth="yes"/>
      <point x="22" y="534"/>
      <point x="123" y="657"/>
      <point x="203" y="657" type="qcurve" smooth="yes"/>
      <point x="262" y="657"/>
      <point x="354" y="568"/>
      <point x="380" y="486" type="qcurve"/>
      <point x="379" y="504"/>
      <point x="378" y="517"/>
      <point x="378" y="523" type="qcurve" smooth="yes"/>
      <point x="378" y="549"/>
      <point x="416" y="598"/>
      <point x="443" y="607" type="qcurve" smooth="yes"/>
      <point x="473" y="618"/>
      <point x="534" y="633"/>
      <point x="568" y="639" type="qcurve"/>
      <point x="573" y="629"/>
      <point x="579" y="596"/>
      <point x="579" y="576" type="qcurve" smooth="yes"/>
      <point x="579" y="559"/>
      <point x="573" y="519"/>
      <point x="568" y="504" type="qcurve"/>
      <point x="565" y="503"/>
      <point x="549" y="498"/>
      <point x="536" y="494" type="qcurve" smooth="yes"/>
      <point x="521" y="489"/>
      <point x="506" y="467"/>
    </contour>
    <contour>
      <point x="373" y="-10" type="move" name="blwm"/>
    </contour>
    <contour>
      <point x="178" y="0" type="move" name="nukt"/>
    </contour>
    <contour>
      <point x="390" y="690" type="move" name="reph"/>
    </contour>
    <contour>
      <point x="390" y="690" type="move" name="chandrabindu"/>
    </contour>
    <contour>
      <point x="219" y="-10" type="move" name="haln"/>
    </contour>
  </outline>
</glyph>
<glyph name="bn_nga" format="1">
  <advance width="629"/>
  <unicode hex="0999"/>
  <outline>
    <contour>
      <point x="385" y="554" type="qcurve"/>
      <point x="394" y="552"/>
      <point x="415" y="550"/>
      <point x="426" y="550" type="qcurve" smooth="yes"/>
      <point x="458" y="550"/>
      <point x="490" y="570"/>
      <point x="490" y="590" type="qcurve" smooth="yes"/>
      <point x="490" y="606"/>
      <point x="470" y="625"/>
      <point x="453" y="625" type="qcurve" smooth="yes"/>
      <point x="432" y="625"/>
      <point x="398" y="590"/>
    </contour>
    <contour>
      <point x="603" y="201" type="qcurve" smooth="yes"/>
      <point x="603" y="84"/>
      <point x="487" y="-53"/>
      <point x="385" y="-53" type="qcurve" smooth="yes"/>
      <point x="256" y="-53"/>
      <point x="70" y="174"/>
      <point x="10" y="413" type="qcurve"/>
      <point x="35" y="426"/>
      <point x="90" y="446"/>
      <point x="118" y="454" type="qcurve"/>
      <point x="169" y="289"/>
      <point x="309" y="116"/>
      <point x="393" y="116" type="qcurve" smooth="yes"/>
      <point x="448" y="116"/>
      <point x="505" y="184"/>
      <point x="505" y="247" type="qcurve"/>
      <point x="477" y="221"/>
      <point x="427" y="199"/>
      <point x="397" y="198" type="qcurve" smooth="yes"/>
      <point x="321" y="196"/>
      <point x="230" y="320"/>
      <point x="230" y="427" type="qcurve" smooth="yes"/>
      <point x="230" y="440"/>
      <point x="232" y="466"/>
      <point x="233" y="479" type="qcurve"/>
      <point x="184" y="496"/>
      <point x="107" y="538"/>
      <point x="86" y="559" type="qcurve"/>
      <point x="96" y="597"/>
      <point x="125" y="662"/>
      <point x="145" y="689" type="qcurve"/>
      <point x="163" y="665"/>
      <point x="227" y="617"/>
      <point x="265" y="597" type="qcurve"/>
      <point x="291" y="649"/>
      <point x="376" y="703"/>
      <point x="432" y="703" type="qcurve" smooth="yes"/>
      <point x="495" y="703"/>
      <point x="567" y="637"/>
      <point x="567" y="582" type="qcurve" smooth="yes"/>
      <point x="567" y="520"/>
      <point x="479" y="446"/>
      <point x="402" y="446" type="qcurve" smooth="yes"/>
      <point x="396" y="446"/>
      <point x="380" y="447"/>
      <point x="364" y="448" type="qcurve"/>
      <point x="361" y="420"/>
      <point x="358" y="365"/>
      <point x="358" y="340" type="qcurve" smooth="yes"/>
      <point x="358" y="332"/>
      <point x="366" y="322"/>
      <point x="372" y="322" type="qcurve" smooth="yes"/>
      <point x="382" y="322"/>
      <point x="412" y="358"/>
      <point x="448" y="419" type="qcurve"/>
      <point x="474" y="413"/>
      <point x="534" y="391"/>
      <point x="562" y="378" type="qcurve"/>
      <point x="582" y="340"/>
      <point x="603" y="249"/>
    </contour>
    <contour>
      <point x="351" y="-20" type="move" name="blwm"/>
    </contour>
    <contour>
      <point x="151" y="-120" type="move" name="nukt"/>
    </contour>
    <contour>
      <point x="345" y="690" type="move" name="reph"/>
    </contour>
    <contour>
      <point x="345" y="690" type="move" name="chandrabindu"/>
    </contour>
    <contour>
      <point x="257" y="-20" type="move" name="haln"/>
    </contour>
  </outline>
</glyph>
<glyph name="bn_cha" format="1">
  <advance width="560"/>
  <unicode hex="099B"/>
  <outline>
    <contour>
      <point x="186" y="344" type="qcurve" smooth="yes"/>
      <point x="186" y="328"/>
      <point x="193" y="316"/>
      <point x="202" y="316" type="qcurve" smooth="yes"/>
      <point x="226" y="316"/>
      <point x="272" y="379"/>
      <point x="272" y="415" type="qcurve"/>
      <point x="249" y="419"/>
      <point x="209" y="437"/>
      <point x="194" y="450" type="qcurve"/>
      <point x="190" y="419"/>
      <point x="186" y="363"/>
    </contour>
    <contour>
      <point x="554" y="-84" type="qcurve"/>
      <point x="535" y="-109"/>
      <point x="491" y="-154"/>
      <point x="468" y="-172" type="qcurve"/>
      <point x="383" y="-97"/>
      <point x="202" y="15"/>
      <point x="107" y="51" type="qcurve"/>
      <point x="86" y="228" type="line"/>
      <point x="125" y="214"/>
      <point x="206" y="199"/>
      <point x="243" y="199" type="qcurve" smooth="yes"/>
      <point x="308" y="199"/>
      <point x="381" y="257"/>
      <point x="381" y="308" type="qcurve" smooth="yes"/>
      <point x="381" y="318"/>
      <point x="379" y="334"/>
      <point x="377" y="341" type="qcurve"/>
      <point x="349" y="292"/>
      <point x="252" y="235"/>
      <point x="195" y="235" type="qcurve" smooth="yes"/>
      <point x="134" y="235"/>
      <point x="45" y="317"/>
      <point x="45" y="378" type="qcurve" smooth="yes"/>
      <point x="45" y="397"/>
      <point x="50" y="478"/>
      <point x="54" y="515" type="qcurve"/>
      <point x="32" y="511"/>
      <point x="5" y="505"/>
      <point x="0" y="504" type="qcurve"/>
      <point x="-4" y="518"/>
      <point x="-9" y="558"/>
      <point x="-9" y="578" type="qcurve" smooth="yes"/>
      <point x="-9" y="596"/>
      <point x="-4" y="628"/>
      <point x="0" y="639" type="qcurve"/>
      <point x="39" y="653"/>
      <point x="202" y="671"/>
      <point x="286" y="671" type="qcurve" smooth="yes"/>
      <point x="368" y="671"/>
      <point x="522" y="653"/>
      <point x="562" y="639" type="qcurve"/>
      <point x="566" y="629"/>
      <point x="571" y="596"/>
      <point x="571" y="579" type="qcurve" smooth="yes"/>
      <point x="571" y="561"/>
      <point x="565" y="522"/>
      <point x="560" y="504" type="qcurve"/>
      <point x="511" y="517"/>
      <point x="363" y="532"/>
      <point x="286" y="532" type="qcurve" smooth="yes"/>
      <point x="273" y="532"/>
      <point x="242" y="531"/>
      <point x="211" y="530" type="qcurve"/>
      <point x="242" y="512"/>
      <point x="345" y="484"/>
      <point x="402" y="478" type="qcurve"/>
      <point x="457" y="433"/>
      <point x="521" y="312"/>
      <point x="521" y="249" type="qcurve" smooth="yes"/>
      <point x="521" y="173"/>
      <point x="423" y="76"/>
      <point x="335" y="64" type="qcurve"/>
      <point x="386" y="34"/>
      <point x="494" y="-40"/>
    </contour>
    <contour>
      <point x="276" y="0" type="move" name="blwm"/>
    </contour>
    <contour>
      <point x="131" y="-170" type="move" name="nukt"/>
    </contour>
    <contour>
      <point x="270" y="690" type="move" name="reph"/>
    </contour>
    <contour>
      <point x="270" y="690" type="move" name="chandrabindu"/>
    </contour>
    <contour>
      <point x="87.0" y="0.0" type="move" name="haln"/>
    </contour>
  </outline>
</glyph>
<glyph name="bn_ja" format="1">
  <advance width="760"/>
  <unicode hex="099C"/>
  <outline>
    <contour>
      <point x="529" y="320" type="qcurve"/>
      <point x="537" y="294"/>
      <point x="546" y="233"/>
      <point x="546" y="202" type="qcurve" smooth="yes"/>
      <point x="546" y="90"/>
      <point x="441" y="-39"/>
      <point x="349" y="-39" type="qcurve" smooth="yes"/>
      <point x="231" y="-39"/>
      <point x="62" y="185"/>
      <point x="11" y="414" type="qcurve"/>
      <point x="34" y="426"/>
      <point x="87" y="447"/>
      <point x="116" y="456" type="qcurve"/>
      <point x="156" y="297"/>
      <point x="284" y="120"/>
      <point x="360" y="120" type="qcurve" smooth="yes"/>
      <point x="402" y="120"/>
      <point x="448" y="175"/>
      <point x="452" y="229" type="qcurve"/>
      <point x="424" y="211"/>
      <point x="384" y="197"/>
      <point x="363" y="197" type="qcurve" smooth="yes"/>
      <point x="297" y="197"/>
      <point x="199" y="307"/>
      <point x="199" y="388" type="qcurve" smooth="yes"/>
      <point x="199" y="416"/>
      <point x="212" y="487"/>
      <point x="225" y="533" type="qcurve"/>
      <point x="164" y="529"/>
      <point x="49" y="514"/>
      <point x="0" y="504" type="qcurve"/>
      <point x="-5" y="517"/>
      <point x="-11" y="560"/>
      <point x="-11" y="581" type="qcurve" smooth="yes"/>
      <point x="-11" y="599"/>
      <point x="-5" y="630"/>
      <point x="0" y="639" type="qcurve"/>
      <point x="73" y="657"/>
      <point x="273" y="677"/>
      <point x="379" y="677" type="qcurve" smooth="yes"/>
      <point x="489" y="677"/>
      <point x="698" y="656"/>
      <point x="760" y="639" type="qcurve"/>
      <point x="765" y="629"/>
      <point x="770" y="597"/>
      <point x="770" y="577" type="qcurve" smooth="yes"/>
      <point x="770" y="556"/>
      <point x="765" y="517"/>
      <point x="760" y="504" type="qcurve"/>
      <point x="703" y="516"/>
      <point x="546" y="533"/>
      <point x="463" y="536" type="qcurve"/>
      <point x="483" y="508"/>
      <point x="543" y="479"/>
      <point x="580" y="479" type="qcurve" smooth="yes"/>
      <point x="597" y="479"/>
      <point x="626" y="486"/>
      <point x="647" y="496" type="qcurve"/>
      <point x="676" y="478"/>
      <point x="723" y="415"/>
      <point x="737" y="375" type="qcurve"/>
      <point x="719" y="320"/>
      <point x="702" y="208"/>
      <point x="702" y="151" type="qcurve" smooth="yes"/>
      <point x="702" y="111"/>
      <point x="710" y="29"/>
      <point x="718" y="-13" type="qcurve"/>
      <point x="700" y="-20"/>
      <point x="614" y="-33"/>
      <point x="586" y="-33" type="qcurve"/>
      <point x="580" y="-1"/>
      <point x="574" y="72"/>
      <point x="574" y="112" type="qcurve" smooth="yes"/>
      <point x="574" y="168"/>
      <point x="597" y="293"/>
      <point x="617" y="344" type="qcurve"/>
      <point x="537" y="349"/>
      <point x="403" y="448"/>
      <point x="374" y="524" type="qcurve"/>
      <point x="346" y="479"/>
      <point x="304" y="369"/>
      <point x="304" y="346" type="qcurve" smooth="yes"/>
      <point x="304" y="336"/>
      <point x="313" y="325"/>
      <point x="321" y="325" type="qcurve" smooth="yes"/>
      <point x="336" y="325"/>
      <point x="384" y="367"/>
      <point x="403" y="397" type="qcurve"/>
      <point x="433" y="383"/>
      <point x="501" y="341"/>
    </contour>
    <contour>
      <point x="344" y="-10" type="move" name="blwm"/>
    </contour>
    <contour>
      <point x="239" y="-120" type="move" name="nukt"/>
    </contour>
    <contour>
      <point x="414" y="690" type="move" name="reph"/>
    </contour>
    <contour>
      <point x="414" y="690" type="move" name="chandrabindu"/>
    </contour>
    <contour>
      <point x="227" y="0" type="move" name="haln"/>
    </contour>
  </outline>
</glyph>
<glyph name="bn_jha" format="1">
  <advance width="727"/>
  <unicode hex="099D"/>
  <outline>
    <contour>
      <point x="173" y="241" type="qcurve"/>
      <point x="209" y="212"/>
      <point x="268" y="145"/>
      <point x="288" y="109" type="qcurve"/>
      <point x="289" y="154"/>
      <point x="300" y="261"/>
      <point x="310" y="322" type="qcurve"/>
      <point x="274" y="306"/>
      <point x="204" y="264"/>
    </contour>
    <contour>
      <point x="442" y="125" type="qcurve"/>
      <point x="444" y="81"/>
      <point x="451" y="14"/>
      <point x="456" y="-11" type="qcurve"/>
      <point x="429" y="-24"/>
      <point x="346" y="-37"/>
      <point x="290" y="-37" type="qcurve"/>
      <point x="252" y="38"/>
      <point x="145" y="132"/>
      <point x="75" y="151" type="qcurve"/>
      <point x="47" y="200"/>
      <point x="21" y="287"/>
      <point x="20" y="334" type="qcurve"/>
      <point x="84" y="396"/>
      <point x="248" y="486"/>
      <point x="352" y="518" type="qcurve"/>
      <point x="353" y="521"/>
      <point x="354" y="527"/>
      <point x="355" y="530" type="qcurve"/>
      <point x="337" y="532"/>
      <point x="303" y="533"/>
      <point x="286" y="533" type="qcurve" smooth="yes"/>
      <point x="212" y="533"/>
      <point x="57" y="517"/>
      <point x="0" y="504" type="qcurve"/>
      <point x="-4" y="519"/>
      <point x="-9" y="561"/>
      <point x="-9" y="582" type="qcurve" smooth="yes"/>
      <point x="-9" y="599"/>
      <point x="-4" y="629"/>
      <point x="0" y="639" type="qcurve"/>
      <point x="48" y="653"/>
      <point x="208" y="672"/>
      <point x="286" y="672" type="qcurve" smooth="yes"/>
      <point x="316" y="672"/>
      <point x="384" y="666"/>
      <point x="410" y="661" type="qcurve" smooth="yes"/>
      <point x="438" y="656"/>
      <point x="468" y="619"/>
      <point x="468" y="590" type="qcurve" smooth="yes"/>
      <point x="468" y="586"/>
      <point x="467" y="570"/>
      <point x="464" y="544" type="qcurve" smooth="yes"/>
      <point x="454" y="453"/>
      <point x="444" y="315"/>
      <point x="442" y="248" type="qcurve"/>
      <point x="466" y="228"/>
      <point x="509" y="181"/>
      <point x="525" y="157" type="qcurve"/>
      <point x="523" y="185"/>
      <point x="521" y="246"/>
      <point x="521" y="277" type="qcurve" smooth="yes"/>
      <point x="521" y="339"/>
      <point x="527" y="467"/>
      <point x="533" y="518" type="qcurve" smooth="yes"/>
      <point x="536" y="547"/>
      <point x="575" y="598"/>
      <point x="602" y="607" type="qcurve" smooth="yes"/>
      <point x="632" y="618"/>
      <point x="693" y="633"/>
      <point x="727" y="639" type="qcurve"/>
      <point x="732" y="629"/>
      <point x="738" y="596"/>
      <point x="738" y="576" type="qcurve" smooth="yes"/>
      <point x="738" y="559"/>
      <point x="732" y="519"/>
      <point x="727" y="504" type="qcurve"/>
      <point x="711" y="500"/>
      <point x="687" y="492"/>
      <point x="676" y="488" type="qcurve" smooth="yes"/>
      <point x="661" y="483"/>
      <point x="646" y="461"/>
      <point x="646" y="444" type="qcurve"/>
      <point x="646" y="378" type="line" smooth="yes"/>
      <point x="646" y="297"/>
      <point x="676" y="115"/>
      <point x="701" y="40" type="qcurve"/>
      <point x="676" y="26"/>
      <point x="584" y="11"/>
      <point x="544" y="13" type="qcurve"/>
      <point x="523" y="47"/>
      <point x="472" y="103"/>
    </contour>
    <contour>
      <point x="358" y="-4" type="move" name="blwm"/>
    </contour>
    <contour>
      <point x="90" y="0" type="move" name="nukt"/>
    </contour>
    <contour>
      <point x="433" y="690" type="move" name="reph"/>
    </contour>
    <contour>
      <point x="433" y="690" type="move" name="chandrabindu"/>
    </contour>
    <contour>
      <point x="234" y="0" type="move" name="haln"/>
    </contour>
  </outline>
</glyph>
<glyph name="bn_ttha" format="1">
  <advance width="516"/>
  <unicode hex="09A0"/>
  <outline>
    <contour>
      <point x="124" y="110" type="qcurve"/>
      <point x="137" y="101"/>
      <point x="168" y="92"/>
      <point x="186" y="92" type="qcurve" smooth="yes"/>
      <point x="255" y="92"/>
      <point x="348" y="226"/>
      <point x="348" y="318" type="qcurve" smooth="yes"/>
      <point x="348" y="370"/>
      <point x="323" y="471"/>
      <point x="298" y="522" type="qcurve"/>
      <point x="303" y="501"/>
      <point x="308" y="456"/>
      <point x="308" y="431" type="qcurve" smooth="yes"/>
      <point x="308" y="314"/>
      <point x="213" y="148"/>
    </contour>
    <contour>
      <point x="391" y="522" type="qcurve"/>
      <point x="436" y="445"/>
      <point x="481" y="300"/>
      <point x="481" y="231" type="qcurve" smooth="yes"/>
      <point x="481" y="110"/>
      <point x="352" y="-37"/>
      <point x="244" y="-37" type="qcurve" smooth="yes"/>
      <point x="142" y="-37"/>
      <point x="23" y="92"/>
      <point x="23" y="201" type="qcurve" smooth="yes"/>
      <point x="23" y="207"/>
      <point x="24" y="222"/>
      <point x="25" y="237" type="qcurve"/>
      <point x="105" y="277"/>
      <point x="211" y="433"/>
      <point x="211" y="522" type="qcurve"/>
      <point x="211" y="530" type="line"/>
      <point x="166" y="527"/>
      <point x="59" y="514"/>
      <point x="0" y="504" type="qcurve"/>
      <point x="-5" y="519"/>
      <point x="-11" y="562"/>
      <point x="-11" y="582" type="qcurve" smooth="yes"/>
      <point x="-11" y="601"/>
      <point x="-5" y="630"/>
      <point x="0" y="639" type="qcurve"/>
      <point x="46" y="650"/>
      <point x="154" y="665"/>
      <point x="205" y="668" type="qcurve"/>
      <point x="177" y="717"/>
      <point x="152" y="800"/>
      <point x="152" y="838" type="qcurve" smooth="yes"/>
      <point x="152" y="884"/>
      <point x="183" y="972"/>
      <point x="212" y="1007" type="qcurve"/>
      <point x="242" y="996"/>
      <point x="294" y="967"/>
      <point x="317" y="947" type="qcurve"/>
      <point x="294" y="926"/>
      <point x="264" y="852"/>
      <point x="264" y="816" type="qcurve" smooth="yes"/>
      <point x="264" y="782"/>
      <point x="288" y="709"/>
      <point x="313" y="668" type="qcurve"/>
      <point x="359" y="665"/>
      <point x="464" y="650"/>
      <point x="516" y="639" type="qcurve"/>
      <point x="521" y="630"/>
      <point x="527" y="601"/>
      <point x="527" y="582" type="qcurve" smooth="yes"/>
      <point x="527" y="562"/>
      <point x="521" y="519"/>
      <point x="516" y="504" type="qcurve"/>
      <point x="479" y="511"/>
      <point x="418" y="520"/>
    </contour>
    <contour>
      <point x="244" y="-10" type="move" name="blwm"/>
    </contour>
    <contour>
      <point x="192" y="-120" type="move" name="nukt"/>
    </contour>
    <contour>
      <point x="312" y="667" type="move" name="reph"/>
    </contour>
    <contour>
      <point x="469" y="690" type="move" name="chandrabindu"/>
    </contour>
    <contour>
      <point x="80" y="0" type="move" name="haln"/>
    </contour>
  </outline>
</glyph>
<glyph name="bn_ddha" format="1">
  <advance width="522"/>
  <unicode hex="09A2"/>
  <outline>
    <contour>
      <point x="344" y="404" type="qcurve" smooth="yes"/>
      <point x="409" y="404"/>
      <point x="496" y="316"/>
      <point x="496" y="245" type="qcurve" smooth="yes"/>
      <point x="496" y="141"/>
      <point x="341" y="-37"/>
      <point x="249" y="-37" type="qcurve" smooth="yes"/>
      <point x="167" y="-37"/>
      <point x="59" y="73"/>
      <point x="59" y="159" type="qcurve" smooth="yes"/>
      <point x="59" y="241"/>
      <point x="72" y="423"/>
      <point x="85" y="520" type="qcurve"/>
      <point x="65" y="517"/>
      <point x="25" y="510"/>
      <point x="0" y="504" type="qcurve"/>
      <point x="-4" y="519"/>
      <point x="-8" y="555"/>
      <point x="-8" y="572" type="qcurve" smooth="yes"/>
      <point x="-8" y="591"/>
      <point x="-4" y="627"/>
      <point x="0" y="639" type="qcurve"/>
      <point x="41" y="653"/>
      <point x="176" y="670"/>
      <point x="253" y="670" type="qcurve" smooth="yes"/>
      <point x="320" y="670"/>
      <point x="471" y="653"/>
      <point x="522" y="639" type="qcurve"/>
      <point x="527" y="629"/>
      <point x="533" y="596"/>
      <point x="533" y="574" type="qcurve" smooth="yes"/>
      <point x="533" y="554"/>
      <point x="527" y="516"/>
      <point x="522" y="504" type="qcurve"/>
      <point x="464" y="516"/>
      <point x="317" y="531"/>
      <point x="256" y="531" type="qcurve"/>
      <point x="253" y="531" type="line"/>
      <point x="232" y="436"/>
      <point x="207" y="209"/>
      <point x="207" y="111" type="qcurve" smooth="yes"/>
      <point x="207" y="87"/>
      <point x="220" y="65"/>
      <point x="235" y="64" type="qcurve" smooth="yes"/>
      <point x="263" y="64"/>
      <point x="325" y="171"/>
      <point x="325" y="213" type="qcurve" smooth="yes"/>
      <point x="325" y="233"/>
      <point x="307" y="255"/>
      <point x="292" y="255" type="qcurve" smooth="yes"/>
      <point x="279" y="255"/>
      <point x="254" y="247"/>
      <point x="244" y="239" type="qcurve"/>
      <point x="243" y="241"/>
      <point x="242" y="253"/>
      <point x="242" y="258" type="qcurve" smooth="yes"/>
      <point x="242" y="293"/>
      <point x="265" y="370"/>
      <point x="283" y="393" type="qcurve"/>
      <point x="294" y="399"/>
      <point x="324" y="404"/>
    </contour>
    <contour>
      <point x="244" y="-10" type="move" name="blwm"/>
    </contour>
    <contour>
      <point x="188" y="-120" type="move" name="nukt"/>
    </contour>
    <contour>
      <point x="224" y="690" type="move" name="reph"/>
    </contour>
    <contour>
      <point x="224" y="690" type="move" name="chandrabindu"/>
    </contour>
    <contour>
      <point x="105" y="0" type="move" name="haln"/>
    </contour>
  </outline>
</glyph>
<glyph name="bn_nna" format="1">
  <advance width="549"/>
  <unicode hex="09A3"/>
  <outline>
    <contour>
      <point x="489" y="439" type="qcurve" smooth="yes"/>
      <point x="481" y="257"/>
      <point x="459" y="38"/>
      <point x="442" y="-43" type="qcurve"/>
      <point x="402" y="-43"/>
      <point x="307" y="-24"/>
      <point x="279" y="-10" type="qcurve"/>
      <point x="296" y="43"/>
      <point x="321" y="168"/>
      <point x="329" y="241" type="qcurve"/>
      <point x="329" y="242"/>
      <point x="330" y="246"/>
      <point x="330" y="247" type="qcurve"/>
      <point x="334" y="290"/>
      <point x="337" y="334"/>
      <point x="338" y="354" type="qcurve"/>
      <point x="334" y="406"/>
      <point x="254" y="472"/>
      <point x="206" y="472" type="qcurve" smooth="yes"/>
      <point x="170" y="472"/>
      <point x="123" y="423"/>
      <point x="123" y="386" type="qcurve" smooth="yes"/>
      <point x="123" y="366"/>
      <point x="139" y="343"/>
      <point x="153" y="343" type="qcurve" smooth="yes"/>
      <point x="170" y="343"/>
      <point x="188" y="379"/>
      <point x="188" y="408" type="qcurve" smooth="yes"/>
      <point x="188" y="417"/>
      <point x="186" y="436"/>
      <point x="184" y="444" type="qcurve"/>
      <point x="220" y="433"/>
      <point x="282" y="393"/>
      <point x="302" y="369" type="qcurve"/>
      <point x="303" y="366"/>
      <point x="304" y="358"/>
      <point x="304" y="352" type="qcurve" smooth="yes"/>
      <point x="304" y="299"/>
      <point x="235" y="227"/>
      <point x="183" y="227" type="qcurve" smooth="yes"/>
      <point x="115" y="227"/>
      <point x="25" y="350"/>
      <point x="25" y="442" type="qcurve" smooth="yes"/>
      <point x="25" y="535"/>
      <point x="116" y="657"/>
      <point x="188" y="657" type="qcurve" smooth="yes"/>
      <point x="248" y="657"/>
      <point x="339" y="569"/>
      <point x="364" y="487" type="qcurve"/>
      <point x="363" y="491"/>
      <point x="363" y="500"/>
      <point x="363" y="512" type="qcurve" smooth="yes"/>
      <point x="363" y="553"/>
      <point x="392" y="594"/>
      <point x="425" y="607" type="qcurve" smooth="yes"/>
      <point x="447" y="616"/>
      <point x="518" y="634"/>
      <point x="549" y="639" type="qcurve"/>
      <point x="554" y="630"/>
      <point x="560" y="597"/>
      <point x="560" y="578" type="qcurve" smooth="yes"/>
      <point x="560" y="560"/>
      <point x="554" y="520"/>
      <point x="549" y="504" type="qcurve"/>
      <point x="541" y="502"/>
      <point x="527" y="498"/>
      <point x="522" y="496" type="qcurve" smooth="yes"/>
      <point x="503" y="489"/>
      <point x="490" y="468"/>
    </contour>
    <contour>
      <point x="353" y="-4" type="move" name="blwm"/>
    </contour>
    <contour>
      <point x="146" y="0" type="move" name="nukt"/>
    </contour>
    <contour>
      <point x="436" y="690" type="move" name="reph"/>
    </contour>
    <contour>
      <point x="446" y="690" type="move" name="chandrabindu"/>
    </contour>
    <contour>
      <point x="219" y="0" type="move" name="haln"/>
    </contour>
  </outline>
</glyph>
<glyph name="bn_tha" format="1">
  <advance width="633"/>
  <unicode hex="09A5"/>
  <outline>
    <contour>
      <point x="573" y="444" type="qcurve" smooth="yes"/>
      <point x="573" y="279"/>
      <point x="546" y="30"/>
      <point x="519" y="-42" type="qcurve"/>
      <point x="478" y="-42"/>
      <point x="384" y="-23"/>
      <point x="357" y="-10" type="qcurve"/>
      <point x="318" y="59"/>
      <point x="214" y="137"/>
      <point x="143" y="150" type="qcurve"/>
      <point x="119" y="195"/>
      <point x="93" y="273"/>
      <point x="88" y="314" type="qcurve"/>
      <point x="184" y="364" type="line" smooth="yes"/>
      <point x="225" y="385"/>
      <point x="267" y="447"/>
      <point x="267" y="484" type="qcurve" smooth="yes"/>
      <point x="267" y="506"/>
      <point x="248" y="530"/>
      <point x="230" y="530" type="qcurve" smooth="yes"/>
      <point x="210" y="530"/>
      <point x="183" y="498"/>
      <point x="183" y="476" type="qcurve" smooth="yes"/>
      <point x="183" y="462"/>
      <point x="191" y="443"/>
      <point x="200" y="434" type="qcurve"/>
      <point x="165" y="414"/>
      <point x="90" y="397"/>
      <point x="42" y="399" type="qcurve"/>
      <point x="34" y="419"/>
      <point x="25" y="462"/>
      <point x="25" y="482" type="qcurve" smooth="yes"/>
      <point x="25" y="557"/>
      <point x="118" y="651"/>
      <point x="194" y="651" type="qcurve" smooth="yes"/>
      <point x="281" y="651"/>
      <point x="388" y="530"/>
      <point x="388" y="434" type="qcurve" smooth="yes"/>
      <point x="388" y="359"/>
      <point x="341" y="256"/>
      <point x="292" y="220" type="qcurve"/>
      <point x="328" y="192"/>
      <point x="381" y="128"/>
      <point x="398" y="93" type="qcurve"/>
      <point x="412" y="153"/>
      <point x="425" y="296"/>
      <point x="425" y="392" type="qcurve" smooth="yes"/>
      <point x="425" y="409"/>
      <point x="424" y="441"/>
      <point x="422" y="467" type="qcurve" smooth="yes"/>
      <point x="421" y="484"/>
      <point x="420" y="501"/>
      <point x="420" y="509" type="qcurve" smooth="yes"/>
      <point x="420" y="541"/>
      <point x="456" y="591"/>
      <point x="487" y="602" type="qcurve" smooth="yes"/>
      <point x="520" y="614"/>
      <point x="591" y="632"/>
      <point x="633" y="639" type="qcurve"/>
      <point x="638" y="629"/>
      <point x="644" y="599"/>
      <point x="644" y="579" type="qcurve" smooth="yes"/>
      <point x="644" y="562"/>
      <point x="638" y="519"/>
      <point x="633" y="504" type="qcurve"/>
      <point x="631" y="503"/>
      <point x="626" y="502"/>
      <point x="620" y="500" type="qcurve" smooth="yes"/>
      <point x="613" y="498"/>
      <point x="605" y="495"/>
      <point x="602" y="494" type="qcurve" smooth="yes"/>
      <point x="585" y="488"/>
      <point x="573" y="466"/>
    </contour>
    <contour>
      <point x="420" y="-10" type="move" name="blwm"/>
    </contour>
    <contour>
      <point x="185" y="0" type="move" name="nukt"/>
    </contour>
    <contour>
      <point x="495" y="690" type="move" name="reph"/>
    </contour>
    <contour>
      <point x="495" y="690" type="move" name="chandrabindu"/>
    </contour>
    <contour>
      <point x="287" y="0" type="move" name="haln"/>
    </contour>
  </outline>
</glyph>
<glyph name="bn_dha" format="1">
  <advance width="561"/>
  <unicode hex="09A7"/>
  <outline>
    <contour>
      <point x="493" y="303" type="qcurve" smooth="yes"/>
      <point x="493" y="197"/>
      <point x="502" y="47"/>
      <point x="511" y="-4" type="qcurve"/>
      <point x="482" y="-20"/>
      <point x="392" y="-37"/>
      <point x="344" y="-37" type="qcurve"/>
      <point x="303" y="41"/>
      <point x="190" y="135"/>
      <point x="116" y="152" type="qcurve"/>
      <point x="85" y="200"/>
      <point x="54" y="285"/>
      <point x="51" y="332" type="qcurve"/>
      <point x="66" y="344"/>
      <point x="102" y="370"/>
      <point x="123" y="384" type="qcurve"/>
      <point x="77" y="404"/>
      <point x="26" y="472"/>
      <point x="26" y="515" type="qcurve" smooth="yes"/>
      <point x="26" y="587"/>
      <point x="111" y="670"/>
      <point x="187" y="670" type="qcurve" smooth="yes"/>
      <point x="232" y="670"/>
      <point x="312" y="619"/>
      <point x="335" y="577" type="qcurve"/>
      <point x="310" y="546"/>
      <point x="260" y="507"/>
      <point x="228" y="494" type="qcurve"/>
      <point x="227" y="512"/>
      <point x="203" y="534"/>
      <point x="186" y="534" type="qcurve" smooth="yes"/>
      <point x="170" y="534"/>
      <point x="152" y="511"/>
      <point x="152" y="492" type="qcurve" smooth="yes"/>
      <point x="152" y="470"/>
      <point x="191" y="441"/>
      <point x="216" y="441" type="qcurve" smooth="yes"/>
      <point x="225" y="441"/>
      <point x="245" y="446"/>
      <point x="257" y="451" type="qcurve"/>
      <point x="289" y="463"/>
      <point x="349" y="483"/>
      <point x="378" y="492" type="qcurve"/>
      <point x="379" y="495"/>
      <point x="381" y="506"/>
      <point x="381" y="509" type="qcurve" smooth="yes"/>
      <point x="388" y="556"/>
      <point x="417" y="602"/>
      <point x="444" y="610" type="qcurve" smooth="yes"/>
      <point x="477" y="621"/>
      <point x="535" y="635"/>
      <point x="561" y="639" type="qcurve"/>
      <point x="566" y="629"/>
      <point x="572" y="596"/>
      <point x="572" y="576" type="qcurve" smooth="yes"/>
      <point x="572" y="559"/>
      <point x="566" y="519"/>
      <point x="561" y="504" type="qcurve"/>
      <point x="559" y="503"/>
      <point x="553" y="502"/>
      <point x="547" y="500" type="qcurve" smooth="yes"/>
      <point x="536" y="496"/>
      <point x="523" y="492"/>
      <point x="518" y="490" type="qcurve" smooth="yes"/>
      <point x="509" y="486"/>
      <point x="500" y="469"/>
      <point x="498" y="442" type="qcurve" smooth="yes"/>
      <point x="496" y="411"/>
      <point x="493" y="332"/>
    </contour>
    <contour>
      <point x="217" y="240" type="qcurve"/>
      <point x="260" y="206"/>
      <point x="326" y="129"/>
      <point x="347" y="88" type="qcurve"/>
      <point x="347" y="141"/>
      <point x="351" y="245"/>
      <point x="356" y="303" type="qcurve"/>
      <point x="321" y="291"/>
      <point x="250" y="259"/>
    </contour>
    <contour>
      <point x="399" y="0" type="move" name="blwm"/>
    </contour>
    <contour>
      <point x="166" y="0" type="move" name="nukt"/>
    </contour>
    <contour>
      <point x="464" y="691" type="move" name="reph"/>
    </contour>
    <contour>
      <point x="464" y="691" type="move" name="chandrabindu"/>
    </contour>
    <contour>
      <point x="262" y="0" type="move" name="haln"/>
    </contour>
  </outline>
</glyph>
<glyph name="bn_na" format="1">
  <advance width="537"/>
  <unicode hex="09A8"/>
  <outline>
    <contour>
      <point x="491" y="-24" type="qcurve"/>
      <point x="464" y="-30"/>
      <point x="374" y="-37"/>
      <point x="327" y="-37" type="qcurve"/>
      <point x="325" y="-18"/>
      <point x="323" y="33"/>
      <point x="323" y="80" type="qcurve"/>
      <point x="320" y="169"/>
      <point x="216" y="316"/>
      <point x="157" y="316" type="qcurve" smooth="yes"/>
      <point x="131" y="316"/>
      <point x="103" y="294"/>
      <point x="103" y="274" type="qcurve" smooth="yes"/>
      <point x="103" y="252"/>
      <point x="145" y="223"/>
      <point x="178" y="223" type="qcurve" smooth="yes"/>
      <point x="195" y="223"/>
      <point x="230" y="230"/>
      <point x="243" y="237" type="qcurve"/>
      <point x="243" y="198"/>
      <point x="229" y="106"/>
      <point x="218" y="72" type="qcurve"/>
      <point x="215" y="69"/>
      <point x="194" y="66"/>
      <point x="182" y="66" type="qcurve" smooth="yes"/>
      <point x="108" y="66"/>
      <point x="16" y="186"/>
      <point x="16" y="283" type="qcurve" smooth="yes"/>
      <point x="16" y="366"/>
      <point x="96" y="469"/>
      <point x="161" y="469" type="qcurve" smooth="yes"/>
      <point x="213" y="469"/>
      <point x="301" y="392"/>
      <point x="329" y="322" type="qcurve"/>
      <point x="333" y="385"/>
      <point x="346" y="486"/>
      <point x="355" y="529" type="qcurve"/>
      <point x="322" y="530"/>
      <point x="288" y="531"/>
      <point x="274" y="531" type="qcurve" smooth="yes"/>
      <point x="203" y="531"/>
      <point x="63" y="517"/>
      <point x="0" y="504" type="qcurve"/>
      <point x="-5" y="521"/>
      <point x="-10" y="562"/>
      <point x="-10" y="581" type="qcurve" smooth="yes"/>
      <point x="-10" y="598"/>
      <point x="-5" y="629"/>
      <point x="0" y="639" type="qcurve"/>
      <point x="56" y="653"/>
      <point x="208" y="670"/>
      <point x="279" y="670" type="qcurve" smooth="yes"/>
      <point x="346" y="670"/>
      <point x="484" y="653"/>
      <point x="537" y="639" type="qcurve"/>
      <point x="541" y="629"/>
      <point x="545" y="597"/>
      <point x="545" y="578" type="qcurve" smooth="yes"/>
      <point x="545" y="556"/>
      <point x="541" y="517"/>
      <point x="537" y="504" type="qcurve"/>
      <point x="522" y="508"/>
      <point x="496" y="513"/>
      <point x="483" y="515" type="qcurve"/>
      <point x="475" y="437"/>
      <point x="469" y="346"/>
      <point x="469" y="288" type="qcurve" smooth="yes"/>
      <point x="469" y="191"/>
      <point x="481" y="25"/>
    </contour>
    <contour>
      <point x="385" y="-5" type="move" name="blwm"/>
    </contour>
    <contour>
      <point x="199" y="-20" type="move" name="nukt"/>
    </contour>
    <contour>
      <point x="383.0" y="690.0" type="move" name="reph"/>
    </contour>
    <contour>
      <point x="383.0" y="690.0" type="move" name="chandrabindu"/>
    </contour>
    <contour>
      <point x="279" y="0" type="move" name="haln"/>
    </contour>
  </outline>
</glyph>
<glyph name="bn_pha" format="1">
  <advance width="746"/>
  <unicode hex="09AB"/>
  <outline>
    <contour>
      <point x="523" y="-7" type="qcurve"/>
      <point x="493" y="-22"/>
      <point x="401" y="-40"/>
      <point x="355" y="-40" type="qcurve"/>
      <point x="311" y="28"/>
      <point x="192" y="110"/>
      <point x="117" y="123" type="qcurve"/>
      <point x="79" y="155"/>
      <point x="33" y="239"/>
      <point x="30" y="282" type="qcurve"/>
      <point x="156" y="415" type="line"/>
      <point x="73" y="457"/>
      <point x="35" y="491"/>
      <point x="31" y="508" type="qcurve"/>
      <point x="28" y="508"/>
      <point x="21" y="507"/>
      <point x="14" y="506" type="qcurve" smooth="yes"/>
      <point x="8" y="505"/>
      <point x="2" y="504"/>
      <point x="0" y="504" type="qcurve"/>
      <point x="-10" y="535"/>
      <point x="-11" y="620"/>
      <point x="0" y="639" type="qcurve"/>
      <point x="80" y="654"/>
      <point x="287" y="670"/>
      <point x="403" y="670" type="qcurve" smooth="yes"/>
      <point x="497" y="670"/>
      <point x="692" y="652"/>
      <point x="746" y="639" type="qcurve"/>
      <point x="755" y="614"/>
      <point x="754" y="535"/>
      <point x="746" y="504" type="qcurve"/>
      <point x="681" y="516"/>
      <point x="487" y="531"/>
      <point x="399" y="531" type="qcurve" smooth="yes"/>
      <point x="354" y="531"/>
      <point x="264" y="529"/>
      <point x="219" y="526" type="qcurve"/>
      <point x="222" y="497"/>
      <point x="265" y="427"/>
      <point x="301" y="394" type="qcurve"/>
      <point x="337" y="359" type="line"/>
      <point x="222" y="219" type="line"/>
      <point x="257" y="198"/>
      <point x="320" y="142"/>
      <point x="345" y="109" type="qcurve"/>
      <point x="345" y="228"/>
      <point x="356" y="408"/>
      <point x="369" y="507" type="qcurve"/>
      <point x="519" y="507"/>
      <point x="703" y="379"/>
      <point x="703" y="278" type="qcurve" smooth="yes"/>
      <point x="703" y="228"/>
      <point x="662" y="147"/>
      <point x="622" y="118" type="qcurve"/>
      <point x="591" y="124"/>
      <point x="529" y="186"/>
      <point x="512" y="228" type="qcurve"/>
      <point x="547" y="237"/>
      <point x="608" y="283"/>
      <point x="608" y="301" type="qcurve" smooth="yes"/>
      <point x="608" y="316"/>
      <point x="558" y="329"/>
      <point x="491" y="328" type="qcurve"/>
      <point x="491" y="303" type="line" smooth="yes"/>
      <point x="491" y="196"/>
      <point x="507" y="45"/>
    </contour>
    <contour>
      <point x="410" y="0" type="move" name="blwm"/>
    </contour>
    <contour>
      <point x="157" y="0" type="move" name="nukt"/>
    </contour>
    <contour>
      <point x="386" y="690" type="move" name="reph"/>
    </contour>
    <contour>
      <point x="386" y="690" type="move" name="chandrabindu"/>
    </contour>
    <contour>
      <point x="291.0" y="0.0" type="move" name="haln"/>
    </contour>
  </outline>
</glyph>
